{
.appVersion = "1141";
copyright = "Font created by jan Same with the help of jan Wesi's sitelen pona font, here's a link to jan Wesi's font: http://imgur.com/a/9B6Xx the licence type of the font is SIL OFL.";
customParameters = (
{
name = description;
value = "Font created by jan Same with the help of jan Wesi's sitelen pona font, here's a link to jan Wesi's font: http://imgur.com/a/9B6Xx the licence type of the font is SIL OFL.";
},
{
name = trademark;
value = "linja pona 3 OTF is a trademark of jan Same.";
},
{
name = license;
value = "SIL OFL";
},
{
name = vendorID;
value = "";
},
{
name = panose;
value = (
2,
0,
0,
0,
0,
0,
0,
0,
0,
0
);
},
{
name = unicodeRanges;
value = (
0,
60
);
},
{
name = codePageRanges;
value = (
1252
);
},
{
name = glyphOrder;
value = (
.notdef,
NULL,
CR,
space,
uniE600,
uniE601,
uniE602,
uniE603,
uniE604,
uniE605,
uniE606,
uniE607,
uniE608,
uniE609,
uniE60A,
uniE60B,
uniE60C,
uniE60D,
uniE60E,
uniE60F,
uniE610,
uniE611,
uniE612,
uniE613,
uniE614,
uniE615,
uniE616,
uniE617,
uniE618,
uniE619,
uniE61A,
uniE61B,
uniE61C,
uniE61D,
uniE61E,
uniE61F,
uniE620,
uniE621,
uniE622,
uniE623,
uniE624,
uniE625,
uniE626,
uniE627,
uniE628,
uniE629,
uniE62A,
uniE62B,
uniE62C,
uniE62D,
uniE62E,
uniE62F,
uniE630,
uniE631,
uniE632,
uniE633,
uniE634,
uniE635,
uniE636,
uniE637,
uniE638,
uniE639,
uniE63A,
uniE63B,
uniE63C,
uniE63D,
uniE63E,
uniE63F,
uniE640,
uniE641,
uniE642,
uniE643,
uniE644,
uniE645,
uniE646,
uniE647,
uniE648,
uniE649,
uniE64A,
uniE64B,
uniE64C,
uniE64D,
uniE64E,
uniE64F,
uniE650,
uniE651,
uniE652,
uniE653,
uniE654,
uniE655,
uniE656,
uniE657,
uniE658,
uniE659,
uniE65A,
uniE65B,
uniE65C,
uniE65D,
uniE65E,
uniE65F,
uniE660,
uniE661,
uniE662,
uniE663,
uniE664,
uniE665,
uniE666,
uniE667,
uniE668,
uniE669,
uniE66A,
uniE66B,
uniE66C,
uniE66D,
uniE66E,
uniE66F,
uniE670,
uniE671,
uniE672,
uniE673,
uniE674,
uniE675,
uniE676,
uniE677,
uniE678,
uniE679,
exclam,
quotedbl,
numbersign,
dollar,
percent,
ampersand,
quotesingle,
parenleft,
parenright,

glyphs = (
{
glyphname = uniE600;
lastChange = "2018-07-14 05:02:01 +0000";
layers = (
{
hints = (
{
horizontal = 1;
place = "{-169, 21}";
target = up;
type = BottomGhost;
},
{
horizontal = 1;
place = "{1806, -20}";
target = down;
type = TopGhost;
},
{
place = "{960, 82}";
type = Stem;
}
);
layerId = "44EE3EC1-6A7A-489F-A767-F91A9060DD57";
paths = (
{
closed = 1;
nodes = (
"874 717 LINE",
"874 1638 LINE",
"751 1638 LINE",
"751 717 LINE"
);
},
{
closed = 1;
nodes = (
"1287 27 LINE",
"1181 239 OFFCURVE",
"1106 352 OFFCURVE",
"1029 416 CURVE SMOOTH",
"945 485 OFFCURVE",
"864 493 OFFCURVE",
"767 495 CURVE SMOOTH",
"640 498 OFFCURVE",
"567 446 OFFCURVE",
"527 401 CURVE SMOOTH",
"482 350 OFFCURVE",
"456 280 OFFCURVE",
"454 204 CURVE SMOOTH",
"452 114 OFFCURVE",
"491 62 OFFCURVE",
"524 34 CURVE SMOOTH",
"566 -1 OFFCURVE",
"623 -19 OFFCURVE",
"694 -21 CURVE SMOOTH",
"745 -22 OFFCURVE",
"824 -12 OFFCURVE",
"902 45 CURVE SMOOTH",
"959 86 OFFCURVE",
"1005 143 OFFCURVE",
"1040 216 CURVE",
"1080 157 OFFCURVE",
"1125 77 OFFCURVE",
"1177 -27 CURVE"
);
},
{
closed = 1;
nodes = (
"758 372 OFFCURVE",
"761 372 OFFCURVE",
"763 372 CURVE SMOOTH",
"851 370 OFFCURVE",
"898 364 OFFCURVE",
"950 321 CURVE",
"950 321 OFFCURVE",
"951 321 OFFCURVE",
"951 321 CURVE",
"879 119 OFFCURVE",
"749 101 OFFCURVE",
"697 102 CURVE SMOOTH",
"655 103 OFFCURVE",
"623 112 OFFCURVE",
"603 129 CURVE",
"596 134 OFFCURVE",
"576 152 OFFCURVE",
"577 201 CURVE SMOOTH",
"578 264 OFFCURVE",
"604 302 OFFCURVE",
"620 320 CURVE SMOOTH",
"650 355 OFFCURVE",
"696 372 OFFCURVE",
"756 372 CURVE SMOOTH"
);
}
);
width = 1741;
}
);
note = uniE600;
unicode = E600;
},
{
glyphname = uniE601;
lastChange = "2018-07-14 05:02:01 +0000";
layers = (
{
hints = (
{
horizontal = 1;
place = "{-176, 82}";
type = Stem;
},
{
horizontal = 1;
place = "{269, 82}";
type = Stem;
},
{
horizontal = 1;
place = "{711, 82}";
type = Stem;
},
{
horizontal = 1;
place = "{1162, 80}";
type = Stem;
},
{
horizontal = 1;
place = "{1570, 82}";
type = Stem;
},
{
horizontal = 1;
place = "{1689, 125}";
type = Stem;
},
{
horizontal = 1;
place = "{1813, -20}";
target = down;
type = TopGhost;
},
{
place = "{352, 371}";
type = Stem;
},
{
place = "{641, 82}";
type = Stem;
},
{
place = "{641, 147}";
type = Stem;
},
{
place = "{1284, 134}";
type = Stem;
},
{
place = "{1336, 82}";
type = Stem;
},
{
place = "{1336, 366}";
type = Stem;
}
);
layerId = "44EE3EC1-6A7A-489F-A767-F91A9060DD57";
paths = (
{
closed = 1;
nodes = (
"1741 1183 LINE",
"1441 1183 LINE",
"1421 1252 OFFCURVE",
"1397 1317 OFFCURVE",
"1369 1375 CURVE SMOOTH",
"1280 1551 OFFCURVE",
"1158 1649 OFFCURVE",
"1024 1649 CURVE SMOOTH",
"890 1649 OFFCURVE",
"768 1551 OFFCURVE",
"679 1375 CURVE SMOOTH",
"650 1317 OFFCURVE",
"626 1252 OFFCURVE",
"607 1183 CURVE",
"307 1183 LINE",
"307 1070 LINE",
"580 1070 LINE",
"562 976 OFFCURVE",
"553 876 OFFCURVE",
"553 773 CURVE",
"154 773 LINE",
"154 660 LINE",
"556 660 LINE",
"563 555 OFFCURVE",
"579 455 OFFCURVE",
"603 364 CURVE",
"307 364 LINE",
"307 251 LINE",
"640 251 LINE",
"652 219 OFFCURVE",
"665 189 OFFCURVE",
"679 161 CURVE SMOOTH",
"768 -16 OFFCURVE",
"890 -113 OFFCURVE",
"1024 -113 CURVE SMOOTH",
"1158 -113 OFFCURVE",
"1280 -16 OFFCURVE",
"1369 161 CURVE SMOOTH",
"1383 189 OFFCURVE",
"1396 219 OFFCURVE",
"1408 251 CURVE",
"1741 251 LINE",
"1741 364 LINE",
"1444 364 LINE",
"1469 455 OFFCURVE",
"1485 555 OFFCURVE",
"1491 660 CURVE",
"1895 660 LINE",
"1895 773 LINE",
"1495 773 LINE",
"1494 876 OFFCURVE",
"1485 976 OFFCURVE",
"1467 1070 CURVE",
"1741 1070 LINE"
);
},
{
closed = 1;
nodes = (
"676 773 LINE",
"676 876 OFFCURVE",
"686 977 OFFCURVE",
"705 1070 CURVE",
"1342 1070 LINE",
"1361 977 OFFCURVE",
"1371 876 OFFCURVE",
"1372 773 CURVE"
);
},
{
closed = 1;
nodes = (
"731 364 LINE",
"704 454 OFFCURVE",
"686 554 OFFCURVE",
"679 660 CURVE",
"1368 660 LINE",
"1361 554 OFFCURVE",
"1344 454 OFFCURVE",
"1317 364 CURVE"
);
},
{
closed = 1;
nodes = (
"1064 1526 OFFCURVE",
"1105 1509 OFFCURVE",
"1144 1476 CURVE SMOOTH",
"1186 1441 OFFCURVE",
"1225 1386 OFFCURVE",
"1259 1320 CURVE SMOOTH",
"1280 1278 OFFCURVE",
"1297 1232 OFFCURVE",
"1313 1183 CURVE",
"735 1183 LINE",
"750 1232 OFFCURVE",
"768 1278 OFFCURVE",
"789 1320 CURVE SMOOTH",
"823 1386 OFFCURVE",
"862 1441 OFFCURVE",
"904 1476 CURVE SMOOTH",
"943 1509 OFFCURVE",
"984 1526 OFFCURVE",
"1024 1526 CURVE SMOOTH"
);
},
{
closed = 1;
nodes = (
"783 226 OFFCURVE",
"777 238 OFFCURVE",
"772 251 CURVE",
"1276 251 LINE",
"1270 238 OFFCURVE",
"1265 226 OFFCURVE",
"1259 215 CURVE SMOOTH",
"1225 149 OFFCURVE",
"1186 95 OFFCURVE",
"1144 59 CURVE SMOOTH",
"1105 26 OFFCURVE",
"1064 9 OFFCURVE",
"1024 9 CURVE SMOOTH",
"984 9 OFFCURVE",
"943 26 OFFCURVE",
"904 59 CURVE SMOOTH",
"862 95 OFFCURVE",
"823 149 OFFCURVE",
"789 215 CURVE SMOOTH"
);
},
{
closed = 1;
nodes = (
"1690 1735 OFFCURVE",
"1632 1792 OFFCURVE",
"1562 1792 CURVE SMOOTH",
"1491 1792 OFFCURVE",
"1434 1735 OFFCURVE",
"1434 1664 CURVE SMOOTH",
"1434 1593 OFFCURVE",
"1491 1536 OFFCURVE",
"1562 1536 CURVE SMOOTH",
"1632 1536 OFFCURVE",
"1690 1593 OFFCURVE",
"1690 1664 CURVE SMOOTH"
);
},
{
closed = 1;
nodes = (
"614 1735 OFFCURVE",
"557 1792 OFFCURVE",
"486 1792 CURVE SMOOTH",
"416 1792 OFFCURVE",
"358 1735 OFFCURVE",
"358 1664 CURVE SMOOTH",
"358 1593 OFFCURVE",
"416 1536 OFFCURVE",
"486 1536 CURVE SMOOTH",
"557 1536 OFFCURVE",
"614 1593 OFFCURVE",
"614 1664 CURVE SMOOTH"
);
}
);
width = 2048;
}
);
note = uniE601;
unicode = E601;
},
{
glyphname = uniE602;
lastChange = "2018-07-14 05:02:01 +0000";
layers = (
{
hints = (
{
horizontal = 1;
place = "{-180, 21}";
target = up;
type = BottomGhost;
},
{
horizontal = 1;
place = "{-179, 21}";
target = up;
type = BottomGhost;
},
{
horizontal = 1;
place = "{1819, -20}";
target = down;
type = TopGhost;
},
{
horizontal = 1;
place = "{1820, -20}";
target = down;
type = TopGhost;
}
);
layerId = "44EE3EC1-6A7A-489F-A767-F91A9060DD57";
paths = (
{
closed = 1;
nodes = (
"1024 678 LINE",
"1696 -42 LINE",
"1786 42 LINE",
"1108 768 LINE",
"1786 1494 LINE",
"1696 1578 LINE",
"1024 858 LINE",
"352 1578 LINE",
"262 1494 LINE",
"940 768 LINE",
"262 42 LINE",
"352 -42 LINE"
);
}
);
width = 2048;
}
);
note = uniE602;
unicode = E602;
},
{
glyphname = uniE603;
lastChange = "2018-07-14 05:02:01 +0000";
layers = (
{
hints = (
{
horizontal = 1;
place = "{-166, 21}";
target = up;
type = BottomGhost;
},
{
horizontal = 1;
place = "{796, 82}";
type = Stem;
},
{
horizontal = 1;
place = "{1805, -20}";
target = down;
type = TopGhost;
},
{
place = "{614, 82}";
type = Stem;
},
{
place = "{1114, 81}";
type = Stem;
}
);
layerId = "44EE3EC1-6A7A-489F-A767-F91A9060DD57";
paths = (
{
closed = 1;
nodes = (
"1930 794 LINE",
"1528 1195 LINE",
"1441 1109 LINE",
"1695 855 LINE",
"1339 855 LINE",
"1332 955 OFFCURVE",
"1310 1053 OFFCURVE",
"1272 1146 CURVE SMOOTH",
"1228 1254 OFFCURVE",
"1165 1350 OFFCURVE",
"1084 1434 CURVE SMOOTH",
"1003 1517 OFFCURVE",
"909 1582 OFFCURVE",
"804 1628 CURVE SMOOTH",
"696 1676 OFFCURVE",
"580 1700 OFFCURVE",
"461 1700 CURVE SMOOTH",
"399 1700 LINE",
"399 855 LINE",
"102 855 LINE",
"102 732 LINE",
"399 732 LINE",
"399 -113 LINE",
"461 -113 LINE SMOOTH",
"580 -113 OFFCURVE",
"696 -89 OFFCURVE",
"804 -41 CURVE SMOOTH",
"909 5 OFFCURVE",
"1003 70 OFFCURVE",
"1084 153 CURVE SMOOTH",
"1165 237 OFFCURVE",
"1228 334 OFFCURVE",
"1272 442 CURVE SMOOTH",
"1310 534 OFFCURVE",
"1332 632 OFFCURVE",
"1339 732 CURVE",
"1694 732 LINE",
"1441 479 LINE",
"1528 392 LINE"
);
},
{
closed = 1;
nodes = (
"522 1575 LINE",
"701 1560 OFFCURVE",
"868 1481 OFFCURVE",
"996 1348 CURVE SMOOTH",
"1066 1276 OFFCURVE",
"1120 1192 OFFCURVE",
"1159 1099 CURVE SMOOTH",
"1190 1020 OFFCURVE",
"1210 939 OFFCURVE",
"1216 855 CURVE",
"522 855 LINE"
);
},
{
closed = 1;
nodes = (
"868 106 OFFCURVE",
"701 27 OFFCURVE",
"522 13 CURVE",
"522 732 LINE",
"1216 732 LINE",
"1210 648 OFFCURVE",
"1190 566 OFFCURVE",
"1159 488 CURVE SMOOTH",
"1120 395 OFFCURVE",
"1066 311 OFFCURVE",
"996 239 CURVE SMOOTH"
);
}
);
width = 2048;
}
);
note = uniE603;
unicode = E603;
},
{
glyphname = uniE604;
lastChange = "2018-07-14 05:02:01 +0000";
layers = (
{
hints = (
{
horizontal = 1;
place = "{457, 87}";
type = Stem;
},
{
horizontal = 1;
place = "{1099, 82}";
type = Stem;
},
{
place = "{165, 81}";
type = Stem;
},
{
place = "{1800, 83}";
type = Stem;
}
);
layerId = "44EE3EC1-6A7A-489F-A767-F91A9060DD57";
paths = (
{
closed = 1;
nodes = (
"1604 92 OFFCURVE",
"1669 113 OFFCURVE",
"1730 154 CURVE SMOOTH",
"1786 191 OFFCURVE",
"1836 244 OFFCURVE",
"1878 311 CURVE SMOOTH",
"1961 443 OFFCURVE",
"2007 617 OFFCURVE",
"2007 802 CURVE SMOOTH",
"2007 987 OFFCURVE",
"1961 1161 OFFCURVE",
"1878 1294 CURVE SMOOTH",
"1836 1360 OFFCURVE",
"1786 1413 OFFCURVE",
"1730 1451 CURVE SMOOTH",
"1669 1492 OFFCURVE",
"1604 1512 OFFCURVE",
"1536 1512 CURVE SMOOTH",
"1457 1512 OFFCURVE",
"1384 1490 OFFCURVE",
"1319 1446 CURVE SMOOTH",
"1263 1408 OFFCURVE",
"1213 1354 OFFCURVE",
"1166 1281 CURVE SMOOTH",
"1111 1195 OFFCURVE",
"1065 1091 OFFCURVE",
"1024 982 CURVE",
"983 1091 OFFCURVE",
"937 1195 OFFCURVE",
"882 1281 CURVE SMOOTH",
"835 1354 OFFCURVE",
"785 1408 OFFCURVE",
"729 1446 CURVE SMOOTH",
"664 1490 OFFCURVE",
"591 1512 OFFCURVE",
"512 1512 CURVE SMOOTH",
"444 1512 OFFCURVE",
"379 1492 OFFCURVE",
"318 1451 CURVE SMOOTH",
"262 1413 OFFCURVE",
"212 1360 OFFCURVE",
"170 1294 CURVE SMOOTH",
"87 1161 OFFCURVE",
"41 987 OFFCURVE",
"41 802 CURVE SMOOTH",
"41 617 OFFCURVE",
"87 443 OFFCURVE",
"170 311 CURVE SMOOTH",
"212 244 OFFCURVE",
"262 191 OFFCURVE",
"318 154 CURVE SMOOTH",
"379 113 OFFCURVE",
"444 92 OFFCURVE",
"512 92 CURVE SMOOTH",
"591 92 OFFCURVE",
"664 114 OFFCURVE",
"729 159 CURVE SMOOTH",
"785 197 OFFCURVE",
"835 250 OFFCURVE",
"882 323 CURVE SMOOTH",
"937 409 OFFCURVE",
"983 514 OFFCURVE",
"1024 622 CURVE",
"1065 514 OFFCURVE",
"1111 409 OFFCURVE",
"1166 323 CURVE SMOOTH",
"1213 250 OFFCURVE",
"1263 197 OFFCURVE",
"1319 159 CURVE SMOOTH",
"1384 114 OFFCURVE",
"1457 92 OFFCURVE",
"1536 92 CURVE SMOOTH"
);
},
{
closed = 1;
nodes = (
"1143 952 OFFCURVE",
"1198 1104 OFFCURVE",
"1269 1215 CURVE SMOOTH",
"1346 1334 OFFCURVE",
"1431 1389 OFFCURVE",
"1536 1389 CURVE SMOOTH",
"1624 1389 OFFCURVE",
"1708 1332 OFFCURVE",
"1774 1228 CURVE SMOOTH",
"1845 1115 OFFCURVE",
"1884 964 OFFCURVE",
"1884 802 CURVE SMOOTH",
"1884 640 OFFCURVE",
"1845 489 OFFCURVE",
"1774 376 CURVE SMOOTH",
"1708 272 OFFCURVE",
"1624 215 OFFCURVE",
"1536 215 CURVE SMOOTH",
"1431 215 OFFCURVE",
"1346 271 OFFCURVE",
"1269 390 CURVE SMOOTH",
"1198 500 OFFCURVE",
"1143 652 OFFCURVE",
"1089 802 CURVE"
);
},
{
closed = 1;
nodes = (
"617 1389 OFFCURVE",
"702 1334 OFFCURVE",
"779 1215 CURVE SMOOTH",
"850 1104 OFFCURVE",
"905 952 OFFCURVE",
"959 802 CURVE",
"905 652 OFFCURVE",
"850 500 OFFCURVE",
"779 390 CURVE SMOOTH",
"702 271 OFFCURVE",
"617 215 OFFCURVE",
"512 215 CURVE SMOOTH",
"424 215 OFFCURVE",
"340 272 OFFCURVE",
"274 376 CURVE SMOOTH",
"203 489 OFFCURVE",
"164 640 OFFCURVE",
"164 802 CURVE SMOOTH",
"164 964 OFFCURVE",
"203 1115 OFFCURVE",
"274 1228 CURVE SMOOTH",
"340 1332 OFFCURVE",
"424 1389 OFFCURVE",
"512 1389 CURVE SMOOTH"
);
}
);
width = 2048;
}
);
note = uniE604;
unicode = E604;
},
{
glyphname = uniE605;
lastChange = "2018-07-14 05:02:01 +0000";
layers = (
{
hints = (
{
horizontal = 1;
place = "{299, 126}";
type = Stem;
},
{
horizontal = 1;
place = "{613, 82}";
type = Stem;
},
{
horizontal = 1;
place = "{1340, -20}";
target = down;
type = TopGhost;
}
);
layerId = "44EE3EC1-6A7A-489F-A767-F91A9060DD57";
paths = (
{
closed = 1;
nodes = (
"1152 147 OFFCURVE",
"1095 205 OFFCURVE",
"1024 205 CURVE SMOOTH",
"953 205 OFFCURVE",
"896 147 OFFCURVE",
"896 77 CURVE SMOOTH",
"896 6 OFFCURVE",
"953 -51 OFFCURVE",
"1024 -51 CURVE SMOOTH",
"1095 -51 OFFCURVE",
"1152 6 OFFCURVE",
"1152 77 CURVE SMOOTH"
);
},
{
closed = 1;
nodes = (
"1853 348 LINE",
"1853 1587 LINE",
"1731 1587 LINE",
"1731 471 LINE",
"317 471 LINE",
"317 1587 LINE",
"195 1587 LINE",
"195 348 LINE"
);
}
);
width = 2048;
}
);
note = uniE605;
unicode = E605;
},
{
glyphname = uniE606;
lastChange = "2018-07-14 05:02:01 +0000";
layers = (
{
hints = (
{
horizontal = 1;
place = "{197, 21}";
target = up;
type = BottomGhost;
}
);
layerId = "44EE3EC1-6A7A-489F-A767-F91A9060DD57";
paths = (
{
closed = 1;
nodes = (
"1024 847 LINE",
"1878 1434 LINE",
"1808 1535 LINE",
"1024 996 LINE",
"240 1535 LINE",
"170 1434 LINE"
);
},
{
closed = 1;
nodes = (
"1808 1 LINE",
"1878 102 LINE",
"1024 689 LINE",
"170 102 LINE",
"240 1 LINE",
"1024 540 LINE"
);
}
);
width = 2048;
}
);
note = uniE606;
unicode = E606;
},
{
glyphname = uniE607;
lastChange = "2018-07-14 05:02:01 +0000";
layers = (
{
hints = (
{
horizontal = 1;
place = "{-174, 21}";
target = up;
type = BottomGhost;
},
{
place = "{980, 82}";
type = Stem;
}
);
layerId = "44EE3EC1-6A7A-489F-A767-F91A9060DD57";
paths = (
{
closed = 1;
nodes = (
"1085 441 LINE",
"1791 1450 LINE",
"1690 1520 LINE",
"1024 568 LINE",
"358 1520 LINE",
"257 1450 LINE",
"963 441 LINE",
"963 -51 LINE",
"1085 -51 LINE"
);
}
);
width = 2048;
}
);
note = uniE607;
unicode = E607;
},
{
glyphname = uniE608;
lastChange = "2018-07-14 05:02:01 +0000";
layers = (
{
hints = (
{
horizontal = 1;
place = "{273, 82}";
type = Stem;
},
{
horizontal = 1;
place = "{1366, -20}";
target = down;
type = TopGhost;
},
{
horizontal = 1;
place = "{1367, -20}";
target = down;
type = TopGhost;
}
);
layerId = "44EE3EC1-6A7A-489F-A767-F91A9060DD57";
paths = (
{
closed = 1;
nodes = (
"1894 61 LINE",
"1630 61 LINE",
"1024 1714 LINE",
"418 61 LINE",
"154 61 LINE",
"154 -61 LINE",
"504 -61 LINE",
"1024 1358 LINE",
"1544 -61 LINE",
"1894 -61 LINE"
);
}
);
width = 2048;
}
);
note = uniE608;
unicode = E608;
},
{
glyphname = uniE609;
lastChange = "2018-07-14 05:02:01 +0000";
layers = (
{
hints = (
{
horizontal = 1;
place = "{25, 21}";
target = up;
type = BottomGhost;
},
{
horizontal = 1;
place = "{1612, -20}";
target = down;
type = TopGhost;
}
);
layerId = "44EE3EC1-6A7A-489F-A767-F91A9060DD57";
paths = (
{
closed = 1;
nodes = (
"248 -43 LINE",
"1111 821 LINE",
"248 1682 LINE",
"161 1595 LINE",
"937 821 LINE",
"161 43 LINE"
);
},
{
closed = 1;
nodes = (
"1016 -43 LINE",
"1879 821 LINE",
"1016 1682 LINE",
"929 1595 LINE",
"1705 821 LINE",
"929 43 LINE"
);
}
);
width = 2048;
}
);
note = uniE609;
unicode = E609;
},
{
glyphname = uniE60A;
lastChange = "2018-07-14 05:02:01 +0000";
layers = (
{
hints = (
{
horizontal = 1;
place = "{785, 82}";
type = Stem;
},
{
place = "{971, 82}";
type = Stem;
}
);
layerId = "44EE3EC1-6A7A-489F-A767-F91A9060DD57";
paths = (
{
closed = 1;
nodes = (
"1087 759 LINE",
"1843 759 LINE",
"1843 882 LINE",
"1087 882 LINE",
"1087 1587 LINE",
"964 1587 LINE",
"964 882 LINE",
"205 882 LINE",
"205 759 LINE",
"964 759 LINE",
"964 51 LINE",
"1087 51 LINE"
);
}
);
width = 2048;
}
);
note = uniE60A;
unicode = E60A;
},
{
glyphname = uniE60B;
lastChange = "2018-07-14 05:02:01 +0000";
layers = (
{
hints = (
{
horizontal = 1;
place = "{1213, 81}";
type = Stem;
},
{
place = "{967, 80}";
type = Stem;
}
);
layerId = "44EE3EC1-6A7A-489F-A767-F91A9060DD57";
paths = (
{
closed = 1;
nodes = (
"670 -113 OFFCURVE",
"811 -34 OFFCURVE",
"906 136 CURVE SMOOTH",
"965 241 OFFCURVE",
"1002 374 OFFCURVE",
"1038 534 CURVE",
"1474 428 OFFCURVE",
"1690 158 OFFCURVE",
"1796 -77 CURVE",
"1908 -26 LINE",
"1863 74 OFFCURVE",
"1806 166 OFFCURVE",
"1738 247 CURVE SMOOTH",
"1663 338 OFFCURVE",
"1575 417 OFFCURVE",
"1476 481 CURVE SMOOTH",
"1355 560 OFFCURVE",
"1217 617 OFFCURVE",
"1064 655 CURVE",
"1069 683 OFFCURVE",
"1075 712 OFFCURVE",
"1082 743 CURVE",
"1084 756 LINE",
"1087 771 OFFCURVE",
"1090 785 OFFCURVE",
"1093 800 CURVE SMOOTH",
"1097 821 OFFCURVE",
"1101 841 OFFCURVE",
"1106 861 CURVE",
"1209 842 OFFCURVE",
"1319 833 OFFCURVE",
"1434 833 CURVE SMOOTH",
"1597 833 OFFCURVE",
"1733 879 OFFCURVE",
"1826 967 CURVE SMOOTH",
"1909 1045 OFFCURVE",
"1955 1151 OFFCURVE",
"1955 1266 CURVE SMOOTH",
"1955 1365 OFFCURVE",
"1921 1458 OFFCURVE",
"1859 1529 CURVE SMOOTH",
"1791 1606 OFFCURVE",
"1695 1649 OFFCURVE",
"1587 1649 CURVE SMOOTH",
"1378 1649 OFFCURVE",
"1237 1573 OFFCURVE",
"1144 1409 CURVE SMOOTH",
"1084 1304 OFFCURVE",
"1046 1171 OFFCURVE",
"1011 1009 CURVE",
"876 1046 OFFCURVE",
"752 1101 OFFCURVE",
"642 1176 CURVE SMOOTH",
"438 1315 OFFCURVE",
"321 1492 OFFCURVE",
"260 1615 CURVE",
"150 1560 LINE",
"218 1424 OFFCURVE",
"347 1229 OFFCURVE",
"573 1075 CURVE SMOOTH",
"697 991 OFFCURVE",
"835 929 OFFCURVE",
"986 888 CURVE",
"981 867 OFFCURVE",
"977 846 OFFCURVE",
"973 824 CURVE SMOOTH",
"970 810 OFFCURVE",
"967 795 OFFCURVE",
"964 780 CURVE SMOOTH",
"961 767 LINE SMOOTH",
"955 737 OFFCURVE",
"949 707 OFFCURVE",
"943 679 CURVE",
"842 695 OFFCURVE",
"736 703 OFFCURVE",
"623 703 CURVE SMOOTH",
"458 703 OFFCURVE",
"320 656 OFFCURVE",
"224 566 CURVE SMOOTH",
"180 525 OFFCURVE",
"147 477 OFFCURVE",
"124 423 CURVE SMOOTH",
"103 372 OFFCURVE",
"92 318 OFFCURVE",
"92 263 CURVE SMOOTH",
"92 165 OFFCURVE",
"126 73 OFFCURVE",
"188 4 CURVE SMOOTH",
"221 -33 OFFCURVE",
"260 -61 OFFCURVE",
"305 -81 CURVE SMOOTH",
"353 -102 OFFCURVE",
"405 -113 OFFCURVE",
"461 -113 CURVE SMOOTH"
);
},
{
closed = 1;
nodes = (
"730 581 OFFCURVE",
"828 573 OFFCURVE",
"918 558 CURVE",
"884 409 OFFCURVE",
"850 287 OFFCURVE",
"799 196 CURVE SMOOTH",
"726 66 OFFCURVE",
"625 10 OFFCURVE",
"461 10 CURVE SMOOTH",
"387 10 OFFCURVE",
"324 36 OFFCURVE",
"279 86 CURVE SMOOTH",
"238 133 OFFCURVE",
"215 195 OFFCURVE",
"215 263 CURVE SMOOTH",
"215 344 OFFCURVE",
"248 420 OFFCURVE",
"308 476 CURVE SMOOTH",
"381 545 OFFCURVE",
"490 581 OFFCURVE",
"623 581 CURVE SMOOTH"
);
},
{
closed = 1;
nodes = (
"1164 1133 OFFCURVE",
"1198 1257 OFFCURVE",
"1250 1348 CURVE SMOOTH",
"1322 1473 OFFCURVE",
"1422 1526 OFFCURVE",
"1587 1526 CURVE SMOOTH",
"1660 1526 OFFCURVE",
"1722 1499 OFFCURVE",
"1766 1448 CURVE SMOOTH",
"1808 1400 OFFCURVE",
"1832 1334 OFFCURVE",
"1832 1266 CURVE SMOOTH",
"1832 1185 OFFCURVE",
"1800 1111 OFFCURVE",
"1742 1057 CURVE SMOOTH",
"1672 990 OFFCURVE",
"1565 955 OFFCURVE",
"1434 955 CURVE SMOOTH",
"1328 955 OFFCURVE",
"1226 964 OFFCURVE",
"1131 982 CURVE"
);
}
);
width = 2048;
}
);
note = uniE60B;
unicode = E60B;
},
{
glyphname = uniE60C;
lastChange = "2018-07-14 05:02:01 +0000";
layers = (
{
hints = (
{
horizontal = 1;
place = "{55, 81}";
type = Stem;
},
{
horizontal = 1;
place = "{1502, 80}";
type = Stem;
},
{
place = "{324, 84}";
type = Stem;
},
{
place = "{1639, 84}";
type = Stem;
}
);
layerId = "44EE3EC1-6A7A-489F-A767-F91A9060DD57";
paths = (
{
closed = 1;
nodes = (
"1146 -113 OFFCURVE",
"1265 -89 OFFCURVE",
"1377 -41 CURVE SMOOTH",
"1485 4 OFFCURVE",
"1582 70 OFFCURVE",
"1665 153 CURVE SMOOTH",
"1748 236 OFFCURVE",
"1813 333 OFFCURVE",
"1859 441 CURVE SMOOTH",
"1906 553 OFFCURVE",
"1930 671 OFFCURVE",
"1930 794 CURVE SMOOTH",
"1930 916 OFFCURVE",
"1906 1035 OFFCURVE",
"1859 1146 CURVE SMOOTH",
"1813 1254 OFFCURVE",
"1748 1351 OFFCURVE",
"1665 1434 CURVE SMOOTH",
"1582 1518 OFFCURVE",
"1485 1583 OFFCURVE",
"1377 1629 CURVE SMOOTH",
"1265 1676 OFFCURVE",
"1146 1700 OFFCURVE",
"1024 1700 CURVE SMOOTH",
"902 1700 OFFCURVE",
"783 1676 OFFCURVE",
"671 1629 CURVE SMOOTH",
"563 1583 OFFCURVE",
"466 1518 OFFCURVE",
"383 1434 CURVE SMOOTH",
"300 1351 OFFCURVE",
"235 1254 OFFCURVE",
"189 1146 CURVE SMOOTH",
"142 1035 OFFCURVE",
"118 916 OFFCURVE",
"118 794 CURVE SMOOTH",
"118 671 OFFCURVE",
"142 553 OFFCURVE",
"189 441 CURVE SMOOTH",
"235 333 OFFCURVE",
"300 236 OFFCURVE",
"383 153 CURVE SMOOTH",
"466 70 OFFCURVE",
"563 4 OFFCURVE",
"671 -41 CURVE SMOOTH",
"783 -89 OFFCURVE",
"902 -113 OFFCURVE",
"1024 -113 CURVE SMOOTH"
);
},
{
closed = 1;
nodes = (
"1233 1577 OFFCURVE",
"1430 1495 OFFCURVE",
"1578 1348 CURVE SMOOTH",
"1726 1200 OFFCURVE",
"1807 1003 OFFCURVE",
"1807 794 CURVE SMOOTH",
"1807 584 OFFCURVE",
"1726 388 OFFCURVE",
"1578 240 CURVE SMOOTH",
"1430 92 OFFCURVE",
"1233 10 OFFCURVE",
"1024 10 CURVE SMOOTH",
"815 10 OFFCURVE",
"618 92 OFFCURVE",
"470 240 CURVE SMOOTH",
"322 388 OFFCURVE",
"241 584 OFFCURVE",
"241 794 CURVE SMOOTH",
"241 1003 OFFCURVE",
"322 1200 OFFCURVE",
"470 1348 CURVE SMOOTH",
"618 1495 OFFCURVE",
"815 1577 OFFCURVE",
"1024 1577 CURVE SMOOTH"
);
}
);
width = 2048;
}
);
note = uniE60C;
unicode = E60C;
},
{
glyphname = uniE60D;
lastChange = "2018-07-14 05:02:01 +0000";
layers = (
{
hints = (
{
horizontal = 1;
place = "{555, 21}";
target = up;
type = BottomGhost;
}
);
layerId = "44EE3EC1-6A7A-489F-A767-F91A9060DD57";
paths = (
{
closed = 1;
nodes = (
"1955 401 OFFCURVE",
"1931 543 OFFCURVE",
"1884 675 CURVE SMOOTH",
"1837 804 OFFCURVE",
"1771 920 OFFCURVE",
"1686 1020 CURVE SMOOTH",
"1601 1120 OFFCURVE",
"1501 1199 OFFCURVE",
"1390 1255 CURVE SMOOTH",
"1274 1312 OFFCURVE",
"1151 1341 OFFCURVE",
"1024 1341 CURVE SMOOTH",
"897 1341 OFFCURVE",
"774 1312 OFFCURVE",
"658 1255 CURVE SMOOTH",
"547 1199 OFFCURVE",
"447 1120 OFFCURVE",
"362 1020 CURVE SMOOTH",
"277 920 OFFCURVE",
"211 804 OFFCURVE",
"164 675 CURVE SMOOTH",
"117 543 OFFCURVE",
"93 401 OFFCURVE",
"93 256 CURVE",
"215 256 LINE",
"215 787 OFFCURVE",
"578 1219 OFFCURVE",
"1024 1219 CURVE SMOOTH",
"1470 1219 OFFCURVE",
"1833 787 OFFCURVE",
"1833 256 CURVE",
"1955 256 LINE"
);
}
);
width = 2048;
}
);
note = uniE60D;
unicode = E60D;
},
{
glyphname = uniE60E;
lastChange = "2018-07-14 05:02:01 +0000";
layers = (
{
hints = (
{
horizontal = 1;
place = "{84, 21}";
target = up;
type = BottomGhost;
},
{
horizontal = 1;
place = "{773, 82}";
type = Stem;
},
{
horizontal = 1;
place = "{1471, 82}";
type = Stem;
},
{
horizontal = 1;
place = "{1554, -20}";
target = down;
type = TopGhost;
},
{
place = "{315, 82}";
type = Stem;
},
{
place = "{978, 82}";
type = Stem;
},
{
place = "{1649, 81}";
type = Stem;
}
);
layerId = "44EE3EC1-6A7A-489F-A767-F91A9060DD57";
paths = (
{
closed = 1;
nodes = (
"1085 348 LINE",
"1833 348 LINE",
"1833 1546 LINE",
"213 1546 LINE",
"213 348 LINE",
"963 348 LINE",
"963 -51 LINE",
"1085 -51 LINE"
);
},
{
closed = 1;
nodes = (
"335 1423 LINE",
"963 1423 LINE",
"963 471 LINE",
"335 471 LINE"
);
},
{
closed = 1;
nodes = (
"1085 471 LINE",
"1085 1423 LINE",
"1710 1423 LINE",
"1710 471 LINE"
);
}
);
width = 2048;
}
);
note = uniE60E;
unicode = E60E;
},
{
glyphname = uniE60F;
lastChange = "2018-07-14 05:02:01 +0000";
layers = (
{
hints = (
{
horizontal = 1;
place = "{456, 82}";
type = Stem;
},
{
horizontal = 1;
place = "{804, 126}";
type = Stem;
},
{
horizontal = 1;
place = "{1183, -20}";
target = down;
type = TopGhost;
}
);
layerId = "44EE3EC1-6A7A-489F-A767-F91A9060DD57";
paths = (
{
closed = 1;
nodes = (
"1152 915 OFFCURVE",
"1095 973 OFFCURVE",
"1024 973 CURVE SMOOTH",
"953 973 OFFCURVE",
"896 915 OFFCURVE",
"896 845 CURVE SMOOTH",
"896 774 OFFCURVE",
"953 717 OFFCURVE",
"1024 717 CURVE SMOOTH",
"1095 717 OFFCURVE",
"1152 774 OFFCURVE",
"1152 845 CURVE SMOOTH"
);
},
{
closed = 1;
nodes = (
"1802 -61 LINE",
"1802 1587 LINE",
"1679 1587 LINE",
"1679 61 LINE",
"369 61 LINE",
"369 1587 LINE",
"246 1587 LINE",
"246 -61 LINE"
);
}
);
width = 2048;
}
);
note = uniE60F;
unicode = E60F;
},
{
glyphname = uniE610;
lastChange = "2018-07-14 05:02:01 +0000";
layers = (
{
hints = (
{
place = "{559, 78}";
type = Stem;
},
{
place = "{965, 83}";
type = Stem;
}
);
layerId = "44EE3EC1-6A7A-489F-A767-F91A9060DD57";
paths = (
{
closed = 1;
nodes = (
"431 -102 LINE",
"528 -37 OFFCURVE",
"624 40 OFFCURVE",
"719 130 CURVE",
"806 108 OFFCURVE",
"889 94 OFFCURVE",
"956 83 CURVE SMOOTH",
"966 81 LINE",
"1041 69 OFFCURVE",
"1193 50 OFFCURVE",
"1354 63 CURVE SMOOTH",
"1518 77 OFFCURVE",
"1645 121 OFFCURVE",
"1731 194 CURVE SMOOTH",
"1815 266 OFFCURVE",
"1858 362 OFFCURVE",
"1858 480 CURVE SMOOTH",
"1858 584 OFFCURVE",
"1829 678 OFFCURVE",
"1771 761 CURVE SMOOTH",
"1768 765 OFFCURVE",
"1765 769 OFFCURVE",
"1763 772 CURVE",
"1780 787 OFFCURVE",
"1795 803 OFFCURVE",
"1808 821 CURVE SMOOTH",
"1872 907 OFFCURVE",
"1863 990 OFFCURVE",
"1858 1018 CURVE",
"1855 1113 OFFCURVE",
"1800 1241 OFFCURVE",
"1558 1328 CURVE SMOOTH",
"1521 1341 OFFCURVE",
"1481 1353 OFFCURVE",
"1439 1363 CURVE",
"1441 1415 OFFCURVE",
"1436 1461 OFFCURVE",
"1424 1502 CURVE SMOOTH",
"1404 1565 OFFCURVE",
"1369 1615 OFFCURVE",
"1317 1649 CURVE SMOOTH",
"1266 1683 OFFCURVE",
"1200 1700 OFFCURVE",
"1121 1700 CURVE SMOOTH",
"998 1700 OFFCURVE",
"890 1655 OFFCURVE",
"779 1558 CURVE SMOOTH",
"722 1507 OFFCURVE",
"663 1441 OFFCURVE",
"601 1360 CURVE",
"505 1331 OFFCURVE",
"407 1289 OFFCURVE",
"271 1231 CURVE SMOOTH",
"257 1225 OFFCURVE",
"242 1219 OFFCURVE",
"228 1212 CURVE",
"276 1099 LINE",
"291 1106 OFFCURVE",
"306 1112 OFFCURVE",
"320 1118 CURVE SMOOTH",
"382 1145 OFFCURVE",
"435 1168 OFFCURVE",
"484 1187 CURVE",
"438 1115 OFFCURVE",
"391 1033 OFFCURVE",
"342 944 CURVE SMOOTH",
"285 837 OFFCURVE",
"251 739 OFFCURVE",
"241 650 CURVE SMOOTH",
"232 565 OFFCURVE",
"244 488 OFFCURVE",
"277 420 CURVE SMOOTH",
"306 360 OFFCURVE",
"352 308 OFFCURVE",
"413 263 CURVE SMOOTH",
"460 229 OFFCURVE",
"518 198 OFFCURVE",
"584 173 CURVE",
"511 107 OFFCURVE",
"437 49 OFFCURVE",
"362 0 CURVE"
);
},
{
closed = 1;
nodes = (
"830 241 OFFCURVE",
"838 249 OFFCURVE",
"846 258 CURVE SMOOTH",
"947 367 OFFCURVE",
"1043 488 OFFCURVE",
"1127 612 CURVE",
"1358 614 OFFCURVE",
"1536 645 OFFCURVE",
"1659 705 CURVE",
"1663 700 OFFCURVE",
"1667 696 OFFCURVE",
"1670 691 CURVE",
"1713 629 OFFCURVE",
"1735 558 OFFCURVE",
"1735 480 CURVE SMOOTH",
"1735 398 OFFCURVE",
"1708 335 OFFCURVE",
"1652 288 CURVE SMOOTH",
"1586 233 OFFCURVE",
"1480 197 OFFCURVE",
"1343 186 CURVE SMOOTH",
"1196 173 OFFCURVE",
"1056 191 OFFCURVE",
"986 203 CURVE",
"976 204 LINE",
"931 212 OFFCURVE",
"878 221 OFFCURVE",
"822 232 CURVE"
);
},
{
closed = 1;
nodes = (
"773 1278 OFFCURVE",
"872 1287 OFFCURVE",
"1024 1287 CURVE SMOOTH",
"1120 1287 OFFCURVE",
"1215 1280 OFFCURVE",
"1303 1265 CURVE",
"1289 1202 OFFCURVE",
"1266 1132 OFFCURVE",
"1234 1056 CURVE",
"1173 1067 OFFCURVE",
"1110 1072 OFFCURVE",
"1049 1072 CURVE SMOOTH",
"965 1072 OFFCURVE",
"884 1047 OFFCURVE",
"822 1001 CURVE SMOOTH",
"758 954 OFFCURVE",
"721 890 OFFCURVE",
"721 826 CURVE SMOOTH",
"721 761 OFFCURVE",
"758 704 OFFCURVE",
"825 666 CURVE SMOOTH",
"867 643 OFFCURVE",
"919 627 OFFCURVE",
"982 618 CURVE",
"913 522 OFFCURVE",
"836 428 OFFCURVE",
"756 342 CURVE SMOOTH",
"732 316 OFFCURVE",
"709 292 OFFCURVE",
"685 268 CURVE",
"669 273 OFFCURVE",
"653 278 OFFCURVE",
"638 284 CURVE SMOOTH",
"511 331 OFFCURVE",
"426 395 OFFCURVE",
"388 474 CURVE SMOOTH",
"338 576 OFFCURVE",
"359 715 OFFCURVE",
"451 885 CURVE SMOOTH",
"530 1032 OFFCURVE",
"604 1154 OFFCURVE",
"675 1253 CURVE"
);
},
{
closed = 1;
nodes = (
"1091 949 OFFCURVE",
"1136 946 OFFCURVE",
"1180 940 CURVE",
"1151 882 OFFCURVE",
"1117 823 OFFCURVE",
"1079 763 CURVE SMOOTH",
"1073 753 OFFCURVE",
"1068 744 OFFCURVE",
"1062 735 CURVE",
"966 739 OFFCURVE",
"914 758 OFFCURVE",
"885 774 CURVE SMOOTH",
"858 789 OFFCURVE",
"844 807 OFFCURVE",
"844 826 CURVE SMOOTH",
"844 850 OFFCURVE",
"864 880 OFFCURVE",
"895 903 CURVE SMOOTH",
"936 933 OFFCURVE",
"991 949 OFFCURVE",
"1049 949 CURVE SMOOTH"
);
},
{
closed = 1;
nodes = (
"1377 895 OFFCURVE",
"1444 869 OFFCURVE",
"1502 837 CURVE SMOOTH",
"1524 824 OFFCURVE",
"1544 811 OFFCURVE",
"1563 797 CURVE",
"1555 794 OFFCURVE",
"1546 791 OFFCURVE",
"1537 788 CURVE SMOOTH",
"1451 760 OFFCURVE",
"1340 743 OFFCURVE",
"1208 737 CURVE",
"1244 797 OFFCURVE",
"1276 856 OFFCURVE",
"1305 915 CURVE"
);
},
{
closed = 1;
nodes = (
"1371 1065 OFFCURVE",
"1384 1100 OFFCURVE",
"1395 1135 CURVE SMOOTH",
"1407 1172 OFFCURVE",
"1416 1207 OFFCURVE",
"1423 1241 CURVE",
"1456 1232 OFFCURVE",
"1487 1223 OFFCURVE",
"1516 1212 CURVE SMOOTH",
"1697 1147 OFFCURVE",
"1735 1067 OFFCURVE",
"1735 1011 CURVE",
"1734 1003 LINE",
"1737 994 LINE SMOOTH",
"1739 988 OFFCURVE",
"1747 942 OFFCURVE",
"1707 891 CURVE SMOOTH",
"1699 881 OFFCURVE",
"1690 872 OFFCURVE",
"1679 862 CURVE",
"1644 892 OFFCURVE",
"1605 919 OFFCURVE",
"1562 944 CURVE SMOOTH",
"1500 978 OFFCURVE",
"1430 1007 OFFCURVE",
"1356 1028 CURVE"
);
},
{
closed = 1;
nodes = (
"933 1410 OFFCURVE",
"859 1407 OFFCURVE",
"793 1399 CURVE",
"816 1424 OFFCURVE",
"838 1446 OFFCURVE",
"861 1466 CURVE SMOOTH",
"973 1564 OFFCURVE",
"1059 1577 OFFCURVE",
"1121 1577 CURVE SMOOTH",
"1175 1577 OFFCURVE",
"1219 1567 OFFCURVE",
"1250 1546 CURVE SMOOTH",
"1277 1528 OFFCURVE",
"1295 1502 OFFCURVE",
"1306 1467 CURVE SMOOTH",
"1313 1443 OFFCURVE",
"1316 1417 OFFCURVE",
"1317 1388 CURVE",
"1224 1402 OFFCURVE",
"1124 1410 OFFCURVE",
"1024 1410 CURVE SMOOTH"
);
}
);
width = 2048;
}
);
note = uniE610;
unicode = E610;
},
{
glyphname = uniE611;
lastChange = "2018-07-14 05:02:01 +0000";
layers = (
{
hints = (
{
horizontal = 1;
place = "{-17, 224}";
type = Stem;
},
{
horizontal = 1;
place = "{-20, 21}";
target = up;
type = BottomGhost;
},
{
horizontal = 1;
place = "{126, 81}";
type = Stem;
},
{
horizontal = 1;
place = "{1574, 79}";
type = Stem;
},
{
place = "{324, 84}";
type = Stem;
},
{
place = "{1639, 84}";
type = Stem;
}
);
layerId = "44EE3EC1-6A7A-489F-A767-F91A9060DD57";
paths = (
{
closed = 1;
nodes = (
"478 186 LINE",
"542 133 OFFCURVE",
"613 89 OFFCURVE",
"691 57 CURVE SMOOTH",
"797 12 OFFCURVE",
"909 -10 OFFCURVE",
"1024 -10 CURVE SMOOTH",
"1139 -10 OFFCURVE",
"1251 12 OFFCURVE",
"1357 57 CURVE SMOOTH",
"1434 89 OFFCURVE",
"1505 133 OFFCURVE",
"1570 186 CURVE",
"1851 -95 LINE",
"1938 -8 LINE",
"1658 271 LINE",
"1722 343 OFFCURVE",
"1774 423 OFFCURVE",
"1812 512 CURVE SMOOTH",
"1857 617 OFFCURVE",
"1879 729 OFFCURVE",
"1879 845 CURVE SMOOTH",
"1879 960 OFFCURVE",
"1857 1072 OFFCURVE",
"1812 1178 CURVE SMOOTH",
"1769 1279 OFFCURVE",
"1707 1371 OFFCURVE",
"1629 1449 CURVE SMOOTH",
"1550 1528 OFFCURVE",
"1459 1589 OFFCURVE",
"1357 1633 CURVE SMOOTH",
"1251 1677 OFFCURVE",
"1139 1700 OFFCURVE",
"1024 1700 CURVE SMOOTH",
"909 1700 OFFCURVE",
"797 1677 OFFCURVE",
"691 1633 CURVE SMOOTH",
"589 1589 OFFCURVE",
"498 1528 OFFCURVE",
"419 1449 CURVE SMOOTH",
"341 1371 OFFCURVE",
"279 1279 OFFCURVE",
"236 1178 CURVE SMOOTH",
"191 1072 OFFCURVE",
"169 960 OFFCURVE",
"169 845 CURVE SMOOTH",
"169 729 OFFCURVE",
"191 617 OFFCURVE",
"236 512 CURVE SMOOTH",
"273 423 OFFCURVE",
"325 343 OFFCURVE",
"389 271 CURVE",
"110 -8 LINE",
"197 -95 LINE"
);
},
{
closed = 1;
nodes = (
"1220 1577 OFFCURVE",
"1403 1501 OFFCURVE",
"1542 1363 CURVE SMOOTH",
"1680 1224 OFFCURVE",
"1756 1040 OFFCURVE",
"1756 845 CURVE SMOOTH",
"1756 649 OFFCURVE",
"1680 465 OFFCURVE",
"1542 327 CURVE SMOOTH",
"1403 189 OFFCURVE",
"1220 113 OFFCURVE",
"1024 113 CURVE SMOOTH",
"828 113 OFFCURVE",
"645 189 OFFCURVE",
"506 327 CURVE SMOOTH",
"368 465 OFFCURVE",
"292 649 OFFCURVE",
"292 845 CURVE SMOOTH",
"292 1040 OFFCURVE",
"368 1224 OFFCURVE",
"506 1363 CURVE SMOOTH",
"645 1501 OFFCURVE",
"828 1577 OFFCURVE",
"1024 1577 CURVE SMOOTH"
);
}
);
width = 2048;
}
);
note = uniE611;
unicode = E611;
},
{
glyphname = uniE612;
lastChange = "2018-07-14 05:02:01 +0000";
layers = (
{
hints = (
{
horizontal = 1;
place = "{-119, 82}";
type = Stem;
},
{
horizontal = 1;
place = "{908, 82}";
type = Stem;
},
{
horizontal = 1;
place = "{1190, 82}";
type = Stem;
},
{
horizontal = 1;
place = "{1456, 81}";
type = Stem;
},
{
horizontal = 1;
place = "{1759, -20}";
target = down;
type = TopGhost;
},
{
place = "{502, 265}";
type = Stem;
},
{
place = "{685, 82}";
type = Stem;
},
{
place = "{972, 82}";
type = Stem;
},
{
place = "{1267, 82}";
type = Stem;
},
{
place = "{1267, 290}";
type = Stem;
}
);
layerId = "44EE3EC1-6A7A-489F-A767-F91A9060DD57";
paths = (
{
closed = 1;
nodes = (
"1741 1162 LINE",
"1476 1162 LINE",
"1463 1260 OFFCURVE",
"1418 1351 OFFCURVE",
"1347 1423 CURVE SMOOTH",
"1274 1494 OFFCURVE",
"1183 1539 OFFCURVE",
"1085 1552 CURVE",
"1085 1741 LINE",
"963 1741 LINE",
"963 1552 LINE",
"864 1539 OFFCURVE",
"773 1494 OFFCURVE",
"701 1423 CURVE SMOOTH",
"629 1351 OFFCURVE",
"585 1260 OFFCURVE",
"572 1162 CURVE",
"307 1162 LINE",
"307 1039 LINE",
"572 1039 LINE",
"585 940 OFFCURVE",
"629 849 OFFCURVE",
"701 778 CURVE SMOOTH",
"737 741 OFFCURVE",
"779 712 OFFCURVE",
"824 690 CURVE",
"129 -61 LINE",
"1911 -61 LINE",
"1219 687 LINE",
"1266 709 OFFCURVE",
"1309 740 OFFCURVE",
"1347 778 CURVE SMOOTH",
"1418 849 OFFCURVE",
"1463 940 OFFCURVE",
"1476 1039 CURVE",
"1741 1039 LINE"
);
},
{
closed = 1;
nodes = (
"1045 644 OFFCURVE",
"1067 645 OFFCURVE",
"1088 648 CURVE",
"1630 61 LINE",
"410 61 LINE",
"953 649 LINE",
"976 646 OFFCURVE",
"1000 644 OFFCURVE",
"1024 644 CURVE SMOOTH"
);
},
{
closed = 1;
nodes = (
"1208 1433 OFFCURVE",
"1357 1284 OFFCURVE",
"1357 1100 CURVE SMOOTH",
"1357 916 OFFCURVE",
"1208 767 OFFCURVE",
"1024 767 CURVE SMOOTH",
"840 767 OFFCURVE",
"691 916 OFFCURVE",
"691 1100 CURVE SMOOTH",
"691 1284 OFFCURVE",
"840 1433 OFFCURVE",
"1024 1433 CURVE SMOOTH"
);
}
);
width = 2048;
}
);
note = uniE612;
unicode = E612;
},
{
glyphname = uniE613;
lastChange = "2018-07-14 05:02:01 +0000";
layers = (
{
hints = (
{
horizontal = 1;
place = "{95, 82}";
type = Stem;
},
{
horizontal = 1;
place = "{593, 83}";
type = Stem;
},
{
horizontal = 1;
place = "{1092, 82}";
type = Stem;
},
{
horizontal = 1;
place = "{1462, 82}";
type = Stem;
},
{
place = "{510, 82}";
type = Stem;
},
{
place = "{790, 83}";
type = Stem;
},
{
place = "{1197, 80}";
type = Stem;
}
);
layerId = "44EE3EC1-6A7A-489F-A767-F91A9060DD57";
paths = (
{
closed = 1;
nodes = (
"1185 809 OFFCURVE",
"1310 858 OFFCURVE",
"1404 948 CURVE SMOOTH",
"1499 1039 OFFCURVE",
"1551 1159 OFFCURVE",
"1551 1288 CURVE SMOOTH",
"1551 1416 OFFCURVE",
"1499 1536 OFFCURVE",
"1404 1627 CURVE SMOOTH",
"1310 1717 OFFCURVE",
"1185 1766 OFFCURVE",
"1052 1766 CURVE SMOOTH",
"919 1766 OFFCURVE",
"794 1717 OFFCURVE",
"700 1627 CURVE SMOOTH",
"605 1536 OFFCURVE",
"553 1416 OFFCURVE",
"553 1288 CURVE SMOOTH",
"553 1247 OFFCURVE",
"558 1207 OFFCURVE",
"568 1169 CURVE",
"460 1109 OFFCURVE",
"369 1029 OFFCURVE",
"305 934 CURVE SMOOTH",
"233 829 OFFCURVE",
"195 708 OFFCURVE",
"195 586 CURVE SMOOTH",
"195 490 OFFCURVE",
"217 397 OFFCURVE",
"262 310 CURVE SMOOTH",
"304 227 OFFCURVE",
"365 152 OFFCURVE",
"442 88 CURVE SMOOTH",
"598 -41 OFFCURVE",
"805 -113 OFFCURVE",
"1024 -113 CURVE SMOOTH",
"1245 -113 OFFCURVE",
"1451 -46 OFFCURVE",
"1605 74 CURVE SMOOTH",
"1765 200 OFFCURVE",
"1853 373 OFFCURVE",
"1853 560 CURVE SMOOTH",
"1853 622 LINE",
"663 622 LINE",
"663 499 LINE",
"1726 499 LINE",
"1710 373 OFFCURVE",
"1641 259 OFFCURVE",
"1529 171 CURVE SMOOTH",
"1397 67 OFFCURVE",
"1218 10 OFFCURVE",
"1024 10 CURVE SMOOTH",
"634 10 OFFCURVE",
"317 268 OFFCURVE",
"317 586 CURVE SMOOTH",
"317 683 OFFCURVE",
"348 780 OFFCURVE",
"406 865 CURVE SMOOTH",
"457 940 OFFCURVE",
"529 1005 OFFCURVE",
"615 1055 CURVE",
"638 1016 OFFCURVE",
"666 980 OFFCURVE",
"700 948 CURVE SMOOTH",
"794 858 OFFCURVE",
"919 809 OFFCURVE",
"1052 809 CURVE SMOOTH"
);
},
{
closed = 1;
nodes = (
"1259 1643 OFFCURVE",
"1428 1484 OFFCURVE",
"1428 1288 CURVE SMOOTH",
"1428 1091 OFFCURVE",
"1259 932 OFFCURVE",
"1052 932 CURVE SMOOTH",
"845 932 OFFCURVE",
"676 1091 OFFCURVE",
"676 1288 CURVE SMOOTH",
"676 1484 OFFCURVE",
"845 1643 OFFCURVE",
"1052 1643 CURVE SMOOTH"
);
}
);
width = 2048;
}
);
note = uniE613;
unicode = E613;
},
{
glyphname = uniE614;
lastChange = "2018-07-14 05:02:01 +0000";
layers = (
{
hints = (
{
horizontal = 1;
place = "{308, 21}";
target = up;
type = BottomGhost;
},
{
horizontal = 1;
place = "{329, 82}";
type = Stem;
},
{
horizontal = 1;
place = "{1215, 82}";
type = Stem;
},
{
horizontal = 1;
place = "{1329, -20}";
target = down;
type = TopGhost;
},
{
place = "{1766, 82}";
type = Stem;
}
);
layerId = "44EE3EC1-6A7A-489F-A767-F91A9060DD57";
paths = (
{
closed = 1;
nodes = (
"1409 41 OFFCURVE",
"1528 65 OFFCURVE",
"1630 114 CURVE SMOOTH",
"1720 156 OFFCURVE",
"1797 218 OFFCURVE",
"1858 297 CURVE SMOOTH",
"1992 470 OFFCURVE",
"2007 669 OFFCURVE",
"2007 747 CURVE SMOOTH",
"2007 819 OFFCURVE",
"1996 896 OFFCURVE",
"1974 967 CURVE SMOOTH",
"1948 1054 OFFCURVE",
"1908 1131 OFFCURVE",
"1857 1198 CURVE SMOOTH",
"1795 1276 OFFCURVE",
"1719 1338 OFFCURVE",
"1629 1381 CURVE SMOOTH",
"1527 1429 OFFCURVE",
"1408 1453 OFFCURVE",
"1275 1453 CURVE SMOOTH",
"1106 1453 OFFCURVE",
"936 1380 OFFCURVE",
"768 1237 CURVE SMOOTH",
"655 1140 OFFCURVE",
"542 1011 OFFCURVE",
"432 852 CURVE",
"394 927 OFFCURVE",
"358 1005 OFFCURVE",
"320 1084 CURVE SMOOTH",
"268 1194 OFFCURVE",
"215 1307 OFFCURVE",
"156 1420 CURVE",
"47 1363 LINE",
"105 1252 OFFCURVE",
"158 1140 OFFCURVE",
"209 1032 CURVE SMOOTH",
"257 929 OFFCURVE",
"305 829 OFFCURVE",
"355 734 CURVE",
"162 427 OFFCURVE",
"49 137 OFFCURVE",
"44 125 CURVE",
"159 80 LINE",
"160 83 OFFCURVE",
"258 334 OFFCURVE",
"422 609 CURVE",
"478 512 OFFCURVE",
"538 424 OFFCURVE",
"606 346 CURVE SMOOTH",
"692 247 OFFCURVE",
"785 174 OFFCURVE",
"889 124 CURVE SMOOTH",
"1004 68 OFFCURVE",
"1130 41 OFFCURVE",
"1275 41 CURVE SMOOTH"
);
},
{
closed = 1;
nodes = (
"612 904 OFFCURVE",
"731 1044 OFFCURVE",
"848 1144 CURVE SMOOTH",
"993 1268 OFFCURVE",
"1137 1330 OFFCURVE",
"1275 1330 CURVE SMOOTH",
"1390 1330 OFFCURVE",
"1491 1310 OFFCURVE",
"1576 1270 CURVE SMOOTH",
"1649 1235 OFFCURVE",
"1710 1185 OFFCURVE",
"1759 1122 CURVE SMOOTH",
"1802 1068 OFFCURVE",
"1835 1004 OFFCURVE",
"1856 932 CURVE SMOOTH",
"1879 855 OFFCURVE",
"1884 789 OFFCURVE",
"1884 747 CURVE SMOOTH",
"1884 705 OFFCURVE",
"1879 638 OFFCURVE",
"1857 562 CURVE SMOOTH",
"1835 490 OFFCURVE",
"1803 426 OFFCURVE",
"1761 372 CURVE SMOOTH",
"1654 234 OFFCURVE",
"1491 164 OFFCURVE",
"1275 164 CURVE SMOOTH",
"1150 164 OFFCURVE",
"1041 187 OFFCURVE",
"942 234 CURVE SMOOTH",
"854 278 OFFCURVE",
"774 340 OFFCURVE",
"698 427 CURVE SMOOTH",
"624 512 OFFCURVE",
"558 615 OFFCURVE",
"497 728 CURVE"
);
}
);
width = 2048;
}
);
note = uniE614;
unicode = E614;
},
{
glyphname = uniE615;
lastChange = "2018-07-14 05:02:01 +0000";
layers = (
{
hints = (
{
horizontal = 1;
place = "{148, 82}";
type = Stem;
},
{
horizontal = 1;
place = "{810, 82}";
type = Stem;
},
{
horizontal = 1;
place = "{892, 138}";
type = Stem;
},
{
horizontal = 1;
place = "{1492, -20}";
target = down;
type = TopGhost;
},
{
place = "{425, 85}";
type = Stem;
},
{
place = "{993, 82}";
type = Stem;
},
{
place = "{1538, 86}";
type = Stem;
}
);
layerId = "44EE3EC1-6A7A-489F-A767-F91A9060DD57";
paths = (
{
closed = 1;
nodes = (
"1247 -113 OFFCURVE",
"1455 -28 OFFCURVE",
"1610 125 CURVE SMOOTH",
"1767 280 OFFCURVE",
"1853 490 OFFCURVE",
"1853 717 CURVE SMOOTH",
"1853 778 LINE",
"195 778 LINE",
"195 717 LINE SMOOTH",
"195 490 OFFCURVE",
"281 280 OFFCURVE",
"438 125 CURVE SMOOTH",
"593 -28 OFFCURVE",
"801 -113 OFFCURVE",
"1024 -113 CURVE SMOOTH"
);
},
{
closed = 1;
nodes = (
"1728 655 LINE",
"1714 486 OFFCURVE",
"1643 330 OFFCURVE",
"1524 213 CURVE SMOOTH",
"1392 82 OFFCURVE",
"1214 10 OFFCURVE",
"1024 10 CURVE SMOOTH",
"834 10 OFFCURVE",
"656 82 OFFCURVE",
"524 213 CURVE SMOOTH",
"405 330 OFFCURVE",
"334 486 OFFCURVE",
"320 655 CURVE"
);
},
{
closed = 1;
nodes = (
"1085 1241 LINE",
"1085 1690 LINE",
"963 1690 LINE",
"963 1241 LINE"
);
},
{
closed = 1;
nodes = (
"1631 984 LINE",
"1844 1327 LINE",
"1740 1392 LINE",
"1527 1049 LINE"
);
},
{
closed = 1;
nodes = (
"417 984 LINE",
"521 1049 LINE",
"308 1392 LINE",
"204 1327 LINE"
);
}
);
width = 2048;
}
);
note = uniE615;
unicode = E615;
},
{
glyphname = uniE616;
lastChange = "2018-07-14 05:02:01 +0000";
layers = (
{
hints = (
{
horizontal = 1;
place = "{210, 21}";
target = up;
type = BottomGhost;
},
{
horizontal = 1;
place = "{239, 82}";
type = Stem;
},
{
horizontal = 1;
place = "{1425, -20}";
target = down;
type = TopGhost;
}
);
layerId = "44EE3EC1-6A7A-489F-A767-F91A9060DD57";
paths = (
{
closed = 1;
nodes = (
"1038 1384 LINE",
"1705 183 LINE",
"1409 57 LINE",
"1458 -57 LINE",
"1879 124 LINE",
"1010 1688 LINE",
"468 61 LINE",
"154 61 LINE",
"154 -61 LINE",
"556 -61 LINE"
);
}
);
width = 2048;
}
);
note = uniE616;
unicode = E616;
},
{
glyphname = uniE617;
lastChange = "2018-07-14 05:02:01 +0000";
layers = (
{
hints = (
{
horizontal = 1;
place = "{79, 21}";
target = up;
type = BottomGhost;
},
{
horizontal = 1;
place = "{925, 82}";
type = Stem;
},
{
horizontal = 1;
place = "{1412, 82}";
type = Stem;
},
{
place = "{1038, 82}";
type = Stem;
},
{
place = "{1853, 82}";
type = Stem;
}
);
layerId = "44EE3EC1-6A7A-489F-A767-F91A9060DD57";
paths = (
{
closed = 1;
nodes = (
"2010 1380 LINE",
"2010 1383 LINE",
"2010 1386 LINE",
"2010 1386 LINE",
"2007 1431 LINE",
"1963 1442 LINE SMOOTH",
"1896 1458 OFFCURVE",
"1828 1470 OFFCURVE",
"1757 1476 CURVE SMOOTH",
"1722 1478 OFFCURVE",
"1687 1479 OFFCURVE",
"1651 1478 CURVE SMOOTH",
"1633 1477 OFFCURVE",
"1616 1476 OFFCURVE",
"1598 1474 CURVE",
"1589 1474 OFFCURVE",
"1580 1472 OFFCURVE",
"1571 1471 CURVE SMOOTH",
"1562 1470 OFFCURVE",
"1553 1469 OFFCURVE",
"1544 1467 CURVE SMOOTH",
"1535 1465 OFFCURVE",
"1526 1464 OFFCURVE",
"1518 1462 CURVE SMOOTH",
"1509 1460 OFFCURVE",
"1500 1458 OFFCURVE",
"1491 1456 CURVE",
"1482 1453 OFFCURVE",
"1474 1451 OFFCURVE",
"1465 1448 CURVE SMOOTH",
"1452 1444 LINE",
"1447 1443 OFFCURVE",
"1443 1441 OFFCURVE",
"1439 1440 CURVE",
"1422 1434 OFFCURVE",
"1404 1427 OFFCURVE",
"1388 1419 CURVE",
"1371 1412 OFFCURVE",
"1355 1403 OFFCURVE",
"1339 1394 CURVE SMOOTH",
"1306 1376 OFFCURVE",
"1276 1355 OFFCURVE",
"1248 1331 CURVE SMOOTH",
"1220 1307 OFFCURVE",
"1195 1281 OFFCURVE",
"1172 1252 CURVE SMOOTH",
"1149 1224 OFFCURVE",
"1128 1194 OFFCURVE",
"1110 1164 CURVE SMOOTH",
"1092 1133 OFFCURVE",
"1076 1101 OFFCURVE",
"1063 1068 CURVE SMOOTH",
"1048 1033 OFFCURVE",
"1035 997 OFFCURVE",
"1024 961 CURVE",
"1014 997 OFFCURVE",
"1001 1032 OFFCURVE",
"986 1067 CURVE SMOOTH",
"972 1100 OFFCURVE",
"957 1132 OFFCURVE",
"939 1163 CURVE SMOOTH",
"921 1194 OFFCURVE",
"900 1223 OFFCURVE",
"878 1252 CURVE",
"855 1280 OFFCURVE",
"829 1306 OFFCURVE",
"801 1330 CURVE SMOOTH",
"774 1354 OFFCURVE",
"744 1375 OFFCURVE",
"712 1394 CURVE SMOOTH",
"696 1403 OFFCURVE",
"679 1411 OFFCURVE",
"663 1419 CURVE SMOOTH",
"646 1427 OFFCURVE",
"629 1433 OFFCURVE",
"612 1440 CURVE",
"595 1445 OFFCURVE",
"577 1451 OFFCURVE",
"559 1455 CURVE",
"551 1458 OFFCURVE",
"542 1460 OFFCURVE",
"533 1462 CURVE SMOOTH",
"524 1464 OFFCURVE",
"515 1465 OFFCURVE",
"506 1467 CURVE",
"497 1468 OFFCURVE",
"488 1470 OFFCURVE",
"480 1471 CURVE SMOOTH",
"466 1473 LINE",
"460 1474 LINE",
"453 1474 LINE",
"435 1476 OFFCURVE",
"417 1477 OFFCURVE",
"399 1478 CURVE SMOOTH",
"364 1479 OFFCURVE",
"328 1478 OFFCURVE",
"293 1476 CURVE SMOOTH",
"223 1470 OFFCURVE",
"155 1458 OFFCURVE",
"87 1442 CURVE SMOOTH",
"44 1431 LINE",
"41 1386 LINE",
"41 1386 LINE",
"41 1383 LINE",
"41 1380 LINE",
"41 1375 LINE SMOOTH",
"41 1372 OFFCURVE",
"41 1368 OFFCURVE",
"41 1365 CURVE SMOOTH",
"41 1358 OFFCURVE",
"41 1351 OFFCURVE",
"41 1345 CURVE SMOOTH",
"41 1332 OFFCURVE",
"42 1319 OFFCURVE",
"43 1306 CURVE",
"46 1280 OFFCURVE",
"50 1254 OFFCURVE",
"55 1229 CURVE SMOOTH",
"60 1203 OFFCURVE",
"67 1178 OFFCURVE",
"76 1153 CURVE",
"84 1128 OFFCURVE",
"94 1103 OFFCURVE",
"107 1080 CURVE",
"119 1056 OFFCURVE",
"133 1033 OFFCURVE",
"149 1011 CURVE SMOOTH",
"165 989 OFFCURVE",
"184 968 OFFCURVE",
"204 950 CURVE SMOOTH",
"224 931 OFFCURVE",
"246 914 OFFCURVE",
"268 899 CURVE",
"292 885 OFFCURVE",
"316 872 OFFCURVE",
"341 862 CURVE SMOOTH",
"366 852 OFFCURVE",
"391 844 OFFCURVE",
"417 837 CURVE",
"443 831 OFFCURVE",
"468 827 OFFCURVE",
"494 824 CURVE",
"507 822 OFFCURVE",
"520 821 OFFCURVE",
"533 821 CURVE",
"546 820 OFFCURVE",
"558 819 OFFCURVE",
"571 819 CURVE SMOOTH",
"597 819 OFFCURVE",
"622 820 OFFCURVE",
"647 822 CURVE SMOOTH",
"697 826 OFFCURVE",
"746 833 OFFCURVE",
"795 843 CURVE SMOOTH",
"842 853 OFFCURVE",
"889 865 OFFCURVE",
"934 879 CURVE",
"937 868 OFFCURVE",
"940 856 OFFCURVE",
"942 845 CURVE",
"954 793 OFFCURVE",
"962 740 OFFCURVE",
"967 687 CURVE",
"963 -51 LINE",
"1085 -51 LINE",
"1081 688 LINE",
"1086 741 OFFCURVE",
"1094 794 OFFCURVE",
"1106 845 CURVE",
"1108 857 OFFCURVE",
"1111 868 OFFCURVE",
"1114 879 CURVE",
"1160 865 OFFCURVE",
"1206 853 OFFCURVE",
"1253 843 CURVE SMOOTH",
"1302 833 OFFCURVE",
"1351 826 OFFCURVE",
"1401 822 CURVE SMOOTH",
"1426 820 OFFCURVE",
"1452 819 OFFCURVE",
"1477 819 CURVE",
"1503 820 OFFCURVE",
"1529 821 OFFCURVE",
"1554 824 CURVE SMOOTH",
"1580 827 OFFCURVE",
"1606 831 OFFCURVE",
"1632 838 CURVE",
"1645 841 OFFCURVE",
"1657 844 OFFCURVE",
"1670 848 CURVE SMOOTH",
"1683 852 OFFCURVE",
"1696 857 OFFCURVE",
"1708 862 CURVE SMOOTH",
"1733 872 OFFCURVE",
"1757 885 OFFCURVE",
"1780 899 CURVE SMOOTH",
"1803 914 OFFCURVE",
"1825 931 OFFCURVE",
"1845 949 CURVE SMOOTH",
"1866 968 OFFCURVE",
"1884 989 OFFCURVE",
"1900 1010 CURVE SMOOTH",
"1916 1032 OFFCURVE",
"1931 1055 OFFCURVE",
"1943 1079 CURVE SMOOTH",
"1955 1103 OFFCURVE",
"1966 1128 OFFCURVE",
"1974 1153 CURVE",
"1983 1178 OFFCURVE",
"1990 1203 OFFCURVE",
"1995 1228 CURVE SMOOTH",
"2001 1254 OFFCURVE",
"2005 1280 OFFCURVE",
"2007 1306 CURVE SMOOTH",
"2008 1319 OFFCURVE",
"2009 1332 OFFCURVE",
"2010 1345 CURVE",
"2010 1351 OFFCURVE",
"2010 1358 OFFCURVE",
"2010 1365 CURVE",
"2011 1368 OFFCURVE",
"2010 1371 OFFCURVE",
"2010 1375 CURVE SMOOTH"
);
},
{
closed = 1;
nodes = (
"728 946 OFFCURVE",
"683 940 OFFCURVE",
"639 937 CURVE SMOOTH",
"617 935 OFFCURVE",
"595 935 OFFCURVE",
"573 935 CURVE SMOOTH",
"562 935 OFFCURVE",
"551 936 OFFCURVE",
"540 937 CURVE",
"529 937 OFFCURVE",
"518 938 OFFCURVE",
"508 940 CURVE",
"486 942 OFFCURVE",
"465 946 OFFCURVE",
"445 951 CURVE SMOOTH",
"425 956 OFFCURVE",
"405 963 OFFCURVE",
"386 971 CURVE SMOOTH",
"367 979 OFFCURVE",
"349 988 OFFCURVE",
"332 999 CURVE SMOOTH",
"316 1010 OFFCURVE",
"300 1023 OFFCURVE",
"285 1036 CURVE",
"271 1050 OFFCURVE",
"258 1065 OFFCURVE",
"246 1082 CURVE SMOOTH",
"234 1098 OFFCURVE",
"223 1116 OFFCURVE",
"214 1134 CURVE SMOOTH",
"205 1152 OFFCURVE",
"197 1172 OFFCURVE",
"190 1192 CURVE",
"184 1212 OFFCURVE",
"178 1232 OFFCURVE",
"174 1253 CURVE SMOOTH",
"170 1274 OFFCURVE",
"167 1295 OFFCURVE",
"165 1317 CURVE",
"165 1322 OFFCURVE",
"164 1328 OFFCURVE",
"164 1334 CURVE",
"210 1344 OFFCURVE",
"257 1352 OFFCURVE",
"303 1356 CURVE SMOOTH",
"334 1359 OFFCURVE",
"365 1359 OFFCURVE",
"396 1359 CURVE",
"411 1358 OFFCURVE",
"426 1358 OFFCURVE",
"442 1356 CURVE",
"447 1356 LINE",
"453 1355 LINE",
"464 1354 LINE SMOOTH",
"472 1353 OFFCURVE",
"479 1352 OFFCURVE",
"487 1351 CURVE SMOOTH",
"494 1350 OFFCURVE",
"501 1348 OFFCURVE",
"509 1347 CURVE",
"516 1345 OFFCURVE",
"523 1344 OFFCURVE",
"531 1342 CURVE SMOOTH",
"545 1338 OFFCURVE",
"560 1334 OFFCURVE",
"574 1329 CURVE",
"588 1325 OFFCURVE",
"602 1319 OFFCURVE",
"615 1313 CURVE SMOOTH",
"629 1307 OFFCURVE",
"642 1301 OFFCURVE",
"655 1294 CURVE SMOOTH",
"681 1279 OFFCURVE",
"705 1262 OFFCURVE",
"728 1243 CURVE SMOOTH",
"750 1224 OFFCURVE",
"771 1203 OFFCURVE",
"791 1180 CURVE SMOOTH",
"829 1134 OFFCURVE",
"860 1081 OFFCURVE",
"885 1024 CURVE SMOOTH",
"890 1012 OFFCURVE",
"896 999 OFFCURVE",
"901 986 CURVE",
"858 974 OFFCURVE",
"815 964 OFFCURVE",
"773 955 CURVE SMOOTH"
);
},
{
closed = 1;
nodes = (
"1868 1211 OFFCURVE",
"1854 1171 OFFCURVE",
"1836 1134 CURVE",
"1826 1116 OFFCURVE",
"1816 1098 OFFCURVE",
"1804 1082 CURVE SMOOTH",
"1792 1065 OFFCURVE",
"1779 1050 OFFCURVE",
"1764 1036 CURVE",
"1749 1023 OFFCURVE",
"1734 1010 OFFCURVE",
"1717 999 CURVE SMOOTH",
"1700 988 OFFCURVE",
"1682 979 OFFCURVE",
"1663 971 CURVE SMOOTH",
"1653 967 OFFCURVE",
"1644 963 OFFCURVE",
"1634 960 CURVE SMOOTH",
"1624 957 OFFCURVE",
"1614 954 OFFCURVE",
"1604 951 CURVE",
"1583 946 OFFCURVE",
"1562 942 OFFCURVE",
"1541 940 CURVE",
"1520 937 OFFCURVE",
"1498 936 OFFCURVE",
"1476 935 CURVE",
"1454 935 OFFCURVE",
"1432 935 OFFCURVE",
"1410 937 CURVE SMOOTH",
"1365 940 OFFCURVE",
"1320 946 OFFCURVE",
"1276 955 CURVE SMOOTH",
"1233 963 OFFCURVE",
"1190 974 OFFCURVE",
"1148 986 CURVE",
"1153 999 OFFCURVE",
"1158 1012 OFFCURVE",
"1163 1025 CURVE",
"1188 1081 OFFCURVE",
"1220 1135 OFFCURVE",
"1259 1180 CURVE",
"1278 1204 OFFCURVE",
"1299 1225 OFFCURVE",
"1322 1244 CURVE SMOOTH",
"1345 1263 OFFCURVE",
"1369 1280 OFFCURVE",
"1395 1294 CURVE SMOOTH",
"1408 1301 OFFCURVE",
"1421 1308 OFFCURVE",
"1435 1314 CURVE SMOOTH",
"1448 1320 OFFCURVE",
"1462 1325 OFFCURVE",
"1476 1330 CURVE",
"1491 1334 OFFCURVE",
"1505 1338 OFFCURVE",
"1519 1342 CURVE SMOOTH",
"1527 1344 OFFCURVE",
"1534 1345 OFFCURVE",
"1542 1347 CURVE",
"1549 1348 OFFCURVE",
"1556 1350 OFFCURVE",
"1564 1351 CURVE SMOOTH",
"1571 1352 OFFCURVE",
"1579 1353 OFFCURVE",
"1586 1354 CURVE SMOOTH",
"1594 1355 OFFCURVE",
"1601 1356 OFFCURVE",
"1609 1356 CURVE",
"1624 1358 OFFCURVE",
"1639 1358 OFFCURVE",
"1655 1359 CURVE",
"1686 1359 OFFCURVE",
"1717 1359 OFFCURVE",
"1748 1356 CURVE SMOOTH",
"1794 1351 OFFCURVE",
"1841 1344 OFFCURVE",
"1887 1334 CURVE",
"1886 1328 OFFCURVE",
"1886 1323 OFFCURVE",
"1886 1317 CURVE",
"1884 1296 OFFCURVE",
"1881 1274 OFFCURVE",
"1876 1253 CURVE"
);
}
);
width = 2048;
}
);
note = uniE617;
unicode = E617;
},
{
glyphname = uniE618;
lastChange = "2018-07-14 05:02:01 +0000";
layers = (
{
hints = (
{
horizontal = 1;
place = "{-132, 21}";
target = up;
type = BottomGhost;
},
{
horizontal = 1;
place = "{1770, -20}";
target = down;
type = TopGhost;
},
{
horizontal = 1;
place = "{1771, -20}";
target = down;
type = TopGhost;
},
{
place = "{518, 82}";
type = Stem;
},
{
place = "{1446, 82}";
type = Stem;
}
);
layerId = "44EE3EC1-6A7A-489F-A767-F91A9060DD57";
paths = (
{
closed = 1;
nodes = (
"1370 650 OFFCURVE",
"1265 714 OFFCURVE",
"1149 759 CURVE SMOOTH",
"1141 762 OFFCURVE",
"1133 765 OFFCURVE",
"1124 768 CURVE",
"1133 771 OFFCURVE",
"1141 774 OFFCURVE",
"1149 777 CURVE SMOOTH",
"1265 822 OFFCURVE",
"1370 886 OFFCURVE",
"1461 968 CURVE SMOOTH",
"1551 1049 OFFCURVE",
"1622 1144 OFFCURVE",
"1673 1248 CURVE SMOOTH",
"1725 1357 OFFCURVE",
"1751 1471 OFFCURVE",
"1751 1587 CURVE",
"1628 1587 LINE",
"1628 1489 OFFCURVE",
"1606 1393 OFFCURVE",
"1562 1301 CURVE SMOOTH",
"1519 1211 OFFCURVE",
"1457 1130 OFFCURVE",
"1379 1059 CURVE SMOOTH",
"1299 988 OFFCURVE",
"1207 931 OFFCURVE",
"1104 892 CURVE SMOOTH",
"998 850 OFFCURVE",
"884 829 OFFCURVE",
"768 829 CURVE SMOOTH",
"471 829 LINE",
"471 1587 LINE",
"348 1587 LINE",
"348 -51 LINE",
"471 -51 LINE",
"471 707 LINE",
"768 707 LINE SMOOTH",
"884 707 OFFCURVE",
"998 686 OFFCURVE",
"1104 644 CURVE SMOOTH",
"1207 605 OFFCURVE",
"1299 548 OFFCURVE",
"1379 477 CURVE SMOOTH",
"1457 406 OFFCURVE",
"1519 325 OFFCURVE",
"1562 235 CURVE SMOOTH",
"1606 143 OFFCURVE",
"1628 47 OFFCURVE",
"1628 -51 CURVE",
"1751 -51 LINE",
"1751 65 OFFCURVE",
"1725 179 OFFCURVE",
"1673 288 CURVE SMOOTH",
"1622 392 OFFCURVE",
"1551 487 OFFCURVE",
"1461 568 CURVE SMOOTH"
);
}
);
width = 2048;
}
);
note = uniE618;
unicode = E618;
},
{
glyphname = uniE619;
lastChange = "2018-07-14 05:02:01 +0000";
layers = (
{
hints = (
{
horizontal = 1;
place = "{-56, 21}";
target = up;
type = BottomGhost;
},
{
horizontal = 1;
place = "{924, 83}";
type = Stem;
},
{
horizontal = 1;
place = "{1275, 82}";
type = Stem;
},
{
horizontal = 1;
place = "{1613, 81}";
type = Stem;
},
{
place = "{797, 82}";
type = Stem;
},
{
place = "{1118, 82}";
type = Stem;
},
{
place = "{1442, 82}";
type = Stem;
}
);
layerId = "44EE3EC1-6A7A-489F-A767-F91A9060DD57";
paths = (
{
closed = 1;
nodes = (
"1761 1649 LINE",
"287 1649 LINE",
"287 901 LINE",
"962 901 LINE",
"962 828 LINE",
"791 818 OFFCURVE",
"646 765 OFFCURVE",
"540 671 CURVE SMOOTH",
"475 614 OFFCURVE",
"425 542 OFFCURVE",
"391 457 CURVE SMOOTH",
"361 382 OFFCURVE",
"344 296 OFFCURVE",
"339 202 CURVE",
"147 401 LINE",
"58 316 LINE",
"413 -51 LINE",
"461 -51 LINE",
"461 154 LINE SMOOTH",
"461 360 OFFCURVE",
"534 707 OFFCURVE",
"1019 707 CURVE SMOOTH",
"1504 707 OFFCURVE",
"1577 360 OFFCURVE",
"1577 154 CURVE SMOOTH",
"1577 -51 LINE",
"1700 -51 LINE",
"1700 154 LINE SMOOTH",
"1700 267 OFFCURVE",
"1682 369 OFFCURVE",
"1647 457 CURVE SMOOTH",
"1613 542 OFFCURVE",
"1563 614 OFFCURVE",
"1498 671 CURVE SMOOTH",
"1393 763 OFFCURVE",
"1252 816 OFFCURVE",
"1084 827 CURVE",
"1084 901 LINE",
"1761 901 LINE"
);
},
{
closed = 1;
nodes = (
"1084 1024 LINE",
"1084 1526 LINE",
"1638 1526 LINE",
"1638 1024 LINE"
);
},
{
closed = 1;
nodes = (
"410 1526 LINE",
"962 1526 LINE",
"962 1024 LINE",
"410 1024 LINE"
);
}
);
width = 2048;
}
);
note = uniE619;
unicode = E619;
},
{
glyphname = uniE61A;
lastChange = "2018-07-14 05:02:01 +0000";
layers = (
{
hints = (
{
horizontal = 1;
place = "{1644, -20}";
target = down;
type = TopGhost;
},
{
horizontal = 1;
place = "{1645, -20}";
target = down;
type = TopGhost;
},
{
place = "{135, 82}";
type = Stem;
},
{
place = "{994, 82}";
type = Stem;
},
{
place = "{1830, 82}";
type = Stem;
}
);
layerId = "44EE3EC1-6A7A-489F-A767-F91A9060DD57";
paths = (
{
closed = 1;
nodes = (
"1134 1733 LINE",
"1134 1733 OFFCURVE",
"1127 1726 OFFCURVE",
"1116 1714 CURVE",
"1105 1703 LINE",
"1102 1699 OFFCURVE",
"1098 1695 OFFCURVE",
"1093 1690 CURVE",
"1081 1675 LINE",
"1066 1658 LINE SMOOTH",
"1056 1646 OFFCURVE",
"1046 1633 OFFCURVE",
"1035 1618 CURVE",
"1034 1616 OFFCURVE",
"1033 1614 OFFCURVE",
"1031 1612 CURVE",
"1027 1606 LINE",
"1025 1602 OFFCURVE",
"1022 1598 OFFCURVE",
"1019 1594 CURVE",
"1004 1567 LINE",
"995 1548 OFFCURVE",
"986 1527 OFFCURVE",
"979 1506 CURVE",
"973 1484 OFFCURVE",
"968 1462 OFFCURVE",
"965 1440 CURVE",
"963 1418 OFFCURVE",
"962 1397 OFFCURVE",
"962 1377 CURVE",
"961 1357 OFFCURVE",
"962 1337 OFFCURVE",
"962 1319 CURVE",
"964 1267 LINE",
"964 1250 OFFCURVE",
"965 1235 OFFCURVE",
"966 1221 CURVE",
"966 1218 LINE",
"965 1219 OFFCURVE",
"965 1219 OFFCURVE",
"965 1220 CURVE",
"952 1239 OFFCURVE",
"936 1258 OFFCURVE",
"919 1276 CURVE SMOOTH",
"902 1294 OFFCURVE",
"882 1310 OFFCURVE",
"861 1325 CURVE SMOOTH",
"840 1339 OFFCURVE",
"817 1351 OFFCURVE",
"794 1361 CURVE SMOOTH",
"770 1371 OFFCURVE",
"746 1377 OFFCURVE",
"722 1382 CURVE SMOOTH",
"697 1387 OFFCURVE",
"673 1390 OFFCURVE",
"649 1392 CURVE",
"623 1392 LINE",
"613 1393 LINE",
"605 1393 LINE",
"601 1392 LINE",
"587 1392 LINE",
"578 1391 LINE",
"566 1391 OFFCURVE",
"554 1390 OFFCURVE",
"541 1388 CURVE SMOOTH",
"506 1382 LINE",
"458 1372 OFFCURVE",
"411 1355 OFFCURVE",
"369 1331 CURVE SMOOTH",
"326 1308 OFFCURVE",
"286 1278 OFFCURVE",
"252 1243 CURVE SMOOTH",
"218 1208 OFFCURVE",
"189 1169 OFFCURVE",
"165 1127 CURVE SMOOTH",
"142 1084 OFFCURVE",
"125 1039 OFFCURVE",
"112 993 CURVE SMOOTH",
"100 947 OFFCURVE",
"93 900 OFFCURVE",
"91 853 CURVE",
"91 821 LINE",
"90 820 LINE",
"90 817 LINE",
"90 786 LINE SMOOTH",
"90 762 OFFCURVE",
"91 740 OFFCURVE",
"93 717 CURVE SMOOTH",
"97 672 OFFCURVE",
"103 627 OFFCURVE",
"112 582 CURVE SMOOTH",
"130 494 OFFCURVE",
"160 406 OFFCURVE",
"203 324 CURVE SMOOTH",
"224 283 OFFCURVE",
"249 244 OFFCURVE",
"277 207 CURVE SMOOTH",
"291 189 OFFCURVE",
"306 171 OFFCURVE",
"322 153 CURVE SMOOTH",
"338 136 OFFCURVE",
"355 120 OFFCURVE",
"372 104 CURVE SMOOTH",
"407 73 OFFCURVE",
"444 45 OFFCURVE",
"484 21 CURVE SMOOTH",
"524 -3 OFFCURVE",
"565 -24 OFFCURVE",
"608 -41 CURVE SMOOTH",
"651 -58 OFFCURVE",
"695 -72 OFFCURVE",
"739 -82 CURVE SMOOTH",
"784 -93 OFFCURVE",
"829 -100 OFFCURVE",
"873 -105 CURVE SMOOTH",
"918 -110 OFFCURVE",
"963 -112 OFFCURVE",
"1008 -113 CURVE SMOOTH",
"1025 -113 LINE",
"1041 -112 LINE",
"1075 -112 LINE",
"1142 -108 LINE SMOOTH",
"1187 -104 OFFCURVE",
"1231 -97 OFFCURVE",
"1276 -88 CURVE SMOOTH",
"1320 -79 OFFCURVE",
"1364 -67 OFFCURVE",
"1408 -51 CURVE SMOOTH",
"1494 -20 OFFCURVE",
"1577 25 OFFCURVE",
"1648 85 CURVE SMOOTH",
"1666 100 OFFCURVE",
"1683 115 OFFCURVE",
"1699 132 CURVE",
"1716 148 OFFCURVE",
"1731 165 OFFCURVE",
"1746 183 CURVE SMOOTH",
"1776 219 OFFCURVE",
"1802 257 OFFCURVE",
"1824 297 CURVE SMOOTH",
"1847 337 OFFCURVE",
"1866 379 OFFCURVE",
"1883 421 CURVE",
"1898 464 OFFCURVE",
"1912 507 OFFCURVE",
"1922 552 CURVE SMOOTH",
"1932 596 OFFCURVE",
"1940 640 OFFCURVE",
"1945 685 CURVE SMOOTH",
"1947 707 OFFCURVE",
"1949 730 OFFCURVE",
"1950 752 CURVE",
"1951 764 OFFCURVE",
"1951 775 OFFCURVE",
"1951 786 CURVE SMOOTH",
"1951 813 LINE SMOOTH",
"1951 815 OFFCURVE",
"1951 817 OFFCURVE",
"1950 820 CURVE",
"1950 853 LINE",
"1949 864 LINE SMOOTH",
"1948 879 OFFCURVE",
"1947 893 OFFCURVE",
"1945 908 CURVE SMOOTH",
"1943 923 OFFCURVE",
"1941 938 OFFCURVE",
"1938 953 CURVE SMOOTH",
"1935 967 OFFCURVE",
"1932 982 OFFCURVE",
"1928 997 CURVE SMOOTH",
"1924 1011 OFFCURVE",
"1920 1026 OFFCURVE",
"1915 1040 CURVE SMOOTH",
"1910 1055 OFFCURVE",
"1904 1069 OFFCURVE",
"1898 1083 CURVE SMOOTH",
"1886 1111 OFFCURVE",
"1872 1138 OFFCURVE",
"1855 1163 CURVE SMOOTH",
"1838 1189 OFFCURVE",
"1819 1214 OFFCURVE",
"1798 1237 CURVE SMOOTH",
"1777 1259 OFFCURVE",
"1754 1280 OFFCURVE",
"1729 1298 CURVE SMOOTH",
"1703 1317 OFFCURVE",
"1676 1333 OFFCURVE",
"1648 1346 CURVE SMOOTH",
"1620 1359 OFFCURVE",
"1590 1370 OFFCURVE",
"1560 1377 CURVE SMOOTH",
"1529 1385 OFFCURVE",
"1499 1390 OFFCURVE",
"1468 1392 CURVE",
"1444 1392 LINE",
"1432 1393 LINE",
"1422 1392 LINE",
"1406 1392 OFFCURVE",
"1391 1391 OFFCURVE",
"1376 1390 CURVE SMOOTH",
"1345 1387 OFFCURVE",
"1314 1381 OFFCURVE",
"1283 1371 CURVE",
"1268 1367 OFFCURVE",
"1253 1361 OFFCURVE",
"1238 1354 CURVE SMOOTH",
"1223 1347 OFFCURVE",
"1208 1339 OFFCURVE",
"1195 1330 CURVE SMOOTH",
"1167 1312 OFFCURVE",
"1142 1290 OFFCURVE",
"1121 1267 CURVE SMOOTH",
"1106 1250 OFFCURVE",
"1092 1233 OFFCURVE",
"1080 1215 CURVE",
"1080 1223 LINE SMOOTH",
"1080 1238 OFFCURVE",
"1079 1254 OFFCURVE",
"1079 1270 CURVE",
"1078 1287 OFFCURVE",
"1078 1304 OFFCURVE",
"1078 1321 CURVE SMOOTH",
"1078 1374 LINE",
"1079 1391 OFFCURVE",
"1080 1408 OFFCURVE",
"1082 1425 CURVE SMOOTH",
"1084 1441 OFFCURVE",
"1088 1456 OFFCURVE",
"1092 1470 CURVE",
"1097 1484 OFFCURVE",
"1103 1498 OFFCURVE",
"1110 1511 CURVE SMOOTH",
"1121 1530 LINE",
"1127 1539 LINE",
"1129 1541 LINE",
"1130 1544 LINE",
"1132 1545 OFFCURVE",
"1133 1546 OFFCURVE",
"1134 1548 CURVE",
"1142 1560 OFFCURVE",
"1151 1571 OFFCURVE",
"1159 1581 CURVE",
"1172 1595 LINE",
"1184 1608 LINE",
"1194 1619 LINE",
"1203 1628 LINE SMOOTH",
"1215 1640 OFFCURVE",
"1221 1647 OFFCURVE",
"1221 1647 CURVE"
);
},
{
closed = 1;
nodes = (
"1839 810 LINE",
"1839 788 LINE SMOOTH",
"1839 778 OFFCURVE",
"1838 768 OFFCURVE",
"1838 758 CURVE",
"1837 737 OFFCURVE",
"1835 717 OFFCURVE",
"1833 697 CURVE SMOOTH",
"1829 657 OFFCURVE",
"1822 617 OFFCURVE",
"1812 578 CURVE SMOOTH",
"1803 538 OFFCURVE",
"1791 500 OFFCURVE",
"1776 462 CURVE SMOOTH",
"1762 425 OFFCURVE",
"1745 389 OFFCURVE",
"1725 355 CURVE SMOOTH",
"1685 286 OFFCURVE",
"1634 225 OFFCURVE",
"1573 176 CURVE SMOOTH",
"1512 126 OFFCURVE",
"1442 88 OFFCURVE",
"1367 62 CURVE SMOOTH",
"1330 49 OFFCURVE",
"1291 39 OFFCURVE",
"1252 31 CURVE SMOOTH",
"1212 23 OFFCURVE",
"1172 18 OFFCURVE",
"1132 14 CURVE",
"1111 13 OFFCURVE",
"1091 11 OFFCURVE",
"1070 11 CURVE SMOOTH",
"1055 11 LINE",
"1050 10 OFFCURVE",
"1046 10 OFFCURVE",
"1040 10 CURVE SMOOTH",
"1009 10 LINE SMOOTH",
"968 11 OFFCURVE",
"927 13 OFFCURVE",
"887 18 CURVE SMOOTH",
"847 22 OFFCURVE",
"807 29 OFFCURVE",
"768 38 CURVE SMOOTH",
"729 48 OFFCURVE",
"691 60 OFFCURVE",
"654 74 CURVE SMOOTH",
"581 104 OFFCURVE",
"513 145 OFFCURVE",
"456 197 CURVE SMOOTH",
"398 249 OFFCURVE",
"351 313 OFFCURVE",
"314 383 CURVE SMOOTH",
"278 453 OFFCURVE",
"252 529 OFFCURVE",
"236 608 CURVE SMOOTH",
"228 647 OFFCURVE",
"222 687 OFFCURVE",
"219 727 CURVE SMOOTH",
"217 747 OFFCURVE",
"217 767 OFFCURVE",
"216 787 CURVE",
"216 809 LINE",
"217 815 LINE",
"217 848 LINE",
"221 925 OFFCURVE",
"240 1001 OFFCURVE",
"275 1066 CURVE SMOOTH",
"293 1099 OFFCURVE",
"315 1129 OFFCURVE",
"341 1155 CURVE SMOOTH",
"367 1182 OFFCURVE",
"396 1204 OFFCURVE",
"428 1222 CURVE SMOOTH",
"461 1240 OFFCURVE",
"495 1253 OFFCURVE",
"531 1261 CURVE",
"558 1266 LINE",
"586 1269 LINE",
"600 1269 LINE",
"603 1270 LINE",
"636 1270 LINE",
"643 1269 LINE",
"662 1268 OFFCURVE",
"680 1266 OFFCURVE",
"698 1263 CURVE SMOOTH",
"716 1260 OFFCURVE",
"733 1255 OFFCURVE",
"749 1249 CURVE SMOOTH",
"782 1237 OFFCURVE",
"810 1218 OFFCURVE",
"836 1193 CURVE SMOOTH",
"862 1168 OFFCURVE",
"886 1137 OFFCURVE",
"909 1103 CURVE SMOOTH",
"932 1069 OFFCURVE",
"955 1032 OFFCURVE",
"981 996 CURVE",
"1020 932 LINE",
"1067 996 LINE SMOOTH",
"1083 1019 OFFCURVE",
"1099 1042 OFFCURVE",
"1114 1065 CURVE SMOOTH",
"1129 1088 OFFCURVE",
"1144 1110 OFFCURVE",
"1159 1131 CURVE SMOOTH",
"1174 1151 OFFCURVE",
"1189 1171 OFFCURVE",
"1206 1187 CURVE SMOOTH",
"1214 1195 OFFCURVE",
"1222 1203 OFFCURVE",
"1231 1210 CURVE SMOOTH",
"1240 1217 OFFCURVE",
"1249 1223 OFFCURVE",
"1258 1229 CURVE",
"1277 1240 OFFCURVE",
"1297 1249 OFFCURVE",
"1319 1256 CURVE SMOOTH",
"1340 1262 OFFCURVE",
"1363 1266 OFFCURVE",
"1387 1268 CURVE SMOOTH",
"1399 1269 OFFCURVE",
"1412 1270 OFFCURVE",
"1423 1270 CURVE SMOOTH",
"1442 1270 LINE SMOOTH",
"1448 1270 OFFCURVE",
"1454 1269 OFFCURVE",
"1460 1269 CURVE",
"1472 1268 OFFCURVE",
"1483 1267 OFFCURVE",
"1495 1265 CURVE SMOOTH",
"1507 1263 OFFCURVE",
"1518 1261 OFFCURVE",
"1530 1258 CURVE SMOOTH",
"1553 1252 OFFCURVE",
"1575 1245 OFFCURVE",
"1597 1235 CURVE SMOOTH",
"1618 1225 OFFCURVE",
"1639 1214 OFFCURVE",
"1658 1200 CURVE",
"1678 1187 OFFCURVE",
"1696 1171 OFFCURVE",
"1712 1154 CURVE SMOOTH",
"1729 1137 OFFCURVE",
"1744 1119 OFFCURVE",
"1758 1099 CURVE SMOOTH",
"1765 1089 OFFCURVE",
"1771 1079 OFFCURVE",
"1777 1068 CURVE",
"1783 1058 OFFCURVE",
"1788 1047 OFFCURVE",
"1793 1036 CURVE",
"1804 1014 OFFCURVE",
"1812 991 OFFCURVE",
"1819 967 CURVE",
"1822 955 OFFCURVE",
"1825 943 OFFCURVE",
"1827 931 CURVE",
"1830 919 OFFCURVE",
"1832 906 OFFCURVE",
"1834 894 CURVE",
"1837 857 LINE",
"1838 847 LINE",
"1838 819 LINE"
);
},
{
closed = 1;
nodes = (
"91 822 LINE",
"91 825 OFFCURVE",
"90 818 OFFCURVE",
"90 819 CURVE"
);
}
);
width = 2048;
}
);
note = uniE61A;
unicode = E61A;
},
{
glyphname = uniE61B;
lastChange = "2018-07-14 05:02:01 +0000";
layers = (
{
hints = (
{
horizontal = 1;
place = "{1501, 82}";
type = Stem;
}
);
layerId = "44EE3EC1-6A7A-489F-A767-F91A9060DD57";
paths = (
{
closed = 1;
nodes = (
"1024 -141 LINE",
"1972 863 LINE",
"1467 1649 LINE",
"581 1649 LINE",
"76 863 LINE"
);
},
{
closed = 1;
nodes = (
"231 878 LINE",
"648 1526 LINE",
"1400 1526 LINE",
"1817 878 LINE",
"1024 38 LINE"
);
}
);
width = 2048;
}
);
note = uniE61B;
unicode = E61B;
},
{
glyphname = uniE61C;
lastChange = "2018-07-14 05:02:01 +0000";
layers = (
{
hints = (
{
horizontal = 1;
place = "{-61, 122}";
type = Stem;
},
{
horizontal = 1;
place = "{1209, 123}";
type = Stem;
},
{
horizontal = 1;
place = "{1628, 123}";
type = Stem;
},
{
place = "{95, 123}";
type = Stem;
},
{
place = "{269, 123}";
type = Stem;
},
{
place = "{607, 123}";
type = Stem;
},
{
place = "{1307, 123}";
type = Stem;
},
{
place = "{1649, 123}";
type = Stem;
},
{
place = "{1830, 123}";
type = Stem;
},
{
place = "{366, 123}";
type = Stem;
},
{
place = "{1555, 123}";
type = Stem;
},
{
horizontal = 1;
place = "{83, 123}";
type = Stem;
}
);
layerId = "44EE3EC1-6A7A-489F-A767-F91A9060DD57";
paths = (
{
closed = 1;
nodes = (
"1473 -61 OFFCURVE",
"1574 -23 OFFCURVE",
"1651 47 CURVE SMOOTH",
"1729 119 OFFCURVE",
"1772 214 OFFCURVE",
"1772 316 CURVE SMOOTH",
"1772 375 OFFCURVE",
"1757 432 OFFCURVE",
"1729 485 CURVE SMOOTH",
"1718 505 OFFCURVE",
"1706 523 OFFCURVE",
"1692 541 CURVE",
"1689 544 OFFCURVE",
"1686 548 OFFCURVE",
"1683 551 CURVE",
"1680 557 OFFCURVE",
"1678 564 OFFCURVE",
"1678 570 CURVE SMOOTH",
"1678 586 OFFCURVE",
"1689 598 OFFCURVE",
"1700 605 CURVE",
"1706 607 OFFCURVE",
"1712 609 OFFCURVE",
"1718 612 CURVE",
"1748 625 OFFCURVE",
"1776 641 OFFCURVE",
"1802 661 CURVE SMOOTH",
"1898 733 OFFCURVE",
"1953 840 OFFCURVE",
"1953 954 CURVE SMOOTH",
"1953 1054 OFFCURVE",
"1911 1149 OFFCURVE",
"1835 1220 CURVE SMOOTH",
"1761 1289 OFFCURVE",
"1663 1329 OFFCURVE",
"1557 1332 CURVE SMOOTH",
"1540 1332 OFFCURVE",
"1522 1331 OFFCURVE",
"1504 1330 CURVE",
"1495 1329 OFFCURVE",
"1487 1328 OFFCURVE",
"1478 1326 CURVE",
"1455 1327 OFFCURVE",
"1435 1342 OFFCURVE",
"1430 1360 CURVE",
"1430 1365 OFFCURVE",
"1430 1369 OFFCURVE",
"1430 1374 CURVE SMOOTH",
"1430 1376 OFFCURVE",
"1430 1377 OFFCURVE",
"1430 1380 CURVE",
"1431 1390 OFFCURVE",
"1431 1400 OFFCURVE",
"1428 1409 CURVE",
"1419 1502 OFFCURVE",
"1373 1588 OFFCURVE",
"1297 1652 CURVE SMOOTH",
"1221 1716 OFFCURVE",
"1122 1751 OFFCURVE",
"1019 1751 CURVE SMOOTH",
"802 1751 OFFCURVE",
"622 1596 OFFCURVE",
"608 1398 CURVE",
"608 1394 OFFCURVE",
"607 1391 OFFCURVE",
"607 1387 CURVE SMOOTH",
"607 1383 OFFCURVE",
"607 1378 OFFCURVE",
"607 1374 CURVE SMOOTH",
"607 1373 OFFCURVE",
"607 1372 OFFCURVE",
"607 1370 CURVE SMOOTH",
"607 1347 OFFCURVE",
"584 1329 OFFCURVE",
"556 1329 CURVE SMOOTH",
"556 1329 OFFCURVE",
"555 1329 OFFCURVE",
"555 1329 CURVE SMOOTH",
"550 1329 OFFCURVE",
"546 1330 OFFCURVE",
"541 1330 CURVE",
"525 1331 OFFCURVE",
"509 1332 OFFCURVE",
"493 1332 CURVE SMOOTH",
"387 1330 OFFCURVE",
"288 1290 OFFCURVE",
"213 1220 CURVE SMOOTH",
"137 1149 OFFCURVE",
"95 1055 OFFCURVE",
"95 954 CURVE SMOOTH",
"95 839 OFFCURVE",
"151 731 OFFCURVE",
"248 659 CURVE SMOOTH",
"272 642 OFFCURVE",
"297 627 OFFCURVE",
"324 615 CURVE SMOOTH",
"331 612 OFFCURVE",
"338 608 OFFCURVE",
"345 606 CURVE",
"358 598 OFFCURVE",
"366 586 OFFCURVE",
"366 572 CURVE SMOOTH",
"366 566 OFFCURVE",
"364 561 OFFCURVE",
"361 555 CURVE",
"357 550 OFFCURVE",
"352 545 OFFCURVE",
"348 539 CURVE",
"337 525 OFFCURVE",
"326 510 OFFCURVE",
"317 494 CURVE SMOOTH",
"286 440 OFFCURVE",
"269 378 OFFCURVE",
"269 316 CURVE SMOOTH",
"269 214 OFFCURVE",
"312 119 OFFCURVE",
"390 47 CURVE SMOOTH",
"467 -23 OFFCURVE",
"568 -61 OFFCURVE",
"676 -61 CURVE SMOOTH",
"733 -61 OFFCURVE",
"788 -51 OFFCURVE",
"839 -29 CURVE SMOOTH",
"889 -9 OFFCURVE",
"934 20 OFFCURVE",
"972 58 CURVE SMOOTH",
"976 62 OFFCURVE",
"980 66 OFFCURVE",
"984 71 CURVE",
"985 71 OFFCURVE",
"985 72 OFFCURVE",
"986 72 CURVE",
"995 79 OFFCURVE",
"1008 83 OFFCURVE",
"1021 83 CURVE SMOOTH",
"1034 83 OFFCURVE",
"1046 79 OFFCURVE",
"1055 72 CURVE",
"1056 71 OFFCURVE",
"1057 70 OFFCURVE",
"1058 70 CURVE",
"1061 66 OFFCURVE",
"1065 61 OFFCURVE",
"1069 58 CURVE",
"1107 20 OFFCURVE",
"1152 -9 OFFCURVE",
"1202 -29 CURVE SMOOTH",
"1254 -51 OFFCURVE",
"1309 -61 OFFCURVE",
"1365 -61 CURVE SMOOTH"
);
},
{
closed = 1;
nodes = (
"977 206 OFFCURVE",
"935 191 OFFCURVE",
"903 163 CURVE",
"900 160 LINE",
"897 157 LINE SMOOTH",
"896 156 OFFCURVE",
"895 155 OFFCURVE",
"894 154 CURVE SMOOTH",
"891 151 OFFCURVE",
"888 148 OFFCURVE",
"886 145 CURVE",
"832 92 OFFCURVE",
"755 61 OFFCURVE",
"676 61 CURVE SMOOTH",
"519 61 OFFCURVE",
"392 176 OFFCURVE",
"392 316 CURVE SMOOTH",
"392 357 OFFCURVE",
"403 396 OFFCURVE",
"424 433 CURVE SMOOTH",
"430 443 OFFCURVE",
"437 453 OFFCURVE",
"444 463 CURVE",
"448 468 OFFCURVE",
"452 472 OFFCURVE",
"456 477 CURVE",
"459 480 LINE",
"461 483 LINE SMOOTH",
"479 510 OFFCURVE",
"489 541 OFFCURVE",
"489 572 CURVE SMOOTH",
"489 631 OFFCURVE",
"455 686 OFFCURVE",
"401 715 CURVE SMOOTH",
"397 717 LINE",
"393 719 LINE",
"387 721 OFFCURVE",
"381 724 OFFCURVE",
"374 727 CURVE SMOOTH",
"356 735 OFFCURVE",
"338 746 OFFCURVE",
"322 758 CURVE SMOOTH",
"256 806 OFFCURVE",
"218 878 OFFCURVE",
"218 954 CURVE SMOOTH",
"218 1020 OFFCURVE",
"246 1083 OFFCURVE",
"297 1131 CURVE SMOOTH",
"350 1180 OFFCURVE",
"420 1207 OFFCURVE",
"495 1209 CURVE SMOOTH",
"507 1209 OFFCURVE",
"519 1209 OFFCURVE",
"530 1208 CURVE",
"534 1207 OFFCURVE",
"538 1207 OFFCURVE",
"542 1206 CURVE",
"544 1206 LINE",
"546 1206 LINE SMOOTH",
"550 1206 OFFCURVE",
"553 1206 OFFCURVE",
"556 1206 CURVE SMOOTH",
"652 1206 OFFCURVE",
"730 1280 OFFCURVE",
"730 1370 CURVE SMOOTH",
"730 1372 OFFCURVE",
"730 1374 OFFCURVE",
"730 1375 CURVE SMOOTH",
"730 1376 OFFCURVE",
"730 1378 OFFCURVE",
"730 1379 CURVE",
"731 1387 LINE",
"739 1522 OFFCURVE",
"865 1628 OFFCURVE",
"1019 1628 CURVE SMOOTH",
"1169 1628 OFFCURVE",
"1296 1525 OFFCURVE",
"1307 1392 CURVE",
"1307 1386 LINE",
"1307 1386 LINE",
"1307 1381 LINE SMOOTH",
"1307 1378 OFFCURVE",
"1307 1376 OFFCURVE",
"1307 1374 CURVE SMOOTH",
"1307 1369 OFFCURVE",
"1307 1365 OFFCURVE",
"1307 1360 CURVE SMOOTH",
"1307 1355 LINE",
"1307 1349 LINE",
"1317 1266 OFFCURVE",
"1392 1203 OFFCURVE",
"1480 1203 CURVE SMOOTH",
"1482 1203 OFFCURVE",
"1483 1204 OFFCURVE",
"1484 1204 CURVE SMOOTH",
"1489 1204 LINE",
"1494 1204 LINE",
"1501 1206 OFFCURVE",
"1509 1207 OFFCURVE",
"1516 1208 CURVE",
"1529 1209 OFFCURVE",
"1542 1209 OFFCURVE",
"1554 1209 CURVE SMOOTH",
"1629 1207 OFFCURVE",
"1699 1179 OFFCURVE",
"1751 1130 CURVE SMOOTH",
"1802 1083 OFFCURVE",
"1830 1020 OFFCURVE",
"1830 954 CURVE SMOOTH",
"1830 879 OFFCURVE",
"1793 808 OFFCURVE",
"1728 759 CURVE SMOOTH",
"1710 745 OFFCURVE",
"1690 734 OFFCURVE",
"1669 725 CURVE SMOOTH",
"1664 723 OFFCURVE",
"1658 720 OFFCURVE",
"1653 718 CURVE",
"1650 717 LINE",
"1647 716 LINE",
"1590 687 OFFCURVE",
"1555 631 OFFCURVE",
"1555 570 CURVE SMOOTH",
"1555 537 OFFCURVE",
"1565 505 OFFCURVE",
"1585 477 CURVE",
"1587 475 LINE",
"1589 473 LINE",
"1591 470 OFFCURVE",
"1594 467 OFFCURVE",
"1596 464 CURVE",
"1605 452 OFFCURVE",
"1614 440 OFFCURVE",
"1621 427 CURVE SMOOTH",
"1639 392 OFFCURVE",
"1649 355 OFFCURVE",
"1649 316 CURVE SMOOTH",
"1649 176 OFFCURVE",
"1522 61 OFFCURVE",
"1365 61 CURVE SMOOTH",
"1286 61 OFFCURVE",
"1209 92 OFFCURVE",
"1156 145 CURVE SMOOTH",
"1153 148 OFFCURVE",
"1150 151 OFFCURVE",
"1148 153 CURVE SMOOTH",
"1146 155 OFFCURVE",
"1145 156 OFFCURVE",
"1144 157 CURVE SMOOTH",
"1141 160 LINE",
"1138 163 LINE",
"1106 191 OFFCURVE",
"1064 206 OFFCURVE",
"1021 206 CURVE SMOOTH"
);
}
);
width = 2048;
}
);
note = uniE61C;
unicode = E61C;
},
{
glyphname = uniE61D;
lastChange = "2018-07-14 05:02:01 +0000";
layers = (
{
hints = (
{
horizontal = 1;
place = "{-97, 21}";
target = up;
type = BottomGhost;
}
);
layerId = "44EE3EC1-6A7A-489F-A767-F91A9060DD57";
paths = (
{
closed = 1;
nodes = (
"1229 -61 LINE",
"1372 -61 OFFCURVE",
"1502 -18 OFFCURVE",
"1596 61 CURVE SMOOTH",
"1700 151 OFFCURVE",
"1756 279 OFFCURVE",
"1756 434 CURVE SMOOTH",
"1756 655 OFFCURVE",
"1620 768 OFFCURVE",
"1501 867 CURVE SMOOTH",
"1388 960 OFFCURVE",
"1290 1041 OFFCURVE",
"1290 1205 CURVE SMOOTH",
"1290 1266 OFFCURVE",
"1301 1321 OFFCURVE",
"1322 1369 CURVE SMOOTH",
"1342 1414 OFFCURVE",
"1370 1452 OFFCURVE",
"1407 1483 CURVE SMOOTH",
"1478 1544 OFFCURVE",
"1580 1577 OFFCURVE",
"1694 1577 CURVE",
"1694 1700 LINE",
"1551 1700 OFFCURVE",
"1421 1656 OFFCURVE",
"1327 1577 CURVE SMOOTH",
"1223 1488 OFFCURVE",
"1167 1359 OFFCURVE",
"1167 1205 CURVE SMOOTH",
"1167 983 OFFCURVE",
"1303 871 OFFCURVE",
"1422 772 CURVE SMOOTH",
"1535 678 OFFCURVE",
"1633 598 OFFCURVE",
"1633 434 CURVE SMOOTH",
"1633 372 OFFCURVE",
"1622 317 OFFCURVE",
"1601 269 CURVE SMOOTH",
"1581 224 OFFCURVE",
"1553 186 OFFCURVE",
"1516 155 CURVE SMOOTH",
"1445 95 OFFCURVE",
"1343 61 OFFCURVE",
"1229 61 CURVE"
);
},
{
closed = 1;
nodes = (
"354 -61 LINE",
"497 -61 OFFCURVE",
"628 -18 OFFCURVE",
"721 61 CURVE SMOOTH",
"825 151 OFFCURVE",
"881 279 OFFCURVE",
"881 434 CURVE SMOOTH",
"881 655 OFFCURVE",
"745 768 OFFCURVE",
"626 867 CURVE SMOOTH",
"513 960 OFFCURVE",
"415 1041 OFFCURVE",
"415 1205 CURVE SMOOTH",
"415 1266 OFFCURVE",
"426 1321 OFFCURVE",
"447 1369 CURVE SMOOTH",
"467 1414 OFFCURVE",
"495 1452 OFFCURVE",
"532 1483 CURVE SMOOTH",
"603 1544 OFFCURVE",
"705 1577 OFFCURVE",
"819 1577 CURVE",
"819 1700 LINE",
"676 1700 OFFCURVE",
"546 1656 OFFCURVE",
"452 1577 CURVE SMOOTH",
"348 1488 OFFCURVE",
"292 1359 OFFCURVE",
"292 1205 CURVE SMOOTH",
"292 983 OFFCURVE",
"428 871 OFFCURVE",
"547 772 CURVE SMOOTH",
"660 678 OFFCURVE",
"758 598 OFFCURVE",
"758 434 CURVE SMOOTH",
"758 372 OFFCURVE",
"747 317 OFFCURVE",
"726 269 CURVE SMOOTH",
"706 224 OFFCURVE",
"678 186 OFFCURVE",
"641 155 CURVE SMOOTH",
"570 95 OFFCURVE",
"468 61 OFFCURVE",
"354 61 CURVE"
);
}
);
width = 2048;
}
);
note = uniE61D;
unicode = E61D;
},
{
glyphname = uniE61E;
lastChange = "2018-07-14 05:02:01 +0000";
layers = (
{
hints = (
{
horizontal = 1;
place = "{23, 82}";
type = Stem;
},
{
horizontal = 1;
place = "{809, 82}";
type = Stem;
},
{
horizontal = 1;
place = "{1616, -20}";
target = down;
type = TopGhost;
}
);
layerId = "44EE3EC1-6A7A-489F-A767-F91A9060DD57";
paths = (
{
closed = 1;
nodes = (
"1846 778 LINE",
"1500 778 LINE",
"1024 1666 LINE",
"548 778 LINE",
"202 778 LINE",
"202 655 LINE",
"482 655 LINE",
"98 -61 LINE",
"1950 -61 LINE",
"1566 655 LINE",
"1846 655 LINE"
);
},
{
closed = 1;
nodes = (
"621 655 LINE",
"1426 655 LINE",
"1745 61 LINE",
"303 61 LINE"
);
},
{
closed = 1;
nodes = (
"1024 1406 LINE",
"1360 778 LINE",
"687 778 LINE"
);
}
);
width = 2048;
}
);
note = uniE61E;
unicode = E61E;
},
{
glyphname = uniE61F;
lastChange = "2018-07-14 05:02:01 +0000";
layers = (
{
hints = (
{
horizontal = 1;
place = "{73, 81}";
type = Stem;
},
{
horizontal = 1;
place = "{646, 83}";
type = Stem;
},
{
horizontal = 1;
place = "{922, 81}";
type = Stem;
},
{
horizontal = 1;
place = "{1496, 82}";
type = Stem;
},
{
place = "{240, 82}";
type = Stem;
},
{
place = "{708, 82}";
type = Stem;
},
{
place = "{776, 82}";
type = Stem;
},
{
place = "{1189, 82}";
type = Stem;
},
{
place = "{1245, 82}";
type = Stem;
},
{
place = "{1726, 81}";
type = Stem;
}
);
layerId = "44EE3EC1-6A7A-489F-A767-F91A9060DD57";
paths = (
{
closed = 1;
nodes = (
"1255 809 OFFCURVE",
"1444 997 OFFCURVE",
"1444 1229 CURVE SMOOTH",
"1444 1460 OFFCURVE",
"1255 1649 OFFCURVE",
"1024 1649 CURVE SMOOTH",
"793 1649 OFFCURVE",
"604 1460 OFFCURVE",
"604 1229 CURVE SMOOTH",
"604 997 OFFCURVE",
"793 809 OFFCURVE",
"1024 809 CURVE SMOOTH"
);
},
{
closed = 1;
nodes = (
"1188 1526 OFFCURVE",
"1321 1393 OFFCURVE",
"1321 1229 CURVE SMOOTH",
"1321 1065 OFFCURVE",
"1188 932 OFFCURVE",
"1024 932 CURVE SMOOTH",
"860 932 OFFCURVE",
"727 1065 OFFCURVE",
"727 1229 CURVE SMOOTH",
"727 1393 OFFCURVE",
"860 1526 OFFCURVE",
"1024 1526 CURVE SMOOTH"
);
},
{
closed = 1;
nodes = (
"769 -10 OFFCURVE",
"957 178 OFFCURVE",
"957 410 CURVE SMOOTH",
"957 641 OFFCURVE",
"769 829 OFFCURVE",
"538 829 CURVE SMOOTH",
"306 829 OFFCURVE",
"118 641 OFFCURVE",
"118 410 CURVE SMOOTH",
"118 178 OFFCURVE",
"306 -10 OFFCURVE",
"538 -10 CURVE SMOOTH"
);
},
{
closed = 1;
nodes = (
"701 707 OFFCURVE",
"835 573 OFFCURVE",
"835 410 CURVE SMOOTH",
"835 246 OFFCURVE",
"701 113 OFFCURVE",
"538 113 CURVE SMOOTH",
"374 113 OFFCURVE",
"241 246 OFFCURVE",
"241 410 CURVE SMOOTH",
"241 573 OFFCURVE",
"374 707 OFFCURVE",
"538 707 CURVE SMOOTH"
);
},
{
closed = 1;
nodes = (
"1742 -10 OFFCURVE",
"1930 178 OFFCURVE",
"1930 410 CURVE SMOOTH",
"1930 641 OFFCURVE",
"1742 829 OFFCURVE",
"1510 829 CURVE SMOOTH",
"1279 829 OFFCURVE",
"1091 641 OFFCURVE",
"1091 410 CURVE SMOOTH",
"1091 178 OFFCURVE",
"1279 -10 OFFCURVE",
"1510 -10 CURVE SMOOTH"
);
},
{
closed = 1;
nodes = (
"1674 707 OFFCURVE",
"1807 573 OFFCURVE",
"1807 410 CURVE SMOOTH",
"1807 246 OFFCURVE",
"1674 113 OFFCURVE",
"1510 113 CURVE SMOOTH",
"1347 113 OFFCURVE",
"1213 246 OFFCURVE",
"1213 410 CURVE SMOOTH",
"1213 573 OFFCURVE",
"1347 707 OFFCURVE",
"1510 707 CURVE SMOOTH"
);
}
);
width = 2048;
}
);
note = uniE61F;
unicode = E61F;
},
{
glyphname = uniE620;
lastChange = "2018-07-14 05:02:01 +0000";
layers = (
{
hints = (
{
horizontal = 1;
place = "{-98, 21}";
target = up;
type = BottomGhost;
}
);
layerId = "44EE3EC1-6A7A-489F-A767-F91A9060DD57";
paths = (
{
closed = 1;
nodes = (
"945 -108 LINE",
"1255 21 OFFCURVE",
"1472 167 OFFCURVE",
"1610 339 CURVE SMOOTH",
"1677 424 OFFCURVE",
"1726 514 OFFCURVE",
"1758 614 CURVE SMOOTH",
"1788 708 OFFCURVE",
"1802 809 OFFCURVE",
"1802 922 CURVE SMOOTH",
"1802 1182 OFFCURVE",
"1740 1371 OFFCURVE",
"1611 1499 CURVE SMOOTH",
"1475 1634 OFFCURVE",
"1266 1700 OFFCURVE",
"973 1700 CURVE SMOOTH",
"851 1700 OFFCURVE",
"743 1682 OFFCURVE",
"652 1648 CURVE SMOOTH",
"560 1612 OFFCURVE",
"481 1558 OFFCURVE",
"420 1486 CURVE SMOOTH",
"303 1348 OFFCURVE",
"246 1146 OFFCURVE",
"246 870 CURVE",
"369 870 LINE",
"369 993 OFFCURVE",
"381 1101 OFFCURVE",
"406 1190 CURVE SMOOTH",
"430 1277 OFFCURVE",
"466 1350 OFFCURVE",
"514 1407 CURVE SMOOTH",
"611 1521 OFFCURVE",
"761 1577 OFFCURVE",
"973 1577 CURVE SMOOTH",
"1232 1577 OFFCURVE",
"1413 1523 OFFCURVE",
"1525 1411 CURVE SMOOTH",
"1629 1308 OFFCURVE",
"1679 1148 OFFCURVE",
"1679 922 CURVE SMOOTH",
"1679 718 OFFCURVE",
"1627 557 OFFCURVE",
"1514 416 CURVE SMOOTH",
"1389 261 OFFCURVE",
"1188 126 OFFCURVE",
"898 6 CURVE"
);
},
{
closed = 1;
nodes = (
"895 469 LINE",
"1063 637 OFFCURVE",
"1120 862 OFFCURVE",
"1065 1138 CURVE",
"945 1114 LINE",
"968 996 OFFCURVE",
"968 889 OFFCURVE",
"945 796 CURVE SMOOTH",
"922 705 OFFCURVE",
"876 624 OFFCURVE",
"808 555 CURVE"
);
}
);
width = 2048;
}
);
note = uniE620;
unicode = E620;
},
{
glyphname = uniE621;
lastChange = "2018-07-14 05:02:01 +0000";
layers = (
{
hints = (
{
horizontal = 1;
place = "{-130, 21}";
target = up;
type = BottomGhost;
},
{
horizontal = 1;
place = "{1766, -20}";
target = down;
type = TopGhost;
},
{
place = "{1189, 83}";
type = Stem;
}
);
layerId = "44EE3EC1-6A7A-489F-A767-F91A9060DD57";
paths = (
{
closed = 1;
nodes = (
"558 11 OFFCURVE",
"702 31 OFFCURVE",
"827 70 CURVE SMOOTH",
"948 108 OFFCURVE",
"1051 164 OFFCURVE",
"1136 237 CURVE SMOOTH",
"1217 307 OFFCURVE",
"1280 392 OFFCURVE",
"1322 488 CURVE SMOOTH",
"1362 582 OFFCURVE",
"1382 684 OFFCURVE",
"1382 794 CURVE SMOOTH",
"1382 903 OFFCURVE",
"1362 1006 OFFCURVE",
"1322 1099 CURVE SMOOTH",
"1280 1196 OFFCURVE",
"1217 1280 OFFCURVE",
"1136 1350 CURVE SMOOTH",
"1051 1423 OFFCURVE",
"948 1479 OFFCURVE",
"827 1517 CURVE SMOOTH",
"702 1556 OFFCURVE",
"558 1577 OFFCURVE",
"399 1577 CURVE",
"399 1454 LINE",
"545 1454 OFFCURVE",
"677 1435 OFFCURVE",
"790 1400 CURVE SMOOTH",
"895 1367 OFFCURVE",
"984 1319 OFFCURVE",
"1056 1257 CURVE SMOOTH",
"1189 1143 OFFCURVE",
"1260 982 OFFCURVE",
"1260 794 CURVE SMOOTH",
"1260 605 OFFCURVE",
"1189 445 OFFCURVE",
"1056 330 CURVE SMOOTH",
"984 268 OFFCURVE",
"895 220 OFFCURVE",
"790 187 CURVE SMOOTH",
"677 152 OFFCURVE",
"545 134 OFFCURVE",
"399 134 CURVE",
"399 11 LINE"
);
}
);
width = 1741;
}
);
note = uniE621;
unicode = E621;
},
{
glyphname = uniE622;
lastChange = "2018-07-14 05:02:01 +0000";
layers = (
{
hints = (
{
horizontal = 1;
place = "{491, 82}";
type = Stem;
},
{
horizontal = 1;
place = "{778, 82}";
type = Stem;
},
{
horizontal = 1;
place = "{1066, 82}";
type = Stem;
},
{
place = "{1226, 81}";
type = Stem;
},
{
place = "{1761, 83}";
type = Stem;
}
);
layerId = "44EE3EC1-6A7A-489F-A767-F91A9060DD57";
paths = (
{
closed = 1;
nodes = (
"1327 -10 OFFCURVE",
"1423 12 OFFCURVE",
"1513 56 CURVE SMOOTH",
"1600 99 OFFCURVE",
"1678 159 OFFCURVE",
"1744 236 CURVE SMOOTH",
"1879 392 OFFCURVE",
"1954 599 OFFCURVE",
"1954 819 CURVE SMOOTH",
"1954 1039 OFFCURVE",
"1879 1246 OFFCURVE",
"1744 1402 CURVE SMOOTH",
"1678 1479 OFFCURVE",
"1600 1540 OFFCURVE",
"1513 1582 CURVE SMOOTH",
"1423 1626 OFFCURVE",
"1327 1649 OFFCURVE",
"1228 1649 CURVE SMOOTH",
"1128 1649 OFFCURVE",
"1032 1626 OFFCURVE",
"942 1582 CURVE SMOOTH",
"855 1540 OFFCURVE",
"778 1479 OFFCURVE",
"711 1402 CURVE SMOOTH",
"589 1261 OFFCURVE",
"516 1077 OFFCURVE",
"504 881 CURVE",
"110 881 LINE",
"110 758 LINE",
"503 758 LINE",
"516 561 OFFCURVE",
"588 377 OFFCURVE",
"711 236 CURVE SMOOTH",
"778 159 OFFCURVE",
"855 99 OFFCURVE",
"942 56 CURVE SMOOTH",
"1032 12 OFFCURVE",
"1128 -10 OFFCURVE",
"1228 -10 CURVE SMOOTH"
);
},
{
closed = 1;
nodes = (
"1560 1526 OFFCURVE",
"1831 1209 OFFCURVE",
"1831 819 CURVE SMOOTH",
"1831 430 OFFCURVE",
"1560 113 OFFCURVE",
"1228 113 CURVE SMOOTH",
"895 113 OFFCURVE",
"625 430 OFFCURVE",
"625 819 CURVE SMOOTH",
"625 1209 OFFCURVE",
"895 1526 OFFCURVE",
"1228 1526 CURVE SMOOTH"
);
}
);
width = 2048;
}
);
note = uniE622;
unicode = E622;
},
{
glyphname = uniE623;
lastChange = "2018-07-14 05:02:01 +0000";
layers = (
{
hints = (
{
horizontal = 1;
place = "{78, 82}";
type = Stem;
},
{
horizontal = 1;
place = "{1449, 82}";
type = Stem;
},
{
place = "{965, 82}";
type = Stem;
}
);
layerId = "44EE3EC1-6A7A-489F-A767-F91A9060DD57";
paths = (
{
closed = 1;
nodes = (
"1085 842 LINE",
"1086 846 OFFCURVE",
"1085 850 OFFCURVE",
"1086 854 CURVE",
"1095 930 LINE SMOOTH",
"1099 957 OFFCURVE",
"1104 985 OFFCURVE",
"1110 1012 CURVE",
"1146 1000 OFFCURVE",
"1182 989 OFFCURVE",
"1219 981 CURVE SMOOTH",
"1263 971 OFFCURVE",
"1307 964 OFFCURVE",
"1352 961 CURVE SMOOTH",
"1375 959 OFFCURVE",
"1398 959 OFFCURVE",
"1422 959 CURVE",
"1457 962 LINE",
"1462 962 OFFCURVE",
"1468 963 OFFCURVE",
"1474 964 CURVE",
"1492 966 LINE",
"1515 970 OFFCURVE",
"1539 976 OFFCURVE",
"1562 984 CURVE SMOOTH",
"1585 992 OFFCURVE",
"1607 1002 OFFCURVE",
"1629 1014 CURVE SMOOTH",
"1650 1026 OFFCURVE",
"1671 1040 OFFCURVE",
"1690 1056 CURVE SMOOTH",
"1709 1072 OFFCURVE",
"1726 1089 OFFCURVE",
"1742 1108 CURVE SMOOTH",
"1757 1127 OFFCURVE",
"1771 1147 OFFCURVE",
"1783 1168 CURVE SMOOTH",
"1795 1189 OFFCURVE",
"1806 1210 OFFCURVE",
"1814 1232 CURVE",
"1832 1276 OFFCURVE",
"1844 1321 OFFCURVE",
"1852 1366 CURVE",
"1855 1388 OFFCURVE",
"1858 1411 OFFCURVE",
"1860 1434 CURVE SMOOTH",
"1861 1445 OFFCURVE",
"1862 1457 OFFCURVE",
"1862 1468 CURVE SMOOTH",
"1862 1504 LINE",
"1860 1548 LINE",
"1818 1560 LINE SMOOTH",
"1791 1568 OFFCURVE",
"1763 1575 OFFCURVE",
"1735 1580 CURVE",
"1722 1583 OFFCURVE",
"1707 1585 OFFCURVE",
"1693 1587 CURVE SMOOTH",
"1651 1593 LINE",
"1608 1596 LINE",
"1593 1596 OFFCURVE",
"1579 1597 OFFCURVE",
"1564 1596 CURVE",
"1535 1596 OFFCURVE",
"1505 1593 OFFCURVE",
"1476 1589 CURVE SMOOTH",
"1447 1584 OFFCURVE",
"1418 1577 OFFCURVE",
"1389 1567 CURVE SMOOTH",
"1360 1557 OFFCURVE",
"1333 1545 OFFCURVE",
"1306 1530 CURVE SMOOTH",
"1280 1515 OFFCURVE",
"1255 1498 OFFCURVE",
"1232 1479 CURVE SMOOTH",
"1209 1459 OFFCURVE",
"1188 1438 OFFCURVE",
"1168 1416 CURVE",
"1149 1393 OFFCURVE",
"1132 1369 OFFCURVE",
"1116 1345 CURVE",
"1101 1320 OFFCURVE",
"1087 1295 OFFCURVE",
"1075 1269 CURVE SMOOTH",
"1055 1227 OFFCURVE",
"1038 1183 OFFCURVE",
"1025 1140 CURVE",
"1012 1181 OFFCURVE",
"997 1222 OFFCURVE",
"979 1261 CURVE SMOOTH",
"967 1287 OFFCURVE",
"953 1313 OFFCURVE",
"938 1338 CURVE SMOOTH",
"923 1363 OFFCURVE",
"905 1387 OFFCURVE",
"886 1410 CURVE SMOOTH",
"867 1433 OFFCURVE",
"846 1455 OFFCURVE",
"823 1474 CURVE SMOOTH",
"800 1494 OFFCURVE",
"776 1512 OFFCURVE",
"749 1527 CURVE",
"723 1543 OFFCURVE",
"695 1555 OFFCURVE",
"666 1565 CURVE",
"638 1576 OFFCURVE",
"608 1583 OFFCURVE",
"579 1588 CURVE SMOOTH",
"549 1593 OFFCURVE",
"519 1596 OFFCURVE",
"490 1596 CURVE",
"475 1597 OFFCURVE",
"461 1596 OFFCURVE",
"446 1596 CURVE",
"402 1593 LINE SMOOTH",
"388 1592 OFFCURVE",
"374 1590 OFFCURVE",
"359 1587 CURVE",
"345 1585 OFFCURVE",
"331 1583 OFFCURVE",
"317 1580 CURVE SMOOTH",
"289 1575 OFFCURVE",
"262 1568 OFFCURVE",
"234 1560 CURVE SMOOTH",
"192 1548 LINE",
"190 1505 LINE",
"190 1495 LINE",
"189 1486 LINE",
"189 1480 OFFCURVE",
"190 1474 OFFCURVE",
"190 1468 CURVE SMOOTH",
"190 1457 OFFCURVE",
"191 1445 OFFCURVE",
"191 1434 CURVE",
"193 1411 OFFCURVE",
"196 1389 OFFCURVE",
"200 1366 CURVE SMOOTH",
"207 1321 OFFCURVE",
"219 1276 OFFCURVE",
"237 1232 CURVE SMOOTH",
"245 1211 OFFCURVE",
"255 1189 OFFCURVE",
"267 1168 CURVE SMOOTH",
"279 1147 OFFCURVE",
"293 1127 OFFCURVE",
"308 1108 CURVE",
"324 1090 OFFCURVE",
"341 1072 OFFCURVE",
"360 1056 CURVE SMOOTH",
"379 1040 OFFCURVE",
"400 1026 OFFCURVE",
"421 1014 CURVE SMOOTH",
"443 1002 OFFCURVE",
"465 992 OFFCURVE",
"488 984 CURVE SMOOTH",
"500 980 OFFCURVE",
"511 977 OFFCURVE",
"523 974 CURVE SMOOTH",
"535 971 OFFCURVE",
"546 968 OFFCURVE",
"558 966 CURVE SMOOTH",
"570 964 OFFCURVE",
"582 963 OFFCURVE",
"593 962 CURVE SMOOTH",
"628 959 LINE",
"651 958 OFFCURVE",
"675 959 OFFCURVE",
"697 961 CURVE SMOOTH",
"743 964 OFFCURVE",
"787 971 OFFCURVE",
"830 981 CURVE SMOOTH",
"867 989 OFFCURVE",
"903 1000 OFFCURVE",
"939 1012 CURVE",
"945 982 OFFCURVE",
"951 951 OFFCURVE",
"955 920 CURVE SMOOTH",
"959 895 OFFCURVE",
"962 870 OFFCURVE",
"964 845 CURVE",
"130 -61 LINE",
"1910 -61 LINE"
);
},
{
closed = 1;
nodes = (
"1024 728 LINE",
"1632 61 LINE",
"410 61 LINE"
);
},
{
closed = 1;
nodes = (
"1209 1100 OFFCURVE",
"1174 1109 OFFCURVE",
"1140 1121 CURVE",
"1151 1154 OFFCURVE",
"1164 1187 OFFCURVE",
"1179 1218 CURVE SMOOTH",
"1201 1262 OFFCURVE",
"1227 1303 OFFCURVE",
"1258 1339 CURVE SMOOTH",
"1273 1357 OFFCURVE",
"1290 1373 OFFCURVE",
"1307 1388 CURVE",
"1325 1402 OFFCURVE",
"1344 1415 OFFCURVE",
"1364 1426 CURVE SMOOTH",
"1404 1448 OFFCURVE",
"1449 1463 OFFCURVE",
"1495 1470 CURVE SMOOTH",
"1518 1473 OFFCURVE",
"1542 1475 OFFCURVE",
"1566 1475 CURVE",
"1578 1476 OFFCURVE",
"1590 1475 OFFCURVE",
"1602 1475 CURVE",
"1638 1472 LINE",
"1675 1467 LINE SMOOTH",
"1687 1465 OFFCURVE",
"1699 1463 OFFCURVE",
"1711 1460 CURVE SMOOTH",
"1739 1454 LINE",
"1739 1450 OFFCURVE",
"1738 1446 OFFCURVE",
"1738 1443 CURVE",
"1737 1424 OFFCURVE",
"1735 1405 OFFCURVE",
"1732 1386 CURVE SMOOTH",
"1726 1348 OFFCURVE",
"1716 1311 OFFCURVE",
"1703 1277 CURVE SMOOTH",
"1689 1243 OFFCURVE",
"1672 1211 OFFCURVE",
"1649 1183 CURVE SMOOTH",
"1628 1156 OFFCURVE",
"1601 1133 OFFCURVE",
"1571 1116 CURVE SMOOTH",
"1556 1108 OFFCURVE",
"1540 1101 OFFCURVE",
"1524 1095 CURVE SMOOTH",
"1507 1089 OFFCURVE",
"1490 1084 OFFCURVE",
"1472 1081 CURVE SMOOTH",
"1458 1079 LINE",
"1444 1077 LINE",
"1417 1075 LINE SMOOTH",
"1398 1074 OFFCURVE",
"1379 1074 OFFCURVE",
"1360 1076 CURVE",
"1322 1078 OFFCURVE",
"1283 1084 OFFCURVE",
"1244 1092 CURVE SMOOTH"
);
},
{
closed = 1;
nodes = (
"887 1182 OFFCURVE",
"899 1152 OFFCURVE",
"909 1121 CURVE",
"874 1109 OFFCURVE",
"840 1100 OFFCURVE",
"805 1092 CURVE SMOOTH",
"767 1084 OFFCURVE",
"728 1078 OFFCURVE",
"690 1076 CURVE",
"671 1074 OFFCURVE",
"652 1074 OFFCURVE",
"633 1075 CURVE SMOOTH",
"605 1077 LINE",
"578 1081 LINE",
"552 1087 LINE SMOOTH",
"543 1089 OFFCURVE",
"535 1092 OFFCURVE",
"526 1095 CURVE",
"510 1101 OFFCURVE",
"494 1108 OFFCURVE",
"479 1116 CURVE SMOOTH",
"449 1133 OFFCURVE",
"423 1156 OFFCURVE",
"401 1183 CURVE SMOOTH",
"379 1211 OFFCURVE",
"362 1243 OFFCURVE",
"348 1277 CURVE SMOOTH",
"335 1311 OFFCURVE",
"326 1348 OFFCURVE",
"320 1385 CURVE SMOOTH",
"317 1404 OFFCURVE",
"315 1423 OFFCURVE",
"313 1443 CURVE",
"313 1446 OFFCURVE",
"312 1450 OFFCURVE",
"312 1454 CURVE",
"341 1460 LINE",
"353 1463 OFFCURVE",
"366 1465 OFFCURVE",
"378 1467 CURVE SMOOTH",
"415 1472 LINE",
"451 1475 LINE",
"463 1475 OFFCURVE",
"476 1476 OFFCURVE",
"488 1475 CURVE",
"512 1475 OFFCURVE",
"536 1473 OFFCURVE",
"559 1469 CURVE SMOOTH",
"605 1462 OFFCURVE",
"650 1447 OFFCURVE",
"690 1424 CURVE SMOOTH",
"710 1413 OFFCURVE",
"729 1399 OFFCURVE",
"746 1384 CURVE SMOOTH",
"764 1369 OFFCURVE",
"781 1353 OFFCURVE",
"796 1334 CURVE",
"827 1298 OFFCURVE",
"852 1256 OFFCURVE",
"873 1212 CURVE SMOOTH"
);
}
);
width = 2048;
}
);
note = uniE623;
unicode = E623;
},
{
glyphname = uniE624;
lastChange = "2018-07-14 05:02:01 +0000";
layers = (
{
hints = (
{
horizontal = 1;
place = "{-2, 82}";
type = Stem;
},
{
horizontal = 1;
place = "{1110, 82}";
type = Stem;
},
{
horizontal = 1;
place = "{1559, 82}";
type = Stem;
},
{
place = "{190, 82}";
type = Stem;
},
{
place = "{1352, 82}";
type = Stem;
}
);
layerId = "44EE3EC1-6A7A-489F-A767-F91A9060DD57";
paths = (
{
closed = 1;
nodes = (
"1946 1137 LINE",
"1693 1137 LINE",
"1655 1245 OFFCURVE",
"1599 1345 OFFCURVE",
"1527 1431 CURVE SMOOTH",
"1455 1515 OFFCURVE",
"1372 1581 OFFCURVE",
"1279 1627 CURVE SMOOTH",
"1182 1675 OFFCURVE",
"1079 1700 OFFCURVE",
"973 1700 CURVE SMOOTH",
"867 1700 OFFCURVE",
"763 1675 OFFCURVE",
"666 1627 CURVE SMOOTH",
"573 1581 OFFCURVE",
"490 1515 OFFCURVE",
"419 1431 CURVE SMOOTH",
"274 1260 OFFCURVE",
"195 1034 OFFCURVE",
"195 794 CURVE SMOOTH",
"195 553 OFFCURVE",
"274 327 OFFCURVE",
"419 156 CURVE SMOOTH",
"490 72 OFFCURVE",
"573 7 OFFCURVE",
"666 -40 CURVE SMOOTH",
"763 -88 OFFCURVE",
"867 -113 OFFCURVE",
"973 -113 CURVE SMOOTH",
"1079 -113 OFFCURVE",
"1182 -88 OFFCURVE",
"1279 -40 CURVE SMOOTH",
"1372 7 OFFCURVE",
"1455 72 OFFCURVE",
"1527 156 CURVE SMOOTH",
"1671 327 OFFCURVE",
"1751 553 OFFCURVE",
"1751 794 CURVE SMOOTH",
"1751 869 OFFCURVE",
"1743 943 OFFCURVE",
"1728 1014 CURVE",
"1946 1014 LINE"
);
},
{
closed = 1;
nodes = (
"317 870 OFFCURVE",
"326 944 OFFCURVE",
"343 1014 CURVE",
"1601 1014 LINE",
"1618 944 OFFCURVE",
"1628 870 OFFCURVE",
"1628 794 CURVE SMOOTH",
"1628 362 OFFCURVE",
"1334 10 OFFCURVE",
"973 10 CURVE SMOOTH",
"612 10 OFFCURVE",
"317 362 OFFCURVE",
"317 794 CURVE SMOOTH"
);
},
{
closed = 1;
nodes = (
"1231 1577 OFFCURVE",
"1455 1397 OFFCURVE",
"1561 1137 CURVE",
"383 1137 LINE",
"490 1397 OFFCURVE",
"715 1577 OFFCURVE",
"973 1577 CURVE SMOOTH"
);
}
);
width = 2048;
}
);
note = uniE624;
unicode = E624;
},
{
glyphname = uniE625;
lastChange = "2018-07-14 05:02:01 +0000";
layers = (
{
hints = (
{
horizontal = 1;
place = "{-141, 434}";
type = Stem;
},
{
horizontal = 1;
place = "{-140, 21}";
target = up;
type = BottomGhost;
},
{
horizontal = 1;
place = "{211, 82}";
type = Stem;
},
{
horizontal = 1;
place = "{1697, 82}";
type = Stem;
},
{
place = "{281, 82}";
type = Stem;
},
{
place = "{993, 82}";
type = Stem;
},
{
place = "{1682, 82}";
type = Stem;
}
);
layerId = "44EE3EC1-6A7A-489F-A767-F91A9060DD57";
paths = (
{
closed = 1;
nodes = (
"1812 1597 LINE",
"236 1597 LINE",
"236 -51 LINE",
"358 -51 LINE",
"358 399 LINE",
"963 399 LINE",
"963 -41 LINE",
"1085 -41 LINE",
"1085 399 LINE",
"1690 399 LINE",
"1690 -51 LINE",
"1812 -51 LINE"
);
},
{
closed = 1;
nodes = (
"358 1475 LINE",
"1690 1475 LINE",
"1690 522 LINE",
"358 522 LINE"
);
}
);
width = 2048;
}
);
note = uniE625;
unicode = E625;
},
{
glyphname = uniE626;
lastChange = "2018-07-14 05:02:01 +0000";
layers = (
{
hints = (
{
horizontal = 1;
place = "{9, 21}";
target = up;
type = BottomGhost;
},
{
horizontal = 1;
place = "{787, 82}";
type = Stem;
},
{
horizontal = 1;
place = "{1630, -20}";
target = down;
type = TopGhost;
},
{
horizontal = 1;
place = "{1631, -20}";
target = down;
type = TopGhost;
}
);
layerId = "44EE3EC1-6A7A-489F-A767-F91A9060DD57";
paths = (
{
closed = 1;
nodes = (
"1024 717 LINE",
"1589 -37 LINE",
"1687 37 LINE",
"1146 758 LINE",
"1894 758 LINE",
"1894 881 LINE",
"1146 881 LINE",
"1687 1602 LINE",
"1589 1675 LINE",
"1024 921 LINE",
"459 1675 LINE",
"361 1602 LINE",
"901 881 LINE",
"153 881 LINE",
"153 758 LINE",
"901 758 LINE",
"361 37 LINE",
"459 -37 LINE"
);
}
);
width = 2048;
}
);
note = uniE626;
unicode = E626;
},
{
glyphname = uniE627;
lastChange = "2018-07-14 05:02:01 +0000";
layers = (
{
hints = (
{
horizontal = 1;
place = "{30, 21}";
target = up;
type = BottomGhost;
},
{
horizontal = 1;
place = "{1608, -20}";
target = down;
type = TopGhost;
}
);
layerId = "44EE3EC1-6A7A-489F-A767-F91A9060DD57";
paths = (
{
closed = 1;
nodes = (
"1685 821 LINE",
"601 1686 LINE",
"525 1590 LINE",
"1488 821 LINE",
"525 48 LINE",
"602 -48 LINE"
);
}
);
width = 2048;
}
);
note = uniE627;
unicode = E627;
},
{
glyphname = uniE628;
lastChange = "2018-07-14 05:02:01 +0000";
layers = (
{
hints = (
{
horizontal = 1;
place = "{616, 21}";
target = up;
type = BottomGhost;
}
);
layerId = "44EE3EC1-6A7A-489F-A767-F91A9060DD57";
paths = (
{
closed = 1;
nodes = (
"1501 1195 LINE",
"1399 1263 LINE",
"871 469 LINE",
"342 1263 LINE",
"240 1195 LINE",
"872 248 LINE"
);
}
);
width = 1741;
}
);
note = uniE628;
unicode = E628;
},
{
glyphname = uniE629;
lastChange = "2018-07-14 05:02:01 +0000";
layers = (
{
hints = (
{
horizontal = 1;
place = "{201, 123}";
type = Stem;
},
{
horizontal = 1;
place = "{1167, 123}";
type = Stem;
},
{
place = "{92, 123}";
type = Stem;
},
{
place = "{1833, 123}";
type = Stem;
}
);
layerId = "44EE3EC1-6A7A-489F-A767-F91A9060DD57";
paths = (
{
closed = 1;
nodes = (
"665 201 OFFCURVE",
"715 219 OFFCURVE",
"763 255 CURVE SMOOTH",
"802 283 OFFCURVE",
"840 323 OFFCURVE",
"880 377 CURVE SMOOTH",
"950 472 OFFCURVE",
"1015 596 OFFCURVE",
"1078 717 CURVE SMOOTH",
"1140 834 OFFCURVE",
"1203 955 OFFCURVE",
"1267 1041 CURVE SMOOTH",
"1330 1126 OFFCURVE",
"1384 1167 OFFCURVE",
"1434 1167 CURVE SMOOTH",
"1496 1167 OFFCURVE",
"1549 1151 OFFCURVE",
"1596 1116 CURVE SMOOTH",
"1645 1080 OFFCURVE",
"1687 1025 OFFCURVE",
"1721 953 CURVE SMOOTH",
"1795 796 OFFCURVE",
"1833 564 OFFCURVE",
"1833 263 CURVE",
"1956 263 LINE",
"1956 583 OFFCURVE",
"1914 833 OFFCURVE",
"1833 1005 CURVE SMOOTH",
"1789 1097 OFFCURVE",
"1734 1167 OFFCURVE",
"1669 1215 CURVE SMOOTH",
"1601 1265 OFFCURVE",
"1521 1290 OFFCURVE",
"1434 1290 CURVE SMOOTH",
"1383 1290 OFFCURVE",
"1333 1272 OFFCURVE",
"1285 1237 CURVE SMOOTH",
"1246 1208 OFFCURVE",
"1208 1168 OFFCURVE",
"1168 1114 CURVE SMOOTH",
"1098 1020 OFFCURVE",
"1033 895 OFFCURVE",
"970 774 CURVE SMOOTH",
"908 658 OFFCURVE",
"845 537 OFFCURVE",
"781 450 CURVE SMOOTH",
"718 365 OFFCURVE",
"664 324 OFFCURVE",
"614 324 CURVE SMOOTH",
"555 324 OFFCURVE",
"503 344 OFFCURVE",
"455 384 CURVE SMOOTH",
"406 425 OFFCURVE",
"363 486 OFFCURVE",
"327 566 CURVE SMOOTH",
"291 648 OFFCURVE",
"263 746 OFFCURVE",
"244 858 CURVE SMOOTH",
"225 971 OFFCURVE",
"215 1096 OFFCURVE",
"215 1229 CURVE",
"92 1229 LINE",
"92 942 OFFCURVE",
"135 696 OFFCURVE",
"215 516 CURVE SMOOTH",
"258 419 OFFCURVE",
"313 343 OFFCURVE",
"376 290 CURVE SMOOTH",
"446 231 OFFCURVE",
"526 201 OFFCURVE",
"614 201 CURVE SMOOTH"
);
}
);
width = 2048;
}
);
note = uniE629;
unicode = E629;
},
{
glyphname = uniE62A;
lastChange = "2018-07-14 05:02:01 +0000";
layers = (
{
hints = (
{
horizontal = 1;
place = "{-131, 82}";
type = Stem;
},
{
horizontal = 1;
place = "{1687, 82}";
type = Stem;
},
{
place = "{261, 82}";
type = Stem;
},
{
place = "{1705, 81}";
type = Stem;
}
);
layerId = "44EE3EC1-6A7A-489F-A767-F91A9060DD57";
paths = (
{
closed = 1;
nodes = (
"1751 -61 LINE",
"1751 1597 LINE",
"297 1597 LINE",
"297 -61 LINE"
);
},
{
closed = 1;
nodes = (
"420 61 LINE",
"420 1475 LINE",
"1628 1475 LINE",
"1628 61 LINE"
);
}
);
width = 2048;
}
);
note = uniE62A;
unicode = E62A;
},
{
glyphname = uniE62B;
lastChange = "2018-07-14 05:02:01 +0000";
layers = (
{
hints = (
{
horizontal = 1;
place = "{-7, 81}";
type = Stem;
},
{
horizontal = 1;
place = "{-8, 21}";
target = up;
type = BottomGhost;
},
{
horizontal = 1;
place = "{1036, 82}";
type = Stem;
},
{
horizontal = 1;
place = "{1564, 82}";
type = Stem;
},
{
horizontal = 1;
place = "{1647, -20}";
target = down;
type = TopGhost;
},
{
place = "{516, 85}";
type = Stem;
},
{
place = "{1405, 85}";
type = Stem;
}
);
layerId = "44EE3EC1-6A7A-489F-A767-F91A9060DD57";
paths = (
{
closed = 1;
nodes = (
"1218 688 LINE",
"1243 697 OFFCURVE",
"1267 708 OFFCURVE",
"1291 721 CURVE SMOOTH",
"1372 762 OFFCURVE",
"1445 822 OFFCURVE",
"1506 898 CURVE SMOOTH",
"1631 1052 OFFCURVE",
"1700 1261 OFFCURVE",
"1700 1485 CURVE SMOOTH",
"1700 1546 LINE",
"348 1546 LINE",
"348 1485 LINE SMOOTH",
"348 1261 OFFCURVE",
"417 1052 OFFCURVE",
"542 898 CURVE SMOOTH",
"603 822 OFFCURVE",
"676 762 OFFCURVE",
"757 721 CURVE SMOOTH",
"779 709 OFFCURVE",
"801 699 OFFCURVE",
"824 690 CURVE",
"129 -61 LINE",
"1911 -61 LINE"
);
},
{
closed = 1;
nodes = (
"1575 1423 LINE",
"1564 1251 OFFCURVE",
"1507 1094 OFFCURVE",
"1411 976 CURVE SMOOTH",
"1308 848 OFFCURVE",
"1170 778 OFFCURVE",
"1024 778 CURVE SMOOTH",
"878 778 OFFCURVE",
"740 848 OFFCURVE",
"637 976 CURVE SMOOTH",
"541 1094 OFFCURVE",
"484 1251 OFFCURVE",
"473 1423 CURVE"
);
},
{
closed = 1;
nodes = (
"1042 655 OFFCURVE",
"1061 655 OFFCURVE",
"1079 657 CURVE",
"1630 61 LINE",
"410 61 LINE",
"961 658 LINE",
"982 656 OFFCURVE",
"1003 655 OFFCURVE",
"1024 655 CURVE SMOOTH"
);
}
);
width = 2048;
}
);
note = uniE62B;
unicode = E62B;
},
{
glyphname = uniE62C;
lastChange = "2018-07-14 05:02:01 +0000";
layers = (
{
hints = (
{
horizontal = 1;
place = "{626, 82}";
type = Stem;
},
{
horizontal = 1;
place = "{887, 125}";
type = Stem;
},
{
place = "{961, 126}";
type = Stem;
}
);
layerId = "44EE3EC1-6A7A-489F-A767-F91A9060DD57";
paths = (
{
closed = 1;
nodes = (
"1894 399 LINE",
"1894 522 LINE",
"154 522 LINE",
"154 399 LINE"
);
},
{
closed = 1;
nodes = (
"1152 1171 OFFCURVE",
"1095 1229 OFFCURVE",
"1024 1229 CURVE SMOOTH",
"953 1229 OFFCURVE",
"896 1171 OFFCURVE",
"896 1101 CURVE SMOOTH",
"896 1030 OFFCURVE",
"953 973 OFFCURVE",
"1024 973 CURVE SMOOTH",
"1095 973 OFFCURVE",
"1152 1030 OFFCURVE",
"1152 1101 CURVE SMOOTH"
);
}
);
width = 2048;
}
);
note = uniE62C;
unicode = E62C;
},
{
glyphname = uniE62D;
lastChange = "2018-07-14 05:02:01 +0000";
layers = (
{
hints = (
{
horizontal = 1;
place = "{124, 21}";
target = up;
type = BottomGhost;
},
{
horizontal = 1;
place = "{1432, 82}";
type = Stem;
}
);
layerId = "44EE3EC1-6A7A-489F-A767-F91A9060DD57";
paths = (
{
closed = 1;
nodes = (
"625 794 LINE SMOOTH",
"625 1197 OFFCURVE",
"884 1526 OFFCURVE",
"1203 1526 CURVE SMOOTH",
"1522 1526 OFFCURVE",
"1782 1197 OFFCURVE",
"1782 794 CURVE SMOOTH",
"1782 -51 LINE",
"1905 -51 LINE",
"1905 794 LINE SMOOTH",
"1905 1019 OFFCURVE",
"1833 1232 OFFCURVE",
"1704 1393 CURVE SMOOTH",
"1639 1473 OFFCURVE",
"1564 1535 OFFCURVE",
"1481 1579 CURVE SMOOTH",
"1393 1625 OFFCURVE",
"1300 1649 OFFCURVE",
"1203 1649 CURVE SMOOTH",
"1107 1649 OFFCURVE",
"1013 1625 OFFCURVE",
"925 1579 CURVE SMOOTH",
"842 1535 OFFCURVE",
"767 1473 OFFCURVE",
"703 1393 CURVE SMOOTH",
"573 1232 OFFCURVE",
"502 1019 OFFCURVE",
"502 794 CURVE SMOOTH",
"502 199 LINE",
"146 555 LINE",
"59 469 LINE",
"579 -51 LINE",
"625 -51 LINE"
);
}
);
width = 2048;
}
);
note = uniE62D;
unicode = E62D;
},
{
glyphname = uniE62E;
lastChange = "2018-07-14 05:02:01 +0000";
layers = (
{
hints = (
{
place = "{102, 82}";
type = Stem;
},
{
place = "{961, 126}";
type = Stem;
},
{
place = "{1863, 82}";
type = Stem;
}
);
layerId = "44EE3EC1-6A7A-489F-A767-F91A9060DD57";
paths = (
{
closed = 1;
nodes = (
"1263 92 OFFCURVE",
"1489 166 OFFCURVE",
"1659 300 CURVE SMOOTH",
"1744 367 OFFCURVE",
"1810 444 OFFCURVE",
"1857 531 CURVE SMOOTH",
"1905 622 OFFCURVE",
"1930 719 OFFCURVE",
"1930 819 CURVE SMOOTH",
"1930 919 OFFCURVE",
"1905 1016 OFFCURVE",
"1857 1107 CURVE SMOOTH",
"1810 1194 OFFCURVE",
"1744 1272 OFFCURVE",
"1659 1338 CURVE SMOOTH",
"1489 1472 OFFCURVE",
"1263 1546 OFFCURVE",
"1024 1546 CURVE SMOOTH",
"785 1546 OFFCURVE",
"559 1472 OFFCURVE",
"389 1338 CURVE SMOOTH",
"304 1272 OFFCURVE",
"238 1194 OFFCURVE",
"191 1107 CURVE SMOOTH",
"143 1016 OFFCURVE",
"118 919 OFFCURVE",
"118 819 CURVE SMOOTH",
"118 719 OFFCURVE",
"143 622 OFFCURVE",
"191 531 CURVE SMOOTH",
"238 444 OFFCURVE",
"304 367 OFFCURVE",
"389 300 CURVE SMOOTH",
"559 166 OFFCURVE",
"785 92 OFFCURVE",
"1024 92 CURVE SMOOTH"
);
},
{
closed = 1;
nodes = (
"1456 1423 OFFCURVE",
"1807 1152 OFFCURVE",
"1807 819 CURVE SMOOTH",
"1807 486 OFFCURVE",
"1456 215 OFFCURVE",
"1024 215 CURVE SMOOTH",
"592 215 OFFCURVE",
"241 486 OFFCURVE",
"241 819 CURVE SMOOTH",
"241 1152 OFFCURVE",
"592 1423 OFFCURVE",
"1024 1423 CURVE SMOOTH"
);
},
{
closed = 1;
nodes = (
"1152 890 OFFCURVE",
"1095 947 OFFCURVE",
"1024 947 CURVE SMOOTH",
"953 947 OFFCURVE",
"896 890 OFFCURVE",
"896 819 CURVE SMOOTH",
"896 749 OFFCURVE",
"953 691 OFFCURVE",
"1024 691 CURVE SMOOTH",
"1095 691 OFFCURVE",
"1152 749 OFFCURVE",
"1152 819 CURVE SMOOTH"
);
}
);
width = 2048;
}
);
note = uniE62E;
unicode = E62E;
},
{
glyphname = uniE62F;
lastChange = "2018-07-14 05:02:01 +0000";
layers = (
{
hints = (
{
horizontal = 1;
place = "{-27, 82}";
type = Stem;
},
{
horizontal = 1;
place = "{1667, -20}";
target = down;
type = TopGhost;
},
{
place = "{466, 81}";
type = Stem;
},
{
place = "{1501, 82}";
type = Stem;
}
);
layerId = "44EE3EC1-6A7A-489F-A767-F91A9060DD57";
paths = (
{
closed = 1;
nodes = (
"195 778 LINE SMOOTH",
"195 666 OFFCURVE",
"216 558 OFFCURVE",
"260 455 CURVE SMOOTH",
"301 357 OFFCURVE",
"361 268 OFFCURVE",
"437 192 CURVE SMOOTH",
"514 116 OFFCURVE",
"602 56 OFFCURVE",
"701 14 CURVE SMOOTH",
"803 -29 OFFCURVE",
"912 -51 OFFCURVE",
"1024 -51 CURVE SMOOTH",
"1136 -51 OFFCURVE",
"1245 -29 OFFCURVE",
"1347 14 CURVE SMOOTH",
"1446 56 OFFCURVE",
"1534 116 OFFCURVE",
"1611 192 CURVE SMOOTH",
"1687 268 OFFCURVE",
"1747 357 OFFCURVE",
"1788 455 CURVE SMOOTH",
"1832 558 OFFCURVE",
"1853 666 OFFCURVE",
"1853 778 CURVE SMOOTH",
"1853 1597 LINE",
"1731 1597 LINE",
"1731 778 LINE SMOOTH",
"1731 589 OFFCURVE",
"1657 412 OFFCURVE",
"1524 279 CURVE SMOOTH",
"1390 145 OFFCURVE",
"1213 72 OFFCURVE",
"1024 72 CURVE SMOOTH",
"835 72 OFFCURVE",
"658 145 OFFCURVE",
"524 279 CURVE SMOOTH",
"391 412 OFFCURVE",
"317 589 OFFCURVE",
"317 778 CURVE SMOOTH",
"317 1597 LINE",
"195 1597 LINE"
);
}
);
width = 2048;
}
);
note = uniE62F;
unicode = E62F;
},
{
glyphname = uniE630;
lastChange = "2018-07-14 05:02:01 +0000";
layers = (
{
hints = (
{
horizontal = 1;
place = "{85, 82}";
type = Stem;
},
{
horizontal = 1;
place = "{785, 82}";
type = Stem;
},
{
horizontal = 1;
place = "{1471, 82}";
type = Stem;
},
{
place = "{290, 82}";
type = Stem;
},
{
place = "{974, 82}";
type = Stem;
},
{
place = "{1676, 82}";
type = Stem;
}
);
layerId = "44EE3EC1-6A7A-489F-A767-F91A9060DD57";
paths = (
{
closed = 1;
nodes = (
"1146 -113 OFFCURVE",
"1265 -89 OFFCURVE",
"1377 -41 CURVE SMOOTH",
"1485 4 OFFCURVE",
"1582 70 OFFCURVE",
"1665 153 CURVE SMOOTH",
"1748 236 OFFCURVE",
"1813 333 OFFCURVE",
"1859 441 CURVE SMOOTH",
"1906 553 OFFCURVE",
"1930 671 OFFCURVE",
"1930 794 CURVE SMOOTH",
"1930 916 OFFCURVE",
"1906 1035 OFFCURVE",
"1859 1146 CURVE SMOOTH",
"1813 1254 OFFCURVE",
"1748 1351 OFFCURVE",
"1665 1434 CURVE SMOOTH",
"1582 1518 OFFCURVE",
"1485 1583 OFFCURVE",
"1377 1629 CURVE SMOOTH",
"1265 1676 OFFCURVE",
"1146 1700 OFFCURVE",
"1024 1700 CURVE SMOOTH",
"902 1700 OFFCURVE",
"783 1676 OFFCURVE",
"671 1629 CURVE SMOOTH",
"563 1583 OFFCURVE",
"466 1518 OFFCURVE",
"383 1434 CURVE SMOOTH",
"300 1351 OFFCURVE",
"235 1254 OFFCURVE",
"189 1146 CURVE SMOOTH",
"142 1035 OFFCURVE",
"118 916 OFFCURVE",
"118 794 CURVE SMOOTH",
"118 671 OFFCURVE",
"142 553 OFFCURVE",
"189 441 CURVE SMOOTH",
"235 333 OFFCURVE",
"300 236 OFFCURVE",
"383 153 CURVE SMOOTH",
"466 70 OFFCURVE",
"563 4 OFFCURVE",
"671 -41 CURVE SMOOTH",
"783 -89 OFFCURVE",
"902 -113 OFFCURVE",
"1024 -113 CURVE SMOOTH"
);
},
{
closed = 1;
nodes = (
"330 380 OFFCURVE",
"250 562 OFFCURVE",
"241 759 CURVE",
"964 759 LINE",
"964 12 LINE",
"777 26 OFFCURVE",
"604 106 OFFCURVE",
"470 240 CURVE SMOOTH"
);
},
{
closed = 1;
nodes = (
"1445 107 OFFCURVE",
"1272 27 OFFCURVE",
"1087 12 CURVE",
"1087 759 LINE",
"1806 759 LINE",
"1798 562 OFFCURVE",
"1718 380 OFFCURVE",
"1578 240 CURVE SMOOTH"
);
},
{
closed = 1;
nodes = (
"604 1481 OFFCURVE",
"777 1560 OFFCURVE",
"964 1574 CURVE",
"964 882 LINE",
"246 882 LINE",
"265 1058 OFFCURVE",
"343 1221 OFFCURVE",
"470 1348 CURVE SMOOTH"
);
},
{
closed = 1;
nodes = (
"1705 1221 OFFCURVE",
"1782 1058 OFFCURVE",
"1802 882 CURVE",
"1087 882 LINE",
"1087 1574 LINE",
"1272 1560 OFFCURVE",
"1445 1480 OFFCURVE",
"1578 1348 CURVE SMOOTH"
);
}
);
width = 2048;
}
);
note = uniE630;
unicode = E630;
},
{
glyphname = uniE631;
lastChange = "2018-07-14 05:02:01 +0000";
layers = (
{
hints = (
{
horizontal = 1;
place = "{-43, 82}";
type = Stem;
},
{
horizontal = 1;
place = "{310, 82}";
type = Stem;
},
{
horizontal = 1;
place = "{1599, 82}";
type = Stem;
},
{
place = "{337, 83}";
type = Stem;
},
{
place = "{806, 83}";
type = Stem;
},
{
place = "{1160, 81}";
type = Stem;
},
{
place = "{1627, 81}";
type = Stem;
}
);
layerId = "44EE3EC1-6A7A-489F-A767-F91A9060DD57";
paths = (
{
closed = 1;
nodes = (
"1146 -113 OFFCURVE",
"1262 -79 OFFCURVE",
"1350 -19 CURVE SMOOTH",
"1395 11 OFFCURVE",
"1431 48 OFFCURVE",
"1456 88 CURVE SMOOTH",
"1484 133 OFFCURVE",
"1498 181 OFFCURVE",
"1498 230 CURVE SMOOTH",
"1498 302 OFFCURVE",
"1468 370 OFFCURVE",
"1414 426 CURVE",
"1483 456 OFFCURVE",
"1547 495 OFFCURVE",
"1605 541 CURVE SMOOTH",
"1683 603 OFFCURVE",
"1743 675 OFFCURVE",
"1786 756 CURVE SMOOTH",
"1831 841 OFFCURVE",
"1853 931 OFFCURVE",
"1853 1024 CURVE SMOOTH",
"1853 1117 OFFCURVE",
"1831 1207 OFFCURVE",
"1786 1292 CURVE SMOOTH",
"1743 1373 OFFCURVE",
"1683 1445 OFFCURVE",
"1605 1507 CURVE SMOOTH",
"1450 1631 OFFCURVE",
"1243 1700 OFFCURVE",
"1024 1700 CURVE SMOOTH",
"805 1700 OFFCURVE",
"598 1631 OFFCURVE",
"443 1507 CURVE SMOOTH",
"365 1445 OFFCURVE",
"305 1373 OFFCURVE",
"262 1292 CURVE SMOOTH",
"217 1207 OFFCURVE",
"195 1117 OFFCURVE",
"195 1024 CURVE SMOOTH",
"195 931 OFFCURVE",
"217 841 OFFCURVE",
"262 756 CURVE SMOOTH",
"305 675 OFFCURVE",
"365 603 OFFCURVE",
"443 541 CURVE SMOOTH",
"500 495 OFFCURVE",
"564 456 OFFCURVE",
"634 426 CURVE",
"579 370 OFFCURVE",
"550 302 OFFCURVE",
"550 230 CURVE SMOOTH",
"550 181 OFFCURVE",
"564 133 OFFCURVE",
"592 88 CURVE SMOOTH",
"617 48 OFFCURVE",
"653 11 OFFCURVE",
"698 -19 CURVE SMOOTH",
"786 -79 OFFCURVE",
"902 -113 OFFCURVE",
"1024 -113 CURVE SMOOTH"
);
},
{
closed = 1;
nodes = (
"1414 1577 OFFCURVE",
"1731 1329 OFFCURVE",
"1731 1024 CURVE SMOOTH",
"1731 719 OFFCURVE",
"1414 471 OFFCURVE",
"1024 471 CURVE SMOOTH",
"634 471 OFFCURVE",
"317 719 OFFCURVE",
"317 1024 CURVE SMOOTH",
"317 1329 OFFCURVE",
"634 1577 OFFCURVE",
"1024 1577 CURVE SMOOTH"
);
},
{
closed = 1;
nodes = (
"1111 348 OFFCURVE",
"1197 359 OFFCURVE",
"1278 380 CURVE",
"1340 339 OFFCURVE",
"1375 285 OFFCURVE",
"1375 230 CURVE SMOOTH",
"1375 176 OFFCURVE",
"1342 123 OFFCURVE",
"1281 82 CURVE SMOOTH",
"1213 36 OFFCURVE",
"1122 10 OFFCURVE",
"1024 10 CURVE SMOOTH",
"926 10 OFFCURVE",
"835 36 OFFCURVE",
"767 82 CURVE SMOOTH",
"706 123 OFFCURVE",
"673 176 OFFCURVE",
"673 230 CURVE SMOOTH",
"673 285 OFFCURVE",
"708 339 OFFCURVE",
"769 380 CURVE",
"850 359 OFFCURVE",
"936 348 OFFCURVE",
"1024 348 CURVE SMOOTH"
);
}
);
width = 2048;
}
);
note = uniE631;
unicode = E631;
},
{
glyphname = uniE632;
lastChange = "2018-07-14 05:02:01 +0000";
layers = (
{
hints = (
{
horizontal = 1;
place = "{208, 82}";
type = Stem;
},
{
horizontal = 1;
place = "{1232, 82}";
type = Stem;
},
{
horizontal = 1;
place = "{1430, -20}";
target = down;
type = TopGhost;
},
{
horizontal = 1;
place = "{1431, -20}";
target = down;
type = TopGhost;
},
{
place = "{271, 82}";
type = Stem;
},
{
place = "{465, 82}";
type = Stem;
},
{
place = "{1489, 82}";
type = Stem;
},
{
place = "{1696, 82}";
type = Stem;
}
);
layerId = "44EE3EC1-6A7A-489F-A767-F91A9060DD57";
paths = (
{
closed = 1;
nodes = (
"1136 -113 OFFCURVE",
"1245 -91 OFFCURVE",
"1347 -48 CURVE SMOOTH",
"1446 -6 OFFCURVE",
"1534 54 OFFCURVE",
"1611 130 CURVE SMOOTH",
"1687 206 OFFCURVE",
"1747 295 OFFCURVE",
"1788 394 CURVE SMOOTH",
"1832 496 OFFCURVE",
"1853 605 OFFCURVE",
"1853 717 CURVE SMOOTH",
"1853 829 OFFCURVE",
"1832 937 OFFCURVE",
"1788 1040 CURVE SMOOTH",
"1765 1093 OFFCURVE",
"1737 1144 OFFCURVE",
"1704 1191 CURVE",
"1865 1326 OFFCURVE",
"1956 1503 OFFCURVE",
"1956 1690 CURVE",
"1833 1690 LINE",
"1833 1540 OFFCURVE",
"1758 1397 OFFCURVE",
"1626 1287 CURVE",
"1611 1303 LINE SMOOTH",
"1534 1380 OFFCURVE",
"1446 1439 OFFCURVE",
"1347 1481 CURVE SMOOTH",
"1245 1524 OFFCURVE",
"1136 1546 OFFCURVE",
"1024 1546 CURVE SMOOTH",
"912 1546 OFFCURVE",
"803 1524 OFFCURVE",
"701 1481 CURVE SMOOTH",
"602 1439 OFFCURVE",
"514 1380 OFFCURVE",
"437 1303 CURVE SMOOTH",
"432 1298 OFFCURVE",
"426 1293 OFFCURVE",
"421 1287 CURVE",
"288 1398 OFFCURVE",
"215 1540 OFFCURVE",
"215 1690 CURVE",
"92 1690 LINE",
"92 1589 OFFCURVE",
"118 1492 OFFCURVE",
"169 1400 CURVE SMOOTH",
"211 1322 OFFCURVE",
"270 1253 OFFCURVE",
"343 1191 CURVE",
"310 1144 OFFCURVE",
"282 1093 OFFCURVE",
"260 1040 CURVE SMOOTH",
"216 937 OFFCURVE",
"195 829 OFFCURVE",
"195 717 CURVE SMOOTH",
"195 605 OFFCURVE",
"216 496 OFFCURVE",
"260 394 CURVE SMOOTH",
"301 295 OFFCURVE",
"361 206 OFFCURVE",
"437 130 CURVE SMOOTH",
"514 54 OFFCURVE",
"602 -6 OFFCURVE",
"701 -48 CURVE SMOOTH",
"803 -91 OFFCURVE",
"912 -113 OFFCURVE",
"1024 -113 CURVE SMOOTH"
);
},
{
closed = 1;
nodes = (
"1213 1423 OFFCURVE",
"1390 1350 OFFCURVE",
"1524 1217 CURVE SMOOTH",
"1657 1083 OFFCURVE",
"1731 906 OFFCURVE",
"1731 717 CURVE SMOOTH",
"1731 528 OFFCURVE",
"1657 351 OFFCURVE",
"1524 217 CURVE SMOOTH",
"1390 84 OFFCURVE",
"1213 10 OFFCURVE",
"1024 10 CURVE SMOOTH",
"835 10 OFFCURVE",
"658 84 OFFCURVE",
"524 217 CURVE SMOOTH",
"391 351 OFFCURVE",
"317 528 OFFCURVE",
"317 717 CURVE SMOOTH",
"317 906 OFFCURVE",
"391 1083 OFFCURVE",
"524 1217 CURVE SMOOTH",
"658 1350 OFFCURVE",
"835 1423 OFFCURVE",
"1024 1423 CURVE SMOOTH"
);
}
);
width = 2048;
}
);
note = uniE632;
unicode = E632;
},
{
glyphname = uniE633;
lastChange = "2018-07-14 05:02:01 +0000";
layers = (
{
hints = (
{
horizontal = 1;
place = "{89, 21}";
target = up;
type = BottomGhost;
},
{
horizontal = 1;
place = "{186, 82}";
type = Stem;
},
{
horizontal = 1;
place = "{1210, 82}";
type = Stem;
},
{
horizontal = 1;
place = "{1467, 82}";
type = Stem;
},
{
place = "{140, 81}";
type = Stem;
},
{
place = "{457, 82}";
type = Stem;
},
{
place = "{1481, 82}";
type = Stem;
}
);
layerId = "44EE3EC1-6A7A-489F-A767-F91A9060DD57";
paths = (
{
closed = 1;
nodes = (
"1184 92 OFFCURVE",
"1334 154 OFFCURVE",
"1448 268 CURVE SMOOTH",
"1561 381 OFFCURVE",
"1623 531 OFFCURVE",
"1623 691 CURVE SMOOTH",
"1623 851 OFFCURVE",
"1561 1002 OFFCURVE",
"1448 1115 CURVE SMOOTH",
"1334 1228 OFFCURVE",
"1184 1290 OFFCURVE",
"1024 1290 CURVE SMOOTH",
"864 1290 OFFCURVE",
"714 1228 OFFCURVE",
"600 1115 CURVE SMOOTH",
"487 1002 OFFCURVE",
"425 851 OFFCURVE",
"425 691 CURVE SMOOTH",
"425 531 OFFCURVE",
"487 381 OFFCURVE",
"600 268 CURVE SMOOTH",
"714 154 OFFCURVE",
"864 92 OFFCURVE",
"1024 92 CURVE SMOOTH"
);
},
{
closed = 1;
nodes = (
"1151 1167 OFFCURVE",
"1271 1118 OFFCURVE",
"1361 1028 CURVE SMOOTH",
"1451 938 OFFCURVE",
"1500 818 OFFCURVE",
"1500 691 CURVE SMOOTH",
"1500 564 OFFCURVE",
"1451 444 OFFCURVE",
"1361 355 CURVE SMOOTH",
"1271 265 OFFCURVE",
"1151 215 OFFCURVE",
"1024 215 CURVE SMOOTH",
"897 215 OFFCURVE",
"777 265 OFFCURVE",
"687 355 CURVE SMOOTH",
"597 444 OFFCURVE",
"548 564 OFFCURVE",
"548 691 CURVE SMOOTH",
"548 818 OFFCURVE",
"597 938 OFFCURVE",
"687 1028 CURVE SMOOTH",
"777 1118 OFFCURVE",
"897 1167 OFFCURVE",
"1024 1167 CURVE SMOOTH"
);
},
{
closed = 1;
nodes = (
"1905 -51 LINE",
"1905 768 LINE SMOOTH",
"1905 880 OFFCURVE",
"1881 990 OFFCURVE",
"1835 1092 CURVE SMOOTH",
"1790 1191 OFFCURVE",
"1726 1280 OFFCURVE",
"1645 1356 CURVE SMOOTH",
"1564 1432 OFFCURVE",
"1470 1491 OFFCURVE",
"1366 1533 CURVE SMOOTH",
"1257 1576 OFFCURVE",
"1142 1597 OFFCURVE",
"1024 1597 CURVE SMOOTH",
"906 1597 OFFCURVE",
"791 1576 OFFCURVE",
"682 1533 CURVE SMOOTH",
"578 1491 OFFCURVE",
"484 1432 OFFCURVE",
"403 1356 CURVE SMOOTH",
"322 1280 OFFCURVE",
"258 1191 OFFCURVE",
"213 1092 CURVE SMOOTH",
"167 990 OFFCURVE",
"143 880 OFFCURVE",
"143 768 CURVE SMOOTH",
"143 -51 LINE",
"266 -51 LINE",
"266 768 LINE SMOOTH",
"266 956 OFFCURVE",
"344 1133 OFFCURVE",
"487 1266 CURVE SMOOTH",
"630 1401 OFFCURVE",
"821 1475 OFFCURVE",
"1024 1475 CURVE SMOOTH",
"1227 1475 OFFCURVE",
"1418 1401 OFFCURVE",
"1561 1266 CURVE SMOOTH",
"1704 1133 OFFCURVE",
"1782 956 OFFCURVE",
"1782 768 CURVE SMOOTH",
"1782 -51 LINE"
);
}
);
width = 2048;
}
);
note = uniE633;
unicode = E633;
},
{
glyphname = uniE634;
lastChange = "2018-07-14 05:02:01 +0000";
layers = (
{
hints = (
{
horizontal = 1;
place = "{-70, 21}";
target = up;
type = BottomGhost;
},
{
place = "{624, 81}";
type = Stem;
}
);
layerId = "44EE3EC1-6A7A-489F-A767-F91A9060DD57";
paths = (
{
closed = 1;
nodes = (
"420 537 LINE",
"449 493 OFFCURVE",
"483 452 OFFCURVE",
"521 415 CURVE SMOOTH",
"591 346 OFFCURVE",
"672 292 OFFCURVE",
"763 254 CURVE SMOOTH",
"857 215 OFFCURVE",
"956 195 OFFCURVE",
"1059 195 CURVE SMOOTH",
"1162 195 OFFCURVE",
"1262 215 OFFCURVE",
"1356 254 CURVE SMOOTH",
"1447 292 OFFCURVE",
"1528 346 OFFCURVE",
"1598 415 CURVE SMOOTH",
"1668 484 OFFCURVE",
"1723 565 OFFCURVE",
"1761 654 CURVE SMOOTH",
"1801 747 OFFCURVE",
"1821 846 OFFCURVE",
"1821 948 CURVE SMOOTH",
"1821 1049 OFFCURVE",
"1801 1148 OFFCURVE",
"1761 1241 CURVE SMOOTH",
"1723 1330 OFFCURVE",
"1668 1411 OFFCURVE",
"1598 1480 CURVE SMOOTH",
"1528 1549 OFFCURVE",
"1447 1603 OFFCURVE",
"1356 1641 CURVE SMOOTH",
"1262 1680 OFFCURVE",
"1162 1700 OFFCURVE",
"1059 1700 CURVE SMOOTH",
"956 1700 OFFCURVE",
"857 1680 OFFCURVE",
"763 1641 CURVE SMOOTH",
"672 1603 OFFCURVE",
"591 1549 OFFCURVE",
"521 1480 CURVE SMOOTH",
"451 1411 OFFCURVE",
"395 1330 OFFCURVE",
"357 1241 CURVE SMOOTH",
"320 1156 OFFCURVE",
"300 1065 OFFCURVE",
"297 973 CURVE SMOOTH",
"297 963 LINE",
"297 948 LINE",
"297 -51 LINE",
"420 -51 LINE"
);
},
{
closed = 1;
nodes = (
"1230 1577 OFFCURVE",
"1391 1511 OFFCURVE",
"1512 1392 CURVE SMOOTH",
"1632 1273 OFFCURVE",
"1699 1116 OFFCURVE",
"1699 948 CURVE SMOOTH",
"1699 780 OFFCURVE",
"1632 622 OFFCURVE",
"1512 503 CURVE SMOOTH",
"1391 384 OFFCURVE",
"1230 318 OFFCURVE",
"1059 318 CURVE SMOOTH",
"888 318 OFFCURVE",
"728 384 OFFCURVE",
"607 503 CURVE SMOOTH",
"486 622 OFFCURVE",
"420 780 OFFCURVE",
"420 948 CURVE SMOOTH",
"420 960 LINE SMOOTH",
"423 1123 OFFCURVE",
"489 1276 OFFCURVE",
"607 1392 CURVE SMOOTH",
"728 1511 OFFCURVE",
"888 1577 OFFCURVE",
"1059 1577 CURVE SMOOTH"
);
}
);
width = 2048;
}
);
note = uniE634;
unicode = E634;
},
{
glyphname = uniE635;
lastChange = "2018-07-14 05:02:01 +0000";
layers = (
{
hints = (
{
horizontal = 1;
place = "{29, 21}";
target = up;
type = BottomGhost;
},
{
horizontal = 1;
place = "{503, 82}";
type = Stem;
},
{
horizontal = 1;
place = "{1527, 82}";
type = Stem;
},
{
place = "{236, 82}";
type = Stem;
},
{
place = "{474, 81}";
type = Stem;
},
{
place = "{1498, 81}";
type = Stem;
},
{
place = "{1729, 82}";
type = Stem;
}
);
layerId = "44EE3EC1-6A7A-489F-A767-F91A9060DD57";
paths = (
{
closed = 1;
nodes = (
"215 195 LINE",
"542 195 LINE",
"591 159 OFFCURVE",
"644 130 OFFCURVE",
"701 106 CURVE SMOOTH",
"803 63 OFFCURVE",
"912 41 OFFCURVE",
"1024 41 CURVE SMOOTH",
"1136 41 OFFCURVE",
"1245 63 OFFCURVE",
"1347 106 CURVE SMOOTH",
"1403 130 OFFCURVE",
"1456 159 OFFCURVE",
"1506 195 CURVE",
"1833 195 LINE",
"1833 -51 LINE",
"1956 -51 LINE",
"1956 317 LINE",
"1642 317 LINE",
"1704 385 OFFCURVE",
"1753 463 OFFCURVE",
"1788 547 CURVE SMOOTH",
"1832 650 OFFCURVE",
"1853 758 OFFCURVE",
"1853 870 CURVE SMOOTH",
"1853 982 OFFCURVE",
"1832 1091 OFFCURVE",
"1788 1193 CURVE SMOOTH",
"1747 1292 OFFCURVE",
"1687 1381 OFFCURVE",
"1611 1457 CURVE SMOOTH",
"1534 1533 OFFCURVE",
"1446 1593 OFFCURVE",
"1347 1635 CURVE SMOOTH",
"1245 1678 OFFCURVE",
"1136 1700 OFFCURVE",
"1024 1700 CURVE SMOOTH",
"912 1700 OFFCURVE",
"803 1678 OFFCURVE",
"701 1635 CURVE SMOOTH",
"602 1593 OFFCURVE",
"514 1533 OFFCURVE",
"437 1457 CURVE SMOOTH",
"361 1381 OFFCURVE",
"301 1292 OFFCURVE",
"260 1193 CURVE SMOOTH",
"216 1091 OFFCURVE",
"195 982 OFFCURVE",
"195 870 CURVE SMOOTH",
"195 758 OFFCURVE",
"216 650 OFFCURVE",
"260 547 CURVE SMOOTH",
"295 463 OFFCURVE",
"344 385 OFFCURVE",
"405 317 CURVE",
"92 317 LINE",
"92 -51 LINE",
"215 -51 LINE"
);
},
{
closed = 1;
nodes = (
"1213 1577 OFFCURVE",
"1390 1503 OFFCURVE",
"1524 1370 CURVE SMOOTH",
"1657 1237 OFFCURVE",
"1731 1059 OFFCURVE",
"1731 870 CURVE SMOOTH",
"1731 682 OFFCURVE",
"1657 504 OFFCURVE",
"1524 371 CURVE SMOOTH",
"1390 237 OFFCURVE",
"1213 164 OFFCURVE",
"1024 164 CURVE SMOOTH",
"835 164 OFFCURVE",
"658 237 OFFCURVE",
"524 371 CURVE SMOOTH",
"391 504 OFFCURVE",
"317 682 OFFCURVE",
"317 870 CURVE SMOOTH",
"317 1059 OFFCURVE",
"391 1237 OFFCURVE",
"524 1370 CURVE SMOOTH",
"658 1503 OFFCURVE",
"835 1577 OFFCURVE",
"1024 1577 CURVE SMOOTH"
);
}
);
width = 2048;
}
);
note = uniE635;
unicode = E635;
},
{
glyphname = uniE636;
lastChange = "2018-07-14 05:02:01 +0000";
layers = (
{
hints = (
{
horizontal = 1;
place = "{-93, 21}";
target = up;
type = BottomGhost;
},
{
horizontal = 1;
place = "{887, 83}";
type = Stem;
},
{
horizontal = 1;
place = "{1120, 82}";
type = Stem;
},
{
horizontal = 1;
place = "{1648, 82}";
type = Stem;
},
{
horizontal = 1;
place = "{1731, -20}";
target = down;
type = TopGhost;
},
{
place = "{656, 85}";
type = Stem;
},
{
place = "{1545, 85}";
type = Stem;
}
);
layerId = "44EE3EC1-6A7A-489F-A767-F91A9060DD57";
paths = (
{
closed = 1;
nodes = (
"1631 1114 OFFCURVE",
"1700 1322 OFFCURVE",
"1700 1546 CURVE SMOOTH",
"1700 1608 LINE",
"348 1608 LINE",
"348 1546 LINE SMOOTH",
"348 1322 OFFCURVE",
"417 1114 OFFCURVE",
"542 960 CURVE SMOOTH",
"601 887 OFFCURVE",
"669 829 OFFCURVE",
"746 788 CURVE",
"667 761 OFFCURVE",
"598 722 OFFCURVE",
"540 671 CURVE SMOOTH",
"475 614 OFFCURVE",
"425 542 OFFCURVE",
"391 457 CURVE SMOOTH",
"361 382 OFFCURVE",
"344 296 OFFCURVE",
"339 202 CURVE",
"147 401 LINE",
"58 316 LINE",
"413 -51 LINE",
"461 -51 LINE",
"461 154 LINE SMOOTH",
"461 360 OFFCURVE",
"534 707 OFFCURVE",
"1019 707 CURVE SMOOTH",
"1504 707 OFFCURVE",
"1577 360 OFFCURVE",
"1577 154 CURVE SMOOTH",
"1577 -51 LINE",
"1700 -51 LINE",
"1700 154 LINE SMOOTH",
"1700 267 OFFCURVE",
"1682 369 OFFCURVE",
"1647 457 CURVE SMOOTH",
"1613 542 OFFCURVE",
"1563 614 OFFCURVE",
"1498 671 CURVE SMOOTH",
"1441 721 OFFCURVE",
"1374 759 OFFCURVE",
"1298 786 CURVE",
"1376 827 OFFCURVE",
"1446 886 OFFCURVE",
"1506 960 CURVE SMOOTH"
);
},
{
closed = 1;
nodes = (
"878 840 OFFCURVE",
"740 910 OFFCURVE",
"637 1037 CURVE SMOOTH",
"541 1155 OFFCURVE",
"484 1313 OFFCURVE",
"473 1485 CURVE",
"1575 1485 LINE",
"1564 1313 OFFCURVE",
"1507 1155 OFFCURVE",
"1411 1037 CURVE SMOOTH",
"1308 910 OFFCURVE",
"1170 840 OFFCURVE",
"1024 840 CURVE SMOOTH"
);
}
);
width = 2048;
}
);
note = uniE636;
unicode = E636;
},
{
glyphname = uniE637;
lastChange = "2018-07-14 05:02:01 +0000";
layers = (
{
hints = (
{
horizontal = 1;
place = "{134, 82}";
type = Stem;
},
{
horizontal = 1;
place = "{1423, 82}";
type = Stem;
},
{
place = "{337, 83}";
type = Stem;
},
{
place = "{1627, 81}";
type = Stem;
}
);
layerId = "44EE3EC1-6A7A-489F-A767-F91A9060DD57";
paths = (
{
closed = 1;
nodes = (
"1146 -113 OFFCURVE",
"1265 -89 OFFCURVE",
"1377 -41 CURVE SMOOTH",
"1485 4 OFFCURVE",
"1582 70 OFFCURVE",
"1665 153 CURVE SMOOTH",
"1748 236 OFFCURVE",
"1813 333 OFFCURVE",
"1859 441 CURVE SMOOTH",
"1906 553 OFFCURVE",
"1930 671 OFFCURVE",
"1930 794 CURVE SMOOTH",
"1930 916 OFFCURVE",
"1906 1035 OFFCURVE",
"1859 1146 CURVE SMOOTH",
"1813 1254 OFFCURVE",
"1748 1351 OFFCURVE",
"1665 1434 CURVE SMOOTH",
"1582 1518 OFFCURVE",
"1485 1583 OFFCURVE",
"1377 1629 CURVE SMOOTH",
"1265 1676 OFFCURVE",
"1146 1700 OFFCURVE",
"1024 1700 CURVE SMOOTH",
"902 1700 OFFCURVE",
"783 1676 OFFCURVE",
"671 1629 CURVE SMOOTH",
"563 1583 OFFCURVE",
"466 1518 OFFCURVE",
"383 1434 CURVE SMOOTH",
"300 1351 OFFCURVE",
"235 1254 OFFCURVE",
"189 1146 CURVE SMOOTH",
"142 1035 OFFCURVE",
"118 916 OFFCURVE",
"118 794 CURVE SMOOTH",
"118 671 OFFCURVE",
"142 553 OFFCURVE",
"189 441 CURVE SMOOTH",
"235 333 OFFCURVE",
"300 236 OFFCURVE",
"383 153 CURVE SMOOTH",
"466 70 OFFCURVE",
"563 4 OFFCURVE",
"671 -41 CURVE SMOOTH",
"783 -89 OFFCURVE",
"902 -113 OFFCURVE",
"1024 -113 CURVE SMOOTH"
);
},
{
closed = 1;
nodes = (
"1233 1577 OFFCURVE",
"1430 1495 OFFCURVE",
"1578 1348 CURVE SMOOTH",
"1726 1200 OFFCURVE",
"1807 1003 OFFCURVE",
"1807 794 CURVE SMOOTH",
"1807 584 OFFCURVE",
"1726 388 OFFCURVE",
"1578 240 CURVE SMOOTH",
"1430 92 OFFCURVE",
"1233 10 OFFCURVE",
"1024 10 CURVE SMOOTH",
"815 10 OFFCURVE",
"618 92 OFFCURVE",
"470 240 CURVE SMOOTH",
"322 388 OFFCURVE",
"241 584 OFFCURVE",
"241 794 CURVE SMOOTH",
"241 1003 OFFCURVE",
"322 1200 OFFCURVE",
"470 1348 CURVE SMOOTH",
"618 1495 OFFCURVE",
"815 1577 OFFCURVE",
"1024 1577 CURVE SMOOTH"
);
},
{
closed = 1;
nodes = (
"1341 721 LINE",
"1539 474 LINE",
"1635 550 LINE",
"1420 819 LINE",
"1635 1088 LINE",
"1539 1165 LINE",
"1341 917 LINE",
"1144 1165 LINE",
"1048 1088 LINE",
"1263 819 LINE",
"1048 550 LINE",
"1144 474 LINE"
);
},
{
closed = 1;
nodes = (
"706 721 LINE",
"904 474 LINE",
"1000 550 LINE",
"785 819 LINE",
"1000 1088 LINE",
"904 1165 LINE",
"706 917 LINE",
"509 1165 LINE",
"413 1088 LINE",
"628 819 LINE",
"413 550 LINE",
"509 474 LINE"
);
}
);
width = 2048;
}
);
note = uniE637;
unicode = E637;
},
{
glyphname = uniE638;
lastChange = "2018-07-14 05:02:01 +0000";
layers = (
{
hints = (
{
horizontal = 1;
place = "{86, 82}";
type = Stem;
},
{
horizontal = 1;
place = "{761, 126}";
type = Stem;
},
{
horizontal = 1;
place = "{1472, 82}";
type = Stem;
},
{
place = "{504, 126}";
type = Stem;
},
{
place = "{817, 82}";
type = Stem;
}
);
layerId = "44EE3EC1-6A7A-489F-A767-F91A9060DD57";
paths = (
{
closed = 1;
nodes = (
"1792 -61 LINE",
"1792 61 LINE",
"983 61 LINE",
"983 1475 LINE",
"1792 1475 LINE",
"1792 1597 LINE",
"860 1597 LINE",
"860 -61 LINE"
);
},
{
closed = 1;
nodes = (
"563 839 OFFCURVE",
"506 896 OFFCURVE",
"435 896 CURVE SMOOTH",
"365 896 OFFCURVE",
"307 839 OFFCURVE",
"307 768 CURVE SMOOTH",
"307 697 OFFCURVE",
"365 640 OFFCURVE",
"435 640 CURVE SMOOTH",
"506 640 OFFCURVE",
"563 697 OFFCURVE",
"563 768 CURVE SMOOTH"
);
}
);
width = 2048;
}
);
note = uniE638;
unicode = E638;
},
{
glyphname = uniE639;
lastChange = "2018-07-14 05:02:01 +0000";
layers = (
{
hints = (
{
horizontal = 1;
place = "{71, 82}";
type = Stem;
},
{
horizontal = 1;
place = "{280, 125}";
type = Stem;
},
{
horizontal = 1;
place = "{1131, 82}";
type = Stem;
},
{
horizontal = 1;
place = "{1255, 82}";
type = Stem;
},
{
horizontal = 1;
place = "{1485, 81}";
type = Stem;
},
{
place = "{377, 83}";
type = Stem;
},
{
place = "{465, 83}";
type = Stem;
},
{
place = "{731, 81}";
type = Stem;
},
{
place = "{1234, 82}";
type = Stem;
},
{
place = "{1490, 81}";
type = Stem;
},
{
place = "{1588, 81}";
type = Stem;
}
);
layerId = "44EE3EC1-6A7A-489F-A767-F91A9060DD57";
paths = (
{
closed = 1;
nodes = (
"1125 -113 OFFCURVE",
"1224 -93 OFFCURVE",
"1316 -55 CURVE SMOOTH",
"1406 -19 OFFCURVE",
"1486 34 OFFCURVE",
"1555 101 CURVE SMOOTH",
"1625 168 OFFCURVE",
"1679 246 OFFCURVE",
"1717 334 CURVE SMOOTH",
"1757 424 OFFCURVE",
"1777 520 OFFCURVE",
"1777 619 CURVE SMOOTH",
"1777 720 OFFCURVE",
"1755 818 OFFCURVE",
"1714 910 CURVE",
"1856 968 OFFCURVE",
"1956 1105 OFFCURVE",
"1956 1264 CURVE SMOOTH",
"1956 1476 OFFCURVE",
"1779 1649 OFFCURVE",
"1562 1649 CURVE SMOOTH",
"1369 1649 OFFCURVE",
"1207 1513 OFFCURVE",
"1173 1335 CURVE",
"1124 1345 OFFCURVE",
"1074 1350 OFFCURVE",
"1024 1350 CURVE SMOOTH",
"973 1350 OFFCURVE",
"923 1345 OFFCURVE",
"874 1335 CURVE",
"840 1513 OFFCURVE",
"679 1649 OFFCURVE",
"486 1649 CURVE SMOOTH",
"269 1649 OFFCURVE",
"92 1476 OFFCURVE",
"92 1264 CURVE SMOOTH",
"92 1105 OFFCURVE",
"192 968 OFFCURVE",
"333 910 CURVE",
"292 818 OFFCURVE",
"271 720 OFFCURVE",
"271 619 CURVE SMOOTH",
"271 520 OFFCURVE",
"291 424 OFFCURVE",
"331 334 CURVE SMOOTH",
"369 246 OFFCURVE",
"423 168 OFFCURVE",
"493 101 CURVE SMOOTH",
"562 34 OFFCURVE",
"642 -19 OFFCURVE",
"732 -55 CURVE SMOOTH",
"824 -93 OFFCURVE",
"923 -113 OFFCURVE",
"1024 -113 CURVE SMOOTH"
);
},
{
closed = 1;
nodes = (
"685 880 OFFCURVE",
"849 1024 OFFCURVE",
"877 1209 CURVE",
"925 1221 OFFCURVE",
"974 1227 OFFCURVE",
"1024 1227 CURVE SMOOTH",
"1074 1227 OFFCURVE",
"1123 1221 OFFCURVE",
"1171 1209 CURVE",
"1198 1024 OFFCURVE",
"1363 880 OFFCURVE",
"1562 880 CURVE SMOOTH",
"1572 880 OFFCURVE",
"1582 880 OFFCURVE",
"1593 881 CURVE",
"1633 799 OFFCURVE",
"1654 711 OFFCURVE",
"1654 619 CURVE SMOOTH",
"1654 457 OFFCURVE",
"1588 304 OFFCURVE",
"1470 189 CURVE SMOOTH",
"1351 74 OFFCURVE",
"1193 10 OFFCURVE",
"1024 10 CURVE SMOOTH",
"855 10 OFFCURVE",
"697 74 OFFCURVE",
"578 189 CURVE SMOOTH",
"460 304 OFFCURVE",
"394 457 OFFCURVE",
"394 619 CURVE SMOOTH",
"394 711 OFFCURVE",
"415 799 OFFCURVE",
"455 881 CURVE",
"465 880 OFFCURVE",
"475 880 OFFCURVE",
"486 880 CURVE SMOOTH"
);
},
{
closed = 1;
nodes = (
"636 1526 OFFCURVE",
"758 1409 OFFCURVE",
"758 1264 CURVE SMOOTH",
"758 1120 OFFCURVE",
"636 1003 OFFCURVE",
"486 1003 CURVE SMOOTH",
"337 1003 OFFCURVE",
"215 1120 OFFCURVE",
"215 1264 CURVE SMOOTH",
"215 1409 OFFCURVE",
"337 1526 OFFCURVE",
"486 1526 CURVE SMOOTH"
);
},
{
closed = 1;
nodes = (
"1711 1526 OFFCURVE",
"1833 1409 OFFCURVE",
"1833 1264 CURVE SMOOTH",
"1833 1120 OFFCURVE",
"1711 1003 OFFCURVE",
"1562 1003 CURVE SMOOTH",
"1412 1003 OFFCURVE",
"1290 1120 OFFCURVE",
"1290 1264 CURVE SMOOTH",
"1290 1409 OFFCURVE",
"1412 1526 OFFCURVE",
"1562 1526 CURVE SMOOTH"
);
},
{
closed = 1;
nodes = (
"1152 403 OFFCURVE",
"1095 461 OFFCURVE",
"1024 461 CURVE SMOOTH",
"953 461 OFFCURVE",
"896 403 OFFCURVE",
"896 333 CURVE SMOOTH",
"896 262 OFFCURVE",
"953 205 OFFCURVE",
"1024 205 CURVE SMOOTH",
"1095 205 OFFCURVE",
"1152 262 OFFCURVE",
"1152 333 CURVE SMOOTH"
);
}
);
width = 2048;
}
);
note = uniE639;
unicode = E639;
},
{
glyphname = uniE63A;
lastChange = "2018-07-14 05:02:01 +0000";
layers = (
{
hints = (
{
horizontal = 1;
place = "{-17, 87}";
type = Stem;
},
{
horizontal = 1;
place = "{1568, 87}";
type = Stem;
},
{
place = "{1111, 82}";
type = Stem;
},
{
place = "{1502, 82}";
type = Stem;
}
);
layerId = "44EE3EC1-6A7A-489F-A767-F91A9060DD57";
paths = (
{
closed = 1;
nodes = (
"882 -61 OFFCURVE",
"1020 -39 OFFCURVE",
"1149 4 CURVE SMOOTH",
"1275 46 OFFCURVE",
"1389 107 OFFCURVE",
"1486 184 CURVE SMOOTH",
"1585 263 OFFCURVE",
"1662 354 OFFCURVE",
"1717 456 CURVE SMOOTH",
"1774 563 OFFCURVE",
"1802 676 OFFCURVE",
"1802 794 CURVE SMOOTH",
"1802 911 OFFCURVE",
"1774 1025 OFFCURVE",
"1717 1132 CURVE SMOOTH",
"1662 1233 OFFCURVE",
"1585 1325 OFFCURVE",
"1486 1403 CURVE SMOOTH",
"1389 1480 OFFCURVE",
"1275 1541 OFFCURVE",
"1149 1583 CURVE SMOOTH",
"1020 1627 OFFCURVE",
"882 1649 OFFCURVE",
"740 1649 CURVE SMOOTH",
"581 1649 OFFCURVE",
"428 1621 OFFCURVE",
"285 1567 CURVE SMOOTH",
"260 1557 OFFCURVE",
"244 1532 OFFCURVE",
"246 1505 CURVE SMOOTH",
"248 1478 OFFCURVE",
"267 1456 OFFCURVE",
"293 1449 CURVE",
"384 1428 OFFCURVE",
"470 1396 OFFCURVE",
"548 1353 CURVE SMOOTH",
"624 1311 OFFCURVE",
"691 1260 OFFCURVE",
"747 1202 CURVE SMOOTH",
"861 1083 OFFCURVE",
"921 942 OFFCURVE",
"921 794 CURVE SMOOTH",
"921 645 OFFCURVE",
"861 504 OFFCURVE",
"747 385 CURVE SMOOTH",
"691 327 OFFCURVE",
"624 276 OFFCURVE",
"548 234 CURVE SMOOTH",
"470 191 OFFCURVE",
"384 159 OFFCURVE",
"293 138 CURVE SMOOTH",
"267 132 OFFCURVE",
"248 109 OFFCURVE",
"246 82 CURVE SMOOTH",
"244 55 OFFCURVE",
"260 30 OFFCURVE",
"285 20 CURVE SMOOTH",
"428 -34 OFFCURVE",
"581 -61 OFFCURVE",
"740 -61 CURVE SMOOTH"
);
},
{
closed = 1;
nodes = (
"548 96 OFFCURVE",
"578 110 OFFCURVE",
"607 127 CURVE SMOOTH",
"694 174 OFFCURVE",
"771 233 OFFCURVE",
"836 300 CURVE SMOOTH",
"902 369 OFFCURVE",
"953 445 OFFCURVE",
"989 527 CURVE SMOOTH",
"1026 613 OFFCURVE",
"1044 702 OFFCURVE",
"1044 794 CURVE SMOOTH",
"1044 885 OFFCURVE",
"1026 975 OFFCURVE",
"989 1060 CURVE SMOOTH",
"953 1142 OFFCURVE",
"902 1218 OFFCURVE",
"836 1287 CURVE SMOOTH",
"771 1354 OFFCURVE",
"694 1413 OFFCURVE",
"607 1461 CURVE SMOOTH",
"578 1477 OFFCURVE",
"548 1492 OFFCURVE",
"517 1505 CURVE",
"589 1519 OFFCURVE",
"664 1526 OFFCURVE",
"740 1526 CURVE SMOOTH",
"1258 1526 OFFCURVE",
"1680 1197 OFFCURVE",
"1680 794 CURVE SMOOTH",
"1680 390 OFFCURVE",
"1258 61 OFFCURVE",
"740 61 CURVE SMOOTH",
"664 61 OFFCURVE",
"589 68 OFFCURVE",
"517 82 CURVE"
);
}
);
width = 2048;
}
);
note = uniE63A;
unicode = E63A;
},
{
glyphname = uniE63B;
lastChange = "2018-07-14 05:02:01 +0000";
layers = (
{
hints = (
{
horizontal = 1;
place = "{1109, 82}";
type = Stem;
},
{
horizontal = 1;
place = "{1463, 81}";
type = Stem;
},
{
place = "{378, 82}";
type = Stem;
},
{
place = "{731, 82}";
type = Stem;
},
{
place = "{1235, 81}";
type = Stem;
},
{
place = "{1588, 82}";
type = Stem;
}
);
layerId = "44EE3EC1-6A7A-489F-A767-F91A9060DD57";
paths = (
{
closed = 1;
nodes = (
"1562 831 OFFCURVE",
"1587 833 OFFCURVE",
"1612 838 CURVE",
"1639 768 OFFCURVE",
"1654 695 OFFCURVE",
"1654 619 CURVE SMOOTH",
"1654 457 OFFCURVE",
"1588 304 OFFCURVE",
"1470 189 CURVE SMOOTH",
"1351 74 OFFCURVE",
"1193 10 OFFCURVE",
"1024 10 CURVE SMOOTH",
"855 10 OFFCURVE",
"697 74 OFFCURVE",
"578 189 CURVE SMOOTH",
"460 304 OFFCURVE",
"394 457 OFFCURVE",
"394 619 CURVE SMOOTH",
"394 695 OFFCURVE",
"408 768 OFFCURVE",
"436 838 CURVE",
"460 833 OFFCURVE",
"486 831 OFFCURVE",
"512 831 CURVE SMOOTH",
"743 831 OFFCURVE",
"932 1014 OFFCURVE",
"932 1240 CURVE SMOOTH",
"932 1465 OFFCURVE",
"743 1649 OFFCURVE",
"512 1649 CURVE SMOOTH",
"281 1649 OFFCURVE",
"92 1465 OFFCURVE",
"92 1240 CURVE SMOOTH",
"92 1082 OFFCURVE",
"184 944 OFFCURVE",
"319 876 CURVE",
"287 794 OFFCURVE",
"271 708 OFFCURVE",
"271 619 CURVE SMOOTH",
"271 520 OFFCURVE",
"291 424 OFFCURVE",
"331 334 CURVE SMOOTH",
"369 246 OFFCURVE",
"423 168 OFFCURVE",
"493 101 CURVE SMOOTH",
"562 34 OFFCURVE",
"642 -19 OFFCURVE",
"732 -55 CURVE SMOOTH",
"824 -93 OFFCURVE",
"923 -113 OFFCURVE",
"1024 -113 CURVE SMOOTH",
"1125 -113 OFFCURVE",
"1224 -93 OFFCURVE",
"1316 -55 CURVE SMOOTH",
"1406 -19 OFFCURVE",
"1486 34 OFFCURVE",
"1555 101 CURVE SMOOTH",
"1625 168 OFFCURVE",
"1679 246 OFFCURVE",
"1717 334 CURVE SMOOTH",
"1757 424 OFFCURVE",
"1777 520 OFFCURVE",
"1777 619 CURVE SMOOTH",
"1777 708 OFFCURVE",
"1760 794 OFFCURVE",
"1728 876 CURVE",
"1863 944 OFFCURVE",
"1956 1082 OFFCURVE",
"1956 1240 CURVE SMOOTH",
"1956 1465 OFFCURVE",
"1767 1649 OFFCURVE",
"1536 1649 CURVE SMOOTH",
"1305 1649 OFFCURVE",
"1116 1465 OFFCURVE",
"1116 1240 CURVE SMOOTH",
"1116 1014 OFFCURVE",
"1305 831 OFFCURVE",
"1536 831 CURVE SMOOTH"
);
},
{
closed = 1;
nodes = (
"1700 1526 OFFCURVE",
"1833 1397 OFFCURVE",
"1833 1240 CURVE SMOOTH",
"1833 1082 OFFCURVE",
"1700 954 OFFCURVE",
"1536 954 CURVE SMOOTH",
"1372 954 OFFCURVE",
"1239 1082 OFFCURVE",
"1239 1240 CURVE SMOOTH",
"1239 1397 OFFCURVE",
"1372 1526 OFFCURVE",
"1536 1526 CURVE SMOOTH"
);
},
{
closed = 1;
nodes = (
"676 1526 OFFCURVE",
"809 1397 OFFCURVE",
"809 1240 CURVE SMOOTH",
"809 1082 OFFCURVE",
"676 954 OFFCURVE",
"512 954 CURVE SMOOTH",
"348 954 OFFCURVE",
"215 1082 OFFCURVE",
"215 1240 CURVE SMOOTH",
"215 1397 OFFCURVE",
"348 1526 OFFCURVE",
"512 1526 CURVE SMOOTH"
);
}
);
width = 2048;
}
);
note = uniE63B;
unicode = E63B;
},
{
glyphname = uniE63C;
lastChange = "2018-07-14 05:02:01 +0000";
layers = (
{
hints = (
{
horizontal = 1;
place = "{221, 21}";
target = up;
type = BottomGhost;
},
{
horizontal = 1;
place = "{1417, -20}";
target = down;
type = TopGhost;
}
);
layerId = "44EE3EC1-6A7A-489F-A767-F91A9060DD57";
paths = (
{
closed = 1;
nodes = (
"1085 -51 LINE",
"1085 1587 LINE",
"963 1587 LINE",
"963 -51 LINE"
);
},
{
closed = 1;
nodes = (
"1700 -51 LINE",
"1700 1587 LINE",
"1577 1587 LINE",
"1577 -51 LINE"
);
},
{
closed = 1;
nodes = (
"471 -51 LINE",
"471 1587 LINE",
"348 1587 LINE",
"348 -51 LINE"
);
}
);
width = 2048;
}
);
note = uniE63C;
unicode = E63C;
},
{
glyphname = uniE63D;
lastChange = "2018-07-14 05:02:01 +0000";
layers = (
{
hints = (
{
horizontal = 1;
place = "{221, 324}";
type = Stem;
},
{
horizontal = 1;
place = "{464, 81}";
type = Stem;
},
{
horizontal = 1;
place = "{1065, 82}";
type = Stem;
},
{
horizontal = 1;
place = "{1417, -20}";
target = down;
type = TopGhost;
},
{
place = "{427, 337}";
type = Stem;
},
{
place = "{682, 82}";
type = Stem;
},
{
place = "{1282, 82}";
type = Stem;
}
);
layerId = "44EE3EC1-6A7A-489F-A767-F91A9060DD57";
paths = (
{
closed = 1;
nodes = (
"1894 522 LINE",
"1444 522 LINE",
"1444 1065 LINE",
"1894 1065 LINE",
"1894 1188 LINE",
"1444 1188 LINE",
"1444 1587 LINE",
"1321 1587 LINE",
"1321 1188 LINE",
"727 1188 LINE",
"727 1587 LINE",
"604 1587 LINE",
"604 1188 LINE",
"154 1188 LINE",
"154 1065 LINE",
"604 1065 LINE",
"604 522 LINE",
"154 522 LINE",
"154 399 LINE",
"604 399 LINE",
"604 -51 LINE",
"727 -51 LINE",
"727 399 LINE",
"1321 399 LINE",
"1321 -51 LINE",
"1444 -51 LINE",
"1444 399 LINE",
"1894 399 LINE"
);
},
{
closed = 1;
nodes = (
"727 1065 LINE",
"1321 1065 LINE",
"1321 522 LINE",
"727 522 LINE"
);
}
);
width = 2048;
}
);
note = uniE63D;
unicode = E63D;
},
{
glyphname = uniE63E;
lastChange = "2018-07-14 05:02:01 +0000";
layers = (
{
hints = (
{
horizontal = 1;
place = "{-113, 123}";
type = Stem;
},
{
horizontal = 1;
place = "{297, 123}";
type = Stem;
},
{
horizontal = 1;
place = "{809, 123}";
type = Stem;
},
{
horizontal = 1;
place = "{1167, 123}";
type = Stem;
},
{
horizontal = 1;
place = "{1577, 123}";
type = Stem;
},
{
place = "{118, 123}";
type = Stem;
},
{
place = "{507, 123}";
type = Stem;
},
{
place = "{1291, 123}";
type = Stem;
},
{
place = "{1782, 123}";
type = Stem;
}
);
layerId = "44EE3EC1-6A7A-489F-A767-F91A9060DD57";
paths = (
{
closed = 1;
nodes = (
"1796 949 OFFCURVE",
"1735 1024 OFFCURVE",
"1659 1089 CURVE SMOOTH",
"1504 1219 OFFCURVE",
"1298 1290 OFFCURVE",
"1079 1290 CURVE SMOOTH",
"928 1290 OFFCURVE",
"786 1240 OFFCURVE",
"678 1148 CURVE SMOOTH",
"625 1103 OFFCURVE",
"583 1050 OFFCURVE",
"554 990 CURVE SMOOTH",
"523 928 OFFCURVE",
"507 862 OFFCURVE",
"507 794 CURVE SMOOTH",
"507 725 OFFCURVE",
"523 659 OFFCURVE",
"554 597 CURVE SMOOTH",
"583 538 OFFCURVE",
"625 485 OFFCURVE",
"678 439 CURVE SMOOTH",
"786 347 OFFCURVE",
"928 297 OFFCURVE",
"1079 297 CURVE SMOOTH",
"1264 297 OFFCURVE",
"1414 439 OFFCURVE",
"1414 614 CURVE SMOOTH",
"1414 790 OFFCURVE",
"1264 932 OFFCURVE",
"1079 932 CURVE SMOOTH",
"1046 932 OFFCURVE",
"1018 904 OFFCURVE",
"1018 870 CURVE SMOOTH",
"1018 836 OFFCURVE",
"1046 809 OFFCURVE",
"1079 809 CURVE SMOOTH",
"1196 809 OFFCURVE",
"1291 722 OFFCURVE",
"1291 614 CURVE SMOOTH",
"1291 507 OFFCURVE",
"1196 420 OFFCURVE",
"1079 420 CURVE SMOOTH",
"831 420 OFFCURVE",
"630 588 OFFCURVE",
"630 794 CURVE SMOOTH",
"630 1000 OFFCURVE",
"831 1167 OFFCURVE",
"1079 1167 CURVE SMOOTH",
"1467 1167 OFFCURVE",
"1782 908 OFFCURVE",
"1782 589 CURVE SMOOTH",
"1782 270 OFFCURVE",
"1467 10 OFFCURVE",
"1079 10 CURVE SMOOTH",
"966 10 OFFCURVE",
"855 31 OFFCURVE",
"752 72 CURVE SMOOTH",
"652 112 OFFCURVE",
"562 169 OFFCURVE",
"485 241 CURVE SMOOTH",
"327 389 OFFCURVE",
"241 585 OFFCURVE",
"241 794 CURVE SMOOTH",
"241 1002 OFFCURVE",
"327 1198 OFFCURVE",
"485 1346 CURVE SMOOTH",
"562 1418 OFFCURVE",
"652 1475 OFFCURVE",
"752 1515 CURVE SMOOTH",
"855 1556 OFFCURVE",
"966 1577 OFFCURVE",
"1079 1577 CURVE SMOOTH",
"1363 1577 OFFCURVE",
"1579 1533 OFFCURVE",
"1760 1437 CURVE SMOOTH",
"1769 1432 OFFCURVE",
"1779 1430 OFFCURVE",
"1789 1430 CURVE SMOOTH",
"1811 1430 OFFCURVE",
"1832 1442 OFFCURVE",
"1843 1463 CURVE SMOOTH",
"1859 1493 OFFCURVE",
"1847 1530 OFFCURVE",
"1817 1546 CURVE SMOOTH",
"1618 1651 OFFCURVE",
"1384 1700 OFFCURVE",
"1079 1700 CURVE SMOOTH",
"950 1700 OFFCURVE",
"825 1676 OFFCURVE",
"706 1629 CURVE SMOOTH",
"592 1584 OFFCURVE",
"489 1519 OFFCURVE",
"401 1436 CURVE SMOOTH",
"312 1353 OFFCURVE",
"243 1256 OFFCURVE",
"194 1148 CURVE SMOOTH",
"143 1035 OFFCURVE",
"118 916 OFFCURVE",
"118 794 CURVE SMOOTH",
"118 671 OFFCURVE",
"143 552 OFFCURVE",
"194 440 CURVE SMOOTH",
"243 332 OFFCURVE",
"312 234 OFFCURVE",
"401 151 CURVE SMOOTH",
"489 69 OFFCURVE",
"592 3 OFFCURVE",
"706 -42 CURVE SMOOTH",
"825 -89 OFFCURVE",
"950 -113 OFFCURVE",
"1079 -113 CURVE SMOOTH",
"1298 -113 OFFCURVE",
"1504 -41 OFFCURVE",
"1659 89 CURVE SMOOTH",
"1735 153 OFFCURVE",
"1796 228 OFFCURVE",
"1838 312 CURVE SMOOTH",
"1882 400 OFFCURVE",
"1905 493 OFFCURVE",
"1905 589 CURVE SMOOTH",
"1905 685 OFFCURVE",
"1882 778 OFFCURVE",
"1838 866 CURVE SMOOTH"
);
}
);
width = 2048;
}
);
note = uniE63E;
unicode = E63E;
},
{
glyphname = uniE63F;
lastChange = "2018-07-14 05:02:01 +0000";
layers = (
{
hints = (
{
horizontal = 1;
place = "{-115, 21}";
target = up;
type = BottomGhost;
},
{
horizontal = 1;
place = "{1753, -20}";
target = down;
type = TopGhost;
},
{
place = "{980, 82}";
type = Stem;
}
);
layerId = "44EE3EC1-6A7A-489F-A767-F91A9060DD57";
paths = (
{
closed = 1;
nodes = (
"1731 610 LINE",
"1085 1206 LINE",
"1085 1634 LINE",
"963 1634 LINE",
"963 1206 LINE",
"317 610 LINE",
"400 520 LINE",
"963 1039 LINE",
"963 0 LINE",
"1085 0 LINE",
"1085 1039 LINE",
"1648 520 LINE"
);
}
);
width = 2048;
}
);
note = uniE63F;
unicode = E63F;
},
{
glyphname = uniE640;
lastChange = "2018-07-14 05:02:01 +0000";
layers = (
{
hints = (
{
horizontal = 1;
place = "{120, 21}";
target = up;
type = BottomGhost;
},
{
horizontal = 1;
place = "{1437, 82}";
type = Stem;
},
{
place = "{414, 82}";
type = Stem;
},
{
place = "{1551, 82}";
type = Stem;
}
);
layerId = "44EE3EC1-6A7A-489F-A767-F91A9060DD57";
paths = (
{
closed = 1;
nodes = (
"1853 819 LINE SMOOTH",
"1853 931 OFFCURVE",
"1832 1040 OFFCURVE",
"1788 1142 CURVE SMOOTH",
"1747 1241 OFFCURVE",
"1687 1330 OFFCURVE",
"1611 1406 CURVE SMOOTH",
"1534 1482 OFFCURVE",
"1446 1542 OFFCURVE",
"1347 1584 CURVE SMOOTH",
"1245 1627 OFFCURVE",
"1136 1649 OFFCURVE",
"1024 1649 CURVE SMOOTH",
"912 1649 OFFCURVE",
"803 1627 OFFCURVE",
"701 1584 CURVE SMOOTH",
"602 1542 OFFCURVE",
"514 1482 OFFCURVE",
"437 1406 CURVE SMOOTH",
"361 1330 OFFCURVE",
"301 1241 OFFCURVE",
"260 1142 CURVE SMOOTH",
"216 1040 OFFCURVE",
"195 931 OFFCURVE",
"195 819 CURVE SMOOTH",
"195 0 LINE",
"317 0 LINE",
"317 819 LINE SMOOTH",
"317 1008 OFFCURVE",
"391 1185 OFFCURVE",
"524 1319 CURVE SMOOTH",
"658 1452 OFFCURVE",
"835 1526 OFFCURVE",
"1024 1526 CURVE SMOOTH",
"1213 1526 OFFCURVE",
"1390 1452 OFFCURVE",
"1524 1319 CURVE SMOOTH",
"1657 1185 OFFCURVE",
"1731 1008 OFFCURVE",
"1731 819 CURVE SMOOTH",
"1731 0 LINE",
"1853 0 LINE"
);
}
);
width = 2048;
}
);
note = uniE640;
unicode = E640;
},
{
glyphname = uniE641;
lastChange = "2018-07-14 05:02:01 +0000";
layers = (
{
hints = (
{
horizontal = 1;
place = "{-138, 21}";
target = up;
type = BottomGhost;
},
{
horizontal = 1;
place = "{1773, -20}";
target = down;
type = TopGhost;
},
{
horizontal = 1;
place = "{1774, -20}";
target = down;
type = TopGhost;
},
{
place = "{981, 82}";
type = Stem;
}
);
layerId = "44EE3EC1-6A7A-489F-A767-F91A9060DD57";
paths = (
{
closed = 1;
nodes = (
"1781 568 LINE",
"1701 661 LINE",
"1085 133 LINE",
"1085 1634 LINE",
"963 1634 LINE",
"963 133 LINE",
"347 661 LINE",
"267 568 LINE",
"1024 -81 LINE"
);
}
);
width = 2048;
}
);
note = uniE641;
unicode = E641;
},
{
glyphname = uniE642;
lastChange = "2018-07-14 05:02:01 +0000";
layers = (
{
hints = (
{
horizontal = 1;
place = "{460, 81}";
type = Stem;
},
{
horizontal = 1;
place = "{1097, 82}";
type = Stem;
},
{
place = "{28, 82}";
type = Stem;
},
{
place = "{1939, 82}";
type = Stem;
}
);
layerId = "44EE3EC1-6A7A-489F-A767-F91A9060DD57";
paths = (
{
closed = 1;
nodes = (
"1664 246 LINE SMOOTH",
"1811 246 OFFCURVE",
"1930 365 OFFCURVE",
"1930 512 CURVE SMOOTH",
"1930 1024 LINE SMOOTH",
"1930 1171 OFFCURVE",
"1811 1290 OFFCURVE",
"1664 1290 CURVE SMOOTH",
"384 1290 LINE SMOOTH",
"237 1290 OFFCURVE",
"118 1171 OFFCURVE",
"118 1024 CURVE SMOOTH",
"118 512 LINE SMOOTH",
"118 365 OFFCURVE",
"237 246 OFFCURVE",
"384 246 CURVE SMOOTH"
);
},
{
closed = 1;
nodes = (
"1664 1167 LINE SMOOTH",
"1743 1167 OFFCURVE",
"1807 1103 OFFCURVE",
"1807 1024 CURVE SMOOTH",
"1807 512 LINE SMOOTH",
"1807 433 OFFCURVE",
"1743 369 OFFCURVE",
"1664 369 CURVE SMOOTH",
"384 369 LINE SMOOTH",
"305 369 OFFCURVE",
"241 433 OFFCURVE",
"241 512 CURVE SMOOTH",
"241 1024 LINE SMOOTH",
"241 1103 OFFCURVE",
"305 1167 OFFCURVE",
"384 1167 CURVE SMOOTH"
);
}
);
width = 2048;
}
);
note = uniE642;
unicode = E642;
},
{
glyphname = uniE643;
lastChange = "2018-07-14 05:02:01 +0000";
layers = (
{
hints = (
{
horizontal = 1;
place = "{-65, 82}";
type = Stem;
},
{
horizontal = 1;
place = "{1704, -20}";
target = down;
type = TopGhost;
},
{
place = "{243, 82}";
type = Stem;
},
{
place = "{892, 82}";
type = Stem;
},
{
place = "{1724, 82}";
type = Stem;
}
);
layerId = "44EE3EC1-6A7A-489F-A767-F91A9060DD57";
paths = (
{
closed = 1;
nodes = (
"1600 -61 OFFCURVE",
"1730 -19 OFFCURVE",
"1821 63 CURVE SMOOTH",
"1866 105 OFFCURVE",
"1900 156 OFFCURVE",
"1923 216 CURVE SMOOTH",
"1945 273 OFFCURVE",
"1956 338 OFFCURVE",
"1956 410 CURVE SMOOTH",
"1956 482 OFFCURVE",
"1943 553 OFFCURVE",
"1919 620 CURVE SMOOTH",
"1893 691 OFFCURVE",
"1855 754 OFFCURVE",
"1805 809 CURVE SMOOTH",
"1694 930 OFFCURVE",
"1535 994 OFFCURVE",
"1345 994 CURVE SMOOTH",
"1239 994 LINE",
"1239 1638 LINE",
"1116 1638 LINE",
"1116 871 LINE",
"1345 871 LINE SMOOTH",
"1499 871 OFFCURVE",
"1627 820 OFFCURVE",
"1715 725 CURVE SMOOTH",
"1753 683 OFFCURVE",
"1783 634 OFFCURVE",
"1803 578 CURVE SMOOTH",
"1823 524 OFFCURVE",
"1833 468 OFFCURVE",
"1833 410 CURVE SMOOTH",
"1833 298 OFFCURVE",
"1801 212 OFFCURVE",
"1738 154 CURVE SMOOTH",
"1671 93 OFFCURVE",
"1568 61 OFFCURVE",
"1434 61 CURVE SMOOTH",
"317 61 LINE",
"317 1638 LINE",
"195 1638 LINE",
"195 -61 LINE",
"1434 -61 LINE SMOOTH"
);
}
);
width = 2048;
}
);
note = uniE643;
unicode = E643;
},
{
glyphname = uniE644;
lastChange = "2018-07-14 05:02:01 +0000";
layers = (
{
hints = (
{
horizontal = 1;
place = "{-201, 82}";
type = Stem;
},
{
horizontal = 1;
place = "{152, 82}";
type = Stem;
},
{
horizontal = 1;
place = "{1841, -20}";
target = down;
type = TopGhost;
},
{
place = "{806, 82}";
type = Stem;
},
{
place = "{984, 82}";
type = Stem;
},
{
place = "{1160, 82}";
type = Stem;
}
);
layerId = "44EE3EC1-6A7A-489F-A767-F91A9060DD57";
paths = (
{
closed = 1;
nodes = (
"932 717 LINE",
"932 1638 LINE",
"809 1638 LINE",
"809 717 LINE"
);
},
{
closed = 1;
nodes = (
"1031 -61 OFFCURVE",
"1162 69 OFFCURVE",
"1162 230 CURVE SMOOTH",
"1162 391 OFFCURVE",
"1031 522 OFFCURVE",
"870 522 CURVE SMOOTH",
"709 522 OFFCURVE",
"579 391 OFFCURVE",
"579 230 CURVE SMOOTH",
"579 69 OFFCURVE",
"709 -61 OFFCURVE",
"870 -61 CURVE SMOOTH"
);
},
{
closed = 1;
nodes = (
"964 399 OFFCURVE",
"1039 324 OFFCURVE",
"1039 230 CURVE SMOOTH",
"1039 137 OFFCURVE",
"964 61 OFFCURVE",
"870 61 CURVE SMOOTH",
"777 61 OFFCURVE",
"701 137 OFFCURVE",
"701 230 CURVE SMOOTH",
"701 324 OFFCURVE",
"777 399 OFFCURVE",
"870 399 CURVE SMOOTH"
);
}
);
width = 1741;
}
);
note = uniE644;
unicode = E644;
},
{
glyphname = uniE645;
lastChange = "2018-07-14 05:02:01 +0000";
layers = (
{
hints = (
{
horizontal = 1;
place = "{890, 123}";
type = Stem;
},
{
horizontal = 1;
place = "{1526, 122}";
type = Stem;
},
{
place = "{219, 125}";
type = Stem;
},
{
place = "{1707, 119}";
type = Stem;
},
{
place = "{222, 119}";
type = Stem;
},
{
place = "{1711, 112}";
type = Stem;
}
);
layerId = "44EE3EC1-6A7A-489F-A767-F91A9060DD57";
paths = (
{
closed = 1;
nodes = (
"1826 1266 OFFCURVE",
"1824 1299 OFFCURVE",
"1819 1332 CURVE SMOOTH",
"1814 1365 OFFCURVE",
"1807 1398 OFFCURVE",
"1795 1431 CURVE SMOOTH",
"1783 1465 OFFCURVE",
"1765 1498 OFFCURVE",
"1741 1527 CURVE SMOOTH",
"1729 1542 OFFCURVE",
"1715 1555 OFFCURVE",
"1700 1567 CURVE SMOOTH",
"1693 1573 OFFCURVE",
"1686 1579 OFFCURVE",
"1678 1584 CURVE SMOOTH",
"1670 1589 OFFCURVE",
"1662 1594 OFFCURVE",
"1654 1599 CURVE",
"1638 1607 OFFCURVE",
"1621 1615 OFFCURVE",
"1604 1621 CURVE SMOOTH",
"1587 1627 OFFCURVE",
"1570 1631 OFFCURVE",
"1553 1635 CURVE SMOOTH",
"1520 1643 OFFCURVE",
"1486 1646 OFFCURVE",
"1454 1648 CURVE",
"1445 1648 OFFCURVE",
"1437 1648 OFFCURVE",
"1429 1648 CURVE",
"1417 1649 LINE",
"1405 1648 LINE",
"1393 1648 LINE SMOOTH",
"1388 1648 OFFCURVE",
"1384 1648 OFFCURVE",
"1380 1648 CURVE",
"1368 1647 LINE",
"1355 1646 LINE SMOOTH",
"1322 1643 OFFCURVE",
"1288 1637 OFFCURVE",
"1254 1626 CURVE SMOOTH",
"1221 1616 OFFCURVE",
"1187 1600 OFFCURVE",
"1158 1579 CURVE",
"1128 1559 OFFCURVE",
"1101 1533 OFFCURVE",
"1080 1507 CURVE SMOOTH",
"1058 1480 OFFCURVE",
"1040 1453 OFFCURVE",
"1024 1427 CURVE",
"1024 1427 OFFCURVE",
"1024 1426 OFFCURVE",
"1024 1426 CURVE",
"1008 1452 OFFCURVE",
"991 1478 OFFCURVE",
"970 1504 CURVE SMOOTH",
"948 1530 OFFCURVE",
"923 1555 OFFCURVE",
"894 1576 CURVE SMOOTH",
"865 1597 OFFCURVE",
"832 1613 OFFCURVE",
"799 1624 CURVE",
"783 1630 OFFCURVE",
"766 1634 OFFCURVE",
"749 1637 CURVE",
"733 1641 OFFCURVE",
"716 1643 OFFCURVE",
"700 1645 CURVE SMOOTH",
"683 1647 OFFCURVE",
"667 1648 OFFCURVE",
"651 1648 CURVE",
"635 1649 OFFCURVE",
"618 1649 OFFCURVE",
"600 1647 CURVE",
"566 1645 OFFCURVE",
"532 1638 OFFCURVE",
"499 1627 CURVE SMOOTH",
"466 1616 OFFCURVE",
"434 1601 OFFCURVE",
"405 1582 CURVE SMOOTH",
"390 1572 OFFCURVE",
"376 1562 OFFCURVE",
"363 1550 CURVE SMOOTH",
"350 1538 OFFCURVE",
"337 1526 OFFCURVE",
"326 1513 CURVE",
"302 1487 OFFCURVE",
"283 1457 OFFCURVE",
"268 1426 CURVE SMOOTH",
"253 1395 OFFCURVE",
"241 1362 OFFCURVE",
"234 1329 CURVE SMOOTH",
"227 1296 OFFCURVE",
"223 1263 OFFCURVE",
"222 1230 CURVE SMOOTH",
"222 1226 OFFCURVE",
"221 1222 OFFCURVE",
"221 1218 CURVE SMOOTH",
"221 1211 LINE",
"221 1209 LINE",
"221 1207 LINE",
"222 1205 LINE",
"222 1199 LINE",
"222 1192 LINE",
"222 1188 LINE SMOOTH",
"222 1187 OFFCURVE",
"222 1185 OFFCURVE",
"223 1184 CURVE",
"223 1178 LINE",
"225 1160 OFFCURVE",
"229 1142 OFFCURVE",
"233 1125 CURVE",
"243 1091 OFFCURVE",
"257 1059 OFFCURVE",
"274 1030 CURVE SMOOTH",
"291 1000 OFFCURVE",
"310 974 OFFCURVE",
"332 949 CURVE SMOOTH",
"342 937 OFFCURVE",
"352 926 OFFCURVE",
"363 915 CURVE",
"352 906 OFFCURVE",
"343 897 OFFCURVE",
"334 887 CURVE SMOOTH",
"298 849 OFFCURVE",
"270 804 OFFCURVE",
"251 757 CURVE SMOOTH",
"233 709 OFFCURVE",
"223 659 OFFCURVE",
"220 610 CURVE",
"220 604 OFFCURVE",
"219 598 OFFCURVE",
"219 592 CURVE SMOOTH",
"219 589 OFFCURVE",
"219 586 OFFCURVE",
"219 583 CURVE SMOOTH",
"219 578 LINE",
"219 576 LINE",
"219 575 LINE",
"219 573 LINE",
"219 564 LINE",
"219 553 LINE",
"220 543 LINE",
"221 533 LINE",
"225 506 OFFCURVE",
"231 480 OFFCURVE",
"240 456 CURVE SMOOTH",
"249 431 OFFCURVE",
"261 408 OFFCURVE",
"273 386 CURVE",
"286 365 OFFCURVE",
"300 344 OFFCURVE",
"315 325 CURVE SMOOTH",
"345 287 OFFCURVE",
"378 253 OFFCURVE",
"413 222 CURVE SMOOTH",
"448 191 OFFCURVE",
"485 163 OFFCURVE",
"522 137 CURVE SMOOTH",
"597 85 OFFCURVE",
"676 40 OFFCURVE",
"756 -1 CURVE SMOOTH",
"796 -21 OFFCURVE",
"836 -40 OFFCURVE",
"877 -58 CURVE SMOOTH",
"898 -67 OFFCURVE",
"919 -76 OFFCURVE",
"939 -84 CURVE SMOOTH",
"950 -88 OFFCURVE",
"960 -93 OFFCURVE",
"971 -97 CURVE SMOOTH",
"987 -103 LINE",
"995 -106 LINE",
"1003 -109 LINE",
"1003 -109 LINE",
"1024 -117 LINE",
"1045 -109 LINE",
"1045 -109 LINE",
"1053 -106 LINE",
"1061 -103 LINE",
"1076 -97 LINE SMOOTH",
"1086 -93 OFFCURVE",
"1096 -88 OFFCURVE",
"1106 -84 CURVE SMOOTH",
"1126 -76 OFFCURVE",
"1146 -67 OFFCURVE",
"1166 -58 CURVE SMOOTH",
"1205 -40 OFFCURVE",
"1245 -21 OFFCURVE",
"1283 -1 CURVE SMOOTH",
"1322 18 OFFCURVE",
"1360 39 OFFCURVE",
"1398 61 CURVE SMOOTH",
"1435 84 OFFCURVE",
"1473 107 OFFCURVE",
"1509 132 CURVE SMOOTH",
"1527 144 OFFCURVE",
"1545 157 OFFCURVE",
"1563 171 CURVE SMOOTH",
"1580 184 OFFCURVE",
"1598 198 OFFCURVE",
"1615 213 CURVE SMOOTH",
"1632 227 OFFCURVE",
"1648 242 OFFCURVE",
"1664 258 CURVE SMOOTH",
"1681 274 OFFCURVE",
"1696 291 OFFCURVE",
"1711 309 CURVE SMOOTH",
"1726 326 OFFCURVE",
"1741 345 OFFCURVE",
"1754 365 CURVE SMOOTH",
"1767 384 OFFCURVE",
"1779 405 OFFCURVE",
"1789 427 CURVE SMOOTH",
"1799 450 OFFCURVE",
"1808 473 OFFCURVE",
"1814 498 CURVE SMOOTH",
"1820 522 OFFCURVE",
"1823 548 OFFCURVE",
"1823 574 CURVE",
"1823 574 LINE",
"1823 585 OFFCURVE",
"1823 598 OFFCURVE",
"1822 611 CURVE",
"1822 623 OFFCURVE",
"1821 635 OFFCURVE",
"1820 647 CURVE SMOOTH",
"1818 672 OFFCURVE",
"1816 697 OFFCURVE",
"1811 722 CURVE SMOOTH",
"1806 747 OFFCURVE",
"1800 773 OFFCURVE",
"1790 798 CURVE",
"1781 824 OFFCURVE",
"1768 849 OFFCURVE",
"1752 872 CURVE SMOOTH",
"1737 893 OFFCURVE",
"1720 913 OFFCURVE",
"1699 930 CURVE",
"1706 936 OFFCURVE",
"1712 943 OFFCURVE",
"1717 950 CURVE",
"1739 975 OFFCURVE",
"1758 1002 OFFCURVE",
"1775 1032 CURVE SMOOTH",
"1792 1062 OFFCURVE",
"1807 1094 OFFCURVE",
"1816 1129 CURVE SMOOTH",
"1820 1147 OFFCURVE",
"1824 1165 OFFCURVE",
"1825 1183 CURVE",
"1826 1188 OFFCURVE",
"1826 1192 OFFCURVE",
"1826 1197 CURVE SMOOTH",
"1826 1199 OFFCURVE",
"1826 1202 OFFCURVE",
"1826 1204 CURVE SMOOTH",
"1826 1207 LINE",
"1826 1211 LINE",
"1826 1222 LINE",
"1826 1235 LINE SMOOTH"
);
},
{
closed = 1;
nodes = (
"1709 628 OFFCURVE",
"1710 617 OFFCURVE",
"1710 606 CURVE",
"1711 596 OFFCURVE",
"1711 586 OFFCURVE",
"1711 574 CURVE SMOOTH",
"1711 557 OFFCURVE",
"1709 541 OFFCURVE",
"1705 524 CURVE SMOOTH",
"1701 507 OFFCURVE",
"1695 491 OFFCURVE",
"1687 475 CURVE",
"1680 458 OFFCURVE",
"1671 443 OFFCURVE",
"1660 427 CURVE",
"1650 411 OFFCURVE",
"1638 396 OFFCURVE",
"1626 382 CURVE SMOOTH",
"1613 367 OFFCURVE",
"1600 353 OFFCURVE",
"1586 339 CURVE SMOOTH",
"1571 325 OFFCURVE",
"1556 312 OFFCURVE",
"1541 299 CURVE SMOOTH",
"1526 286 OFFCURVE",
"1510 274 OFFCURVE",
"1494 262 CURVE",
"1478 249 OFFCURVE",
"1461 238 OFFCURVE",
"1444 226 CURVE",
"1410 204 OFFCURVE",
"1376 182 OFFCURVE",
"1340 162 CURVE SMOOTH",
"1304 141 OFFCURVE",
"1268 122 OFFCURVE",
"1230 104 CURVE SMOOTH",
"1193 85 OFFCURVE",
"1156 68 OFFCURVE",
"1118 52 CURVE SMOOTH",
"1099 44 OFFCURVE",
"1080 36 OFFCURVE",
"1060 28 CURVE",
"1051 24 OFFCURVE",
"1041 20 OFFCURVE",
"1031 17 CURVE",
"1025 14 LINE",
"1016 18 LINE",
"1006 22 OFFCURVE",
"996 26 OFFCURVE",
"986 30 CURVE SMOOTH",
"967 38 OFFCURVE",
"947 46 OFFCURVE",
"928 55 CURVE SMOOTH",
"889 72 OFFCURVE",
"850 91 OFFCURVE",
"812 110 CURVE SMOOTH",
"774 130 OFFCURVE",
"737 150 OFFCURVE",
"700 171 CURVE SMOOTH",
"664 193 OFFCURVE",
"628 215 OFFCURVE",
"594 239 CURVE SMOOTH",
"560 263 OFFCURVE",
"527 289 OFFCURVE",
"496 316 CURVE SMOOTH",
"466 343 OFFCURVE",
"437 372 OFFCURVE",
"413 402 CURVE SMOOTH",
"389 433 OFFCURVE",
"370 466 OFFCURVE",
"358 499 CURVE",
"351 515 OFFCURVE",
"347 532 OFFCURVE",
"345 549 CURVE",
"344 555 LINE",
"344 561 LINE",
"344 566 LINE",
"343 574 LINE",
"343 581 LINE SMOOTH",
"343 583 OFFCURVE",
"343 586 OFFCURVE",
"344 588 CURVE",
"344 593 OFFCURVE",
"344 598 OFFCURVE",
"344 603 CURVE",
"347 641 OFFCURVE",
"354 678 OFFCURVE",
"367 711 CURVE SMOOTH",
"380 745 OFFCURVE",
"400 776 OFFCURVE",
"424 802 CURVE SMOOTH",
"448 828 OFFCURVE",
"478 849 OFFCURVE",
"510 864 CURVE SMOOTH",
"543 879 OFFCURVE",
"579 887 OFFCURVE",
"615 889 CURVE",
"617 889 OFFCURVE",
"619 889 OFFCURVE",
"621 890 CURVE",
"623 890 LINE",
"625 890 LINE",
"629 890 LINE",
"631 890 LINE",
"631 890 LINE",
"632 890 LINE",
"636 890 LINE SMOOTH",
"639 890 OFFCURVE",
"641 890 OFFCURVE",
"643 890 CURVE",
"654 889 OFFCURVE",
"663 889 OFFCURVE",
"673 888 CURVE",
"692 887 OFFCURVE",
"711 885 OFFCURVE",
"729 881 CURVE SMOOTH",
"748 877 OFFCURVE",
"765 872 OFFCURVE",
"781 865 CURVE SMOOTH",
"797 858 OFFCURVE",
"813 850 OFFCURVE",
"827 840 CURVE SMOOTH",
"855 820 OFFCURVE",
"880 793 OFFCURVE",
"904 760 CURVE SMOOTH",
"928 727 OFFCURVE",
"950 689 OFFCURVE",
"978 652 CURVE",
"978 652 LINE",
"1022 585 LINE",
"1070 652 LINE SMOOTH",
"1077 662 OFFCURVE",
"1084 672 OFFCURVE",
"1091 681 CURVE",
"1098 691 OFFCURVE",
"1104 701 OFFCURVE",
"1111 710 CURVE",
"1123 730 OFFCURVE",
"1136 748 OFFCURVE",
"1148 765 CURVE SMOOTH",
"1160 782 OFFCURVE",
"1173 797 OFFCURVE",
"1187 811 CURVE",
"1200 825 OFFCURVE",
"1214 836 OFFCURVE",
"1230 846 CURVE SMOOTH",
"1245 855 OFFCURVE",
"1261 863 OFFCURVE",
"1279 870 CURVE",
"1297 876 OFFCURVE",
"1315 880 OFFCURVE",
"1335 884 CURVE",
"1355 887 OFFCURVE",
"1375 889 OFFCURVE",
"1396 889 CURVE",
"1401 890 OFFCURVE",
"1405 890 OFFCURVE",
"1411 890 CURVE SMOOTH",
"1416 890 LINE",
"1419 890 LINE",
"1427 890 LINE SMOOTH",
"1438 890 OFFCURVE",
"1448 889 OFFCURVE",
"1459 889 CURVE",
"1479 887 OFFCURVE",
"1500 885 OFFCURVE",
"1519 881 CURVE",
"1539 878 OFFCURVE",
"1557 873 OFFCURVE",
"1574 866 CURVE",
"1591 860 OFFCURVE",
"1607 851 OFFCURVE",
"1621 841 CURVE SMOOTH",
"1635 831 OFFCURVE",
"1647 819 OFFCURVE",
"1657 805 CURVE SMOOTH",
"1678 777 OFFCURVE",
"1692 740 OFFCURVE",
"1700 700 CURVE SMOOTH",
"1704 680 OFFCURVE",
"1707 660 OFFCURVE",
"1708 639 CURVE"
);
},
{
closed = 1;
nodes = (
"1707 1199 OFFCURVE",
"1707 1196 OFFCURVE",
"1707 1193 CURVE",
"1706 1181 OFFCURVE",
"1704 1170 OFFCURVE",
"1701 1158 CURVE SMOOTH",
"1696 1135 OFFCURVE",
"1686 1112 OFFCURVE",
"1674 1089 CURVE SMOOTH",
"1662 1067 OFFCURVE",
"1646 1045 OFFCURVE",
"1629 1024 CURVE",
"1621 1013 OFFCURVE",
"1612 1003 OFFCURVE",
"1602 992 CURVE",
"1597 987 LINE",
"1579 993 OFFCURVE",
"1561 997 OFFCURVE",
"1543 1001 CURVE SMOOTH",
"1530 1004 OFFCURVE",
"1517 1006 OFFCURVE",
"1504 1007 CURVE",
"1492 1009 OFFCURVE",
"1479 1010 OFFCURVE",
"1466 1011 CURVE SMOOTH",
"1454 1012 OFFCURVE",
"1441 1012 OFFCURVE",
"1429 1013 CURVE",
"1419 1013 LINE",
"1417 1013 LINE",
"1415 1013 LINE",
"1410 1013 LINE SMOOTH",
"1405 1013 OFFCURVE",
"1398 1012 OFFCURVE",
"1391 1012 CURVE",
"1366 1011 OFFCURVE",
"1341 1009 OFFCURVE",
"1315 1005 CURVE",
"1289 1000 OFFCURVE",
"1263 994 OFFCURVE",
"1237 984 CURVE SMOOTH",
"1212 975 OFFCURVE",
"1187 963 OFFCURVE",
"1163 947 CURVE SMOOTH",
"1140 932 OFFCURVE",
"1119 914 OFFCURVE",
"1100 894 CURVE SMOOTH",
"1082 875 OFFCURVE",
"1066 854 OFFCURVE",
"1052 833 CURVE SMOOTH",
"1042 819 OFFCURVE",
"1033 804 OFFCURVE",
"1024 790 CURVE",
"1016 802 OFFCURVE",
"1008 815 OFFCURVE",
"1000 827 CURVE SMOOTH",
"986 847 OFFCURVE",
"972 866 OFFCURVE",
"955 885 CURVE SMOOTH",
"938 904 OFFCURVE",
"919 922 OFFCURVE",
"897 937 CURVE",
"876 953 OFFCURVE",
"853 966 OFFCURVE",
"829 976 CURVE",
"805 987 OFFCURVE",
"780 995 OFFCURVE",
"756 1000 CURVE SMOOTH",
"731 1005 OFFCURVE",
"706 1009 OFFCURVE",
"682 1011 CURVE SMOOTH",
"670 1012 OFFCURVE",
"658 1012 OFFCURVE",
"646 1013 CURVE",
"643 1013 OFFCURVE",
"640 1013 OFFCURVE",
"637 1013 CURVE SMOOTH",
"633 1013 LINE",
"630 1013 LINE",
"628 1013 LINE",
"624 1013 LINE",
"621 1013 LINE",
"619 1013 LINE",
"615 1012 OFFCURVE",
"612 1012 OFFCURVE",
"609 1012 CURVE",
"558 1009 OFFCURVE",
"507 998 OFFCURVE",
"461 977 CURVE",
"446 992 OFFCURVE",
"432 1007 OFFCURVE",
"420 1023 CURVE",
"403 1043 OFFCURVE",
"388 1065 OFFCURVE",
"375 1087 CURVE SMOOTH",
"363 1109 OFFCURVE",
"353 1132 OFFCURVE",
"348 1155 CURVE",
"344 1167 OFFCURVE",
"343 1178 OFFCURVE",
"342 1189 CURVE",
"341 1194 LINE",
"341 1195 OFFCURVE",
"341 1195 OFFCURVE",
"341 1196 CURVE SMOOTH",
"341 1198 LINE",
"341 1201 LINE",
"341 1207 LINE",
"341 1210 LINE",
"341 1210 LINE SMOOTH",
"341 1210 OFFCURVE",
"341 1210 OFFCURVE",
"341 1210 CURVE SMOOTH",
"341 1210 LINE",
"341 1211 LINE",
"341 1216 LINE SMOOTH",
"341 1219 OFFCURVE",
"341 1222 OFFCURVE",
"341 1226 CURVE",
"342 1252 OFFCURVE",
"345 1278 OFFCURVE",
"351 1302 CURVE SMOOTH",
"357 1327 OFFCURVE",
"366 1350 OFFCURVE",
"377 1372 CURVE",
"387 1394 OFFCURVE",
"401 1414 OFFCURVE",
"417 1432 CURVE SMOOTH",
"425 1441 OFFCURVE",
"434 1450 OFFCURVE",
"443 1458 CURVE SMOOTH",
"452 1466 OFFCURVE",
"462 1473 OFFCURVE",
"472 1479 CURVE",
"492 1493 OFFCURVE",
"514 1503 OFFCURVE",
"537 1511 CURVE SMOOTH",
"560 1519 OFFCURVE",
"585 1523 OFFCURVE",
"609 1525 CURVE SMOOTH",
"621 1526 OFFCURVE",
"634 1526 OFFCURVE",
"647 1526 CURVE",
"661 1525 OFFCURVE",
"674 1524 OFFCURVE",
"687 1523 CURVE SMOOTH",
"700 1522 OFFCURVE",
"712 1520 OFFCURVE",
"725 1517 CURVE",
"737 1515 OFFCURVE",
"749 1512 OFFCURVE",
"761 1508 CURVE SMOOTH",
"784 1501 OFFCURVE",
"805 1490 OFFCURVE",
"824 1477 CURVE SMOOTH",
"844 1464 OFFCURVE",
"861 1447 OFFCURVE",
"878 1428 CURVE SMOOTH",
"895 1409 OFFCURVE",
"910 1386 OFFCURVE",
"927 1363 CURVE",
"942 1339 OFFCURVE",
"959 1313 OFFCURVE",
"978 1288 CURVE SMOOTH",
"1026 1221 LINE",
"1070 1288 LINE",
"1070 1288 LINE",
"1089 1314 OFFCURVE",
"1106 1339 OFFCURVE",
"1122 1364 CURVE SMOOTH",
"1138 1388 OFFCURVE",
"1154 1411 OFFCURVE",
"1171 1430 CURVE SMOOTH",
"1188 1450 OFFCURVE",
"1206 1466 OFFCURVE",
"1226 1479 CURVE SMOOTH",
"1245 1492 OFFCURVE",
"1267 1502 OFFCURVE",
"1291 1509 CURVE",
"1314 1517 OFFCURVE",
"1340 1521 OFFCURVE",
"1366 1524 CURVE",
"1376 1524 LINE",
"1386 1525 LINE",
"1397 1525 LINE",
"1406 1526 LINE",
"1418 1526 LINE",
"1427 1526 LINE SMOOTH",
"1434 1526 OFFCURVE",
"1441 1525 OFFCURVE",
"1448 1525 CURVE",
"1475 1524 OFFCURVE",
"1502 1521 OFFCURVE",
"1527 1516 CURVE",
"1539 1513 OFFCURVE",
"1552 1509 OFFCURVE",
"1563 1505 CURVE SMOOTH",
"1574 1501 OFFCURVE",
"1585 1497 OFFCURVE",
"1595 1491 CURVE",
"1616 1480 OFFCURVE",
"1633 1466 OFFCURVE",
"1647 1449 CURVE SMOOTH",
"1661 1432 OFFCURVE",
"1672 1412 OFFCURVE",
"1681 1389 CURVE SMOOTH",
"1690 1366 OFFCURVE",
"1696 1341 OFFCURVE",
"1700 1314 CURVE SMOOTH",
"1704 1288 OFFCURVE",
"1706 1260 OFFCURVE",
"1707 1232 CURVE",
"1707 1222 LINE",
"1707 1210 LINE",
"1707 1202 LINE SMOOTH"
);
}
);
width = 2048;
}
);
note = uniE645;
unicode = E645;
},
{
glyphname = uniE646;
lastChange = "2018-07-14 05:02:01 +0000";
layers = (
{
hints = (
{
horizontal = 1;
place = "{-20, 123}";
type = Stem;
},
{
horizontal = 1;
place = "{1484, 123}";
type = Stem;
},
{
place = "{348, 123}";
type = Stem;
},
{
place = "{1782, 123}";
type = Stem;
}
);
layerId = "44EE3EC1-6A7A-489F-A767-F91A9060DD57";
paths = (
{
closed = 1;
nodes = (
"1805 1206 OFFCURVE",
"1749 1293 OFFCURVE",
"1678 1368 CURVE SMOOTH",
"1606 1443 OFFCURVE",
"1523 1502 OFFCURVE",
"1430 1543 CURVE SMOOTH",
"1334 1585 OFFCURVE",
"1232 1607 OFFCURVE",
"1126 1607 CURVE SMOOTH",
"1021 1607 OFFCURVE",
"919 1585 OFFCURVE",
"822 1543 CURVE SMOOTH",
"730 1502 OFFCURVE",
"647 1443 OFFCURVE",
"575 1368 CURVE SMOOTH",
"504 1293 OFFCURVE",
"448 1206 OFFCURVE",
"409 1109 CURVE SMOOTH",
"369 1009 OFFCURVE",
"348 903 OFFCURVE",
"348 794 CURVE SMOOTH",
"348 684 OFFCURVE",
"369 578 OFFCURVE",
"409 478 CURVE SMOOTH",
"448 381 OFFCURVE",
"504 294 OFFCURVE",
"575 219 CURVE SMOOTH",
"618 175 OFFCURVE",
"664 136 OFFCURVE",
"715 103 CURVE",
"205 103 LINE",
"205 -20 LINE",
"1126 -20 LINE SMOOTH",
"1232 -20 OFFCURVE",
"1334 2 OFFCURVE",
"1430 44 CURVE SMOOTH",
"1523 86 OFFCURVE",
"1606 145 OFFCURVE",
"1678 219 CURVE SMOOTH",
"1749 294 OFFCURVE",
"1805 381 OFFCURVE",
"1844 478 CURVE SMOOTH",
"1884 578 OFFCURVE",
"1905 684 OFFCURVE",
"1905 794 CURVE SMOOTH",
"1905 903 OFFCURVE",
"1884 1009 OFFCURVE",
"1844 1109 CURVE SMOOTH"
);
},
{
closed = 1;
nodes = (
"1465 174 OFFCURVE",
"1301 103 OFFCURVE",
"1126 103 CURVE SMOOTH",
"952 103 OFFCURVE",
"788 174 OFFCURVE",
"664 304 CURVE SMOOTH",
"540 435 OFFCURVE",
"471 609 OFFCURVE",
"471 794 CURVE SMOOTH",
"471 979 OFFCURVE",
"540 1152 OFFCURVE",
"664 1283 CURVE SMOOTH",
"788 1413 OFFCURVE",
"952 1484 OFFCURVE",
"1126 1484 CURVE SMOOTH",
"1301 1484 OFFCURVE",
"1465 1413 OFFCURVE",
"1589 1283 CURVE SMOOTH",
"1713 1152 OFFCURVE",
"1782 979 OFFCURVE",
"1782 794 CURVE SMOOTH",
"1782 609 OFFCURVE",
"1713 435 OFFCURVE",
"1589 304 CURVE SMOOTH"
);
}
);
width = 2048;
}
);
note = uniE646;
unicode = E646;
},
{
glyphname = uniE647;
lastChange = "2018-07-14 05:02:01 +0000";
layers = (
{
hints = (
{
horizontal = 1;
place = "{45, 82}";
type = Stem;
},
{
horizontal = 1;
place = "{434, 82}";
type = Stem;
},
{
horizontal = 1;
place = "{1594, -20}";
target = down;
type = TopGhost;
},
{
place = "{339, 82}";
type = Stem;
},
{
place = "{1628, 82}";
type = Stem;
}
);
layerId = "44EE3EC1-6A7A-489F-A767-F91A9060DD57";
paths = (
{
closed = 1;
nodes = (
"1751 1587 LINE",
"1628 1587 LINE",
"1628 676 LINE",
"420 676 LINE",
"420 1587 LINE",
"297 1587 LINE",
"297 -61 LINE",
"1751 -61 LINE"
);
},
{
closed = 1;
nodes = (
"420 61 LINE",
"420 553 LINE",
"1628 553 LINE",
"1628 61 LINE"
);
}
);
width = 2048;
}
);
note = uniE647;
unicode = E647;
},
{
glyphname = uniE648;
lastChange = "2018-07-14 05:02:01 +0000";
layers = (
{
hints = (
{
horizontal = 1;
place = "{-43, 81}";
type = Stem;
},
{
horizontal = 1;
place = "{-8, 21}";
target = up;
type = BottomGhost;
},
{
horizontal = 1;
place = "{753, 82}";
type = Stem;
},
{
horizontal = 1;
place = "{1600, 82}";
type = Stem;
},
{
place = "{224, 82}";
type = Stem;
},
{
place = "{1743, 82}";
type = Stem;
}
);
layerId = "44EE3EC1-6A7A-489F-A767-F91A9060DD57";
paths = (
{
closed = 1;
nodes = (
"1751 1597 LINE",
"297 1597 LINE",
"297 -61 LINE",
"1751 -61 LINE"
);
},
{
closed = 1;
nodes = (
"420 1475 LINE",
"1026 1475 LINE",
"620 763 LINE",
"1240 763 LINE",
"889 61 LINE",
"420 61 LINE"
);
},
{
closed = 1;
nodes = (
"1015 61 LINE",
"1422 876 LINE",
"814 876 LINE",
"1156 1475 LINE",
"1628 1475 LINE",
"1628 61 LINE"
);
}
);
width = 2048;
}
);
note = uniE648;
unicode = E648;
},
{
glyphname = uniE649;
lastChange = "2018-07-14 05:02:01 +0000";
layers = (
{
hints = (
{
horizontal = 1;
place = "{-82, 21}";
target = up;
type = BottomGhost;
},
{
horizontal = 1;
place = "{914, 83}";
type = Stem;
},
{
horizontal = 1;
place = "{1638, 82}";
type = Stem;
},
{
place = "{757, 82}";
type = Stem;
},
{
place = "{1480, 82}";
type = Stem;
}
);
layerId = "44EE3EC1-6A7A-489F-A767-F91A9060DD57";
paths = (
{
closed = 1;
nodes = (
"1613 542 OFFCURVE",
"1563 614 OFFCURVE",
"1498 671 CURVE SMOOTH",
"1447 716 OFFCURVE",
"1387 752 OFFCURVE",
"1320 778 CURVE",
"1358 797 OFFCURVE",
"1393 821 OFFCURVE",
"1426 849 CURVE SMOOTH",
"1479 894 OFFCURVE",
"1521 947 OFFCURVE",
"1551 1006 CURVE SMOOTH",
"1582 1069 OFFCURVE",
"1597 1135 OFFCURVE",
"1597 1203 CURVE SMOOTH",
"1597 1272 OFFCURVE",
"1582 1338 OFFCURVE",
"1551 1400 CURVE SMOOTH",
"1521 1459 OFFCURVE",
"1479 1512 OFFCURVE",
"1426 1558 CURVE SMOOTH",
"1318 1649 OFFCURVE",
"1175 1700 OFFCURVE",
"1024 1700 CURVE SMOOTH",
"873 1700 OFFCURVE",
"730 1649 OFFCURVE",
"622 1558 CURVE SMOOTH",
"569 1512 OFFCURVE",
"527 1459 OFFCURVE",
"497 1400 CURVE SMOOTH",
"466 1338 OFFCURVE",
"451 1272 OFFCURVE",
"451 1203 CURVE SMOOTH",
"451 1135 OFFCURVE",
"466 1069 OFFCURVE",
"497 1006 CURVE SMOOTH",
"527 947 OFFCURVE",
"569 894 OFFCURVE",
"622 849 CURVE SMOOTH",
"653 822 OFFCURVE",
"688 799 OFFCURVE",
"724 780 CURVE",
"654 753 OFFCURVE",
"593 717 OFFCURVE",
"540 671 CURVE SMOOTH",
"475 614 OFFCURVE",
"425 542 OFFCURVE",
"391 457 CURVE SMOOTH",
"361 382 OFFCURVE",
"344 296 OFFCURVE",
"339 202 CURVE",
"147 401 LINE",
"58 316 LINE",
"413 -51 LINE",
"461 -51 LINE",
"461 154 LINE SMOOTH",
"461 360 OFFCURVE",
"534 707 OFFCURVE",
"1019 707 CURVE SMOOTH",
"1504 707 OFFCURVE",
"1577 360 OFFCURVE",
"1577 154 CURVE SMOOTH",
"1577 -51 LINE",
"1700 -51 LINE",
"1700 154 LINE SMOOTH",
"1700 267 OFFCURVE",
"1682 369 OFFCURVE",
"1647 457 CURVE SMOOTH"
);
},
{
closed = 1;
nodes = (
"573 1409 OFFCURVE",
"776 1577 OFFCURVE",
"1024 1577 CURVE SMOOTH",
"1272 1577 OFFCURVE",
"1475 1409 OFFCURVE",
"1475 1203 CURVE SMOOTH",
"1475 997 OFFCURVE",
"1272 829 OFFCURVE",
"1024 829 CURVE SMOOTH",
"776 829 OFFCURVE",
"573 997 OFFCURVE",
"573 1203 CURVE SMOOTH"
);
}
);
width = 2048;
}
);
note = uniE649;
unicode = E649;
},
{
glyphname = uniE64A;
lastChange = "2018-07-14 05:02:01 +0000";
layers = (
{
hints = (
{
horizontal = 1;
place = "{-189, 21}";
target = up;
type = BottomGhost;
},
{
horizontal = 1;
place = "{1828, -20}";
target = down;
type = TopGhost;
},
{
place = "{751, 82}";
type = Stem;
},
{
place = "{1214, 81}";
type = Stem;
}
);
layerId = "44EE3EC1-6A7A-489F-A767-F91A9060DD57";
paths = (
{
closed = 1;
nodes = (
"1099 -113 OFFCURVE",
"1172 -98 OFFCURVE",
"1243 -69 CURVE SMOOTH",
"1308 -42 OFFCURVE",
"1368 -3 OFFCURVE",
"1420 46 CURVE SMOOTH",
"1526 144 OFFCURVE",
"1587 273 OFFCURVE",
"1587 398 CURVE SMOOTH",
"1587 1146 LINE SMOOTH",
"1587 1271 OFFCURVE",
"1526 1398 OFFCURVE",
"1420 1495 CURVE SMOOTH",
"1368 1542 OFFCURVE",
"1308 1580 OFFCURVE",
"1242 1606 CURVE SMOOTH",
"1172 1634 OFFCURVE",
"1099 1649 OFFCURVE",
"1024 1649 CURVE SMOOTH",
"949 1649 OFFCURVE",
"876 1634 OFFCURVE",
"806 1606 CURVE SMOOTH",
"740 1580 OFFCURVE",
"680 1542 OFFCURVE",
"628 1495 CURVE SMOOTH",
"522 1398 OFFCURVE",
"461 1271 OFFCURVE",
"461 1146 CURVE SMOOTH",
"461 398 LINE SMOOTH",
"461 273 OFFCURVE",
"522 144 OFFCURVE",
"628 46 CURVE SMOOTH",
"680 -3 OFFCURVE",
"740 -42 OFFCURVE",
"805 -69 CURVE SMOOTH",
"876 -98 OFFCURVE",
"949 -113 OFFCURVE",
"1024 -113 CURVE SMOOTH"
);
},
{
closed = 1;
nodes = (
"1140 1526 OFFCURVE",
"1251 1483 OFFCURVE",
"1337 1404 CURVE SMOOTH",
"1418 1330 OFFCURVE",
"1464 1236 OFFCURVE",
"1464 1146 CURVE SMOOTH",
"1464 398 LINE SMOOTH",
"1464 307 OFFCURVE",
"1418 211 OFFCURVE",
"1337 136 CURVE SMOOTH",
"1250 55 OFFCURVE",
"1139 10 OFFCURVE",
"1024 10 CURVE SMOOTH",
"909 10 OFFCURVE",
"798 55 OFFCURVE",
"711 136 CURVE SMOOTH",
"630 211 OFFCURVE",
"584 307 OFFCURVE",
"584 398 CURVE SMOOTH",
"584 1146 LINE SMOOTH",
"584 1236 OFFCURVE",
"630 1330 OFFCURVE",
"711 1404 CURVE SMOOTH",
"797 1483 OFFCURVE",
"908 1526 OFFCURVE",
"1024 1526 CURVE SMOOTH"
);
}
);
width = 2048;
}
);
note = uniE64A;
unicode = E64A;
},
{
glyphname = uniE64B;
lastChange = "2018-07-14 05:02:01 +0000";
layers = (
{
hints = (
{
horizontal = 1;
place = "{124, 21}";
target = up;
type = BottomGhost;
},
{
horizontal = 1;
place = "{1516, -20}";
target = down;
type = TopGhost;
}
);
layerId = "44EE3EC1-6A7A-489F-A767-F91A9060DD57";
paths = (
{
closed = 1;
nodes = (
"1025 476 LINE",
"1069 520 LINE SMOOTH",
"1363 816 OFFCURVE",
"1664 967 OFFCURVE",
"1667 969 CURVE",
"1612 1079 LINE",
"1609 1077 OFFCURVE",
"1530 1038 OFFCURVE",
"1413 960 CURVE SMOOTH",
"1247 849 OFFCURVE",
"1116 736 OFFCURVE",
"1025 649 CURVE",
"877 790 OFFCURVE",
"733 895 OFFCURVE",
"635 960 CURVE SMOOTH",
"518 1038 OFFCURVE",
"439 1077 OFFCURVE",
"436 1079 CURVE",
"381 969 LINE",
"384 967 OFFCURVE",
"685 816 OFFCURVE",
"982 520 CURVE SMOOTH"
);
},
{
closed = 1;
nodes = (
"1025 -87 LINE",
"1069 -43 LINE SMOOTH",
"1363 252 OFFCURVE",
"1664 404 OFFCURVE",
"1667 406 CURVE",
"1612 516 LINE",
"1609 514 OFFCURVE",
"1530 475 OFFCURVE",
"1413 397 CURVE SMOOTH",
"1247 286 OFFCURVE",
"1116 172 OFFCURVE",
"1025 86 CURVE",
"877 227 OFFCURVE",
"733 332 OFFCURVE",
"635 397 CURVE SMOOTH",
"518 475 OFFCURVE",
"439 514 OFFCURVE",
"436 516 CURVE",
"381 406 LINE",
"384 404 OFFCURVE",
"685 252 OFFCURVE",
"982 -44 CURVE SMOOTH"
);
},
{
closed = 1;
nodes = (
"1025 1040 LINE",
"1069 1083 LINE SMOOTH",
"1363 1379 OFFCURVE",
"1664 1531 OFFCURVE",
"1667 1532 CURVE",
"1612 1642 LINE",
"1609 1641 OFFCURVE",
"1530 1601 OFFCURVE",
"1413 1523 CURVE SMOOTH",
"1247 1413 OFFCURVE",
"1116 1299 OFFCURVE",
"1025 1212 CURVE",
"877 1353 OFFCURVE",
"733 1458 OFFCURVE",
"635 1523 CURVE SMOOTH",
"518 1601 OFFCURVE",
"439 1641 OFFCURVE",
"436 1642 CURVE",
"381 1532 LINE",
"384 1531 OFFCURVE",
"685 1379 OFFCURVE",
"982 1083 CURVE SMOOTH"
);
}
);
width = 2048;
}
);
note = uniE64B;
unicode = E64B;
},
{
glyphname = uniE64C;
lastChange = "2018-07-14 05:02:01 +0000";
layers = (
{
hints = (
{
horizontal = 1;
place = "{17, 21}";
target = up;
type = BottomGhost;
},
{
horizontal = 1;
place = "{997, 83}";
type = Stem;
},
{
place = "{1112, 82}";
type = Stem;
}
);
layerId = "44EE3EC1-6A7A-489F-A767-F91A9060DD57";
paths = (
{
closed = 1;
nodes = (
"1085 1229 LINE",
"1085 1690 LINE",
"963 1690 LINE",
"963 1229 LINE"
);
},
{
closed = 1;
nodes = (
"1534 1038 LINE",
"1790 1381 LINE",
"1692 1455 LINE",
"1436 1112 LINE"
);
},
{
closed = 1;
nodes = (
"514 1038 LINE",
"612 1112 LINE",
"356 1455 LINE",
"258 1381 LINE"
);
},
{
closed = 1;
nodes = (
"471 410 LINE SMOOTH",
"471 564 OFFCURVE",
"524 692 OFFCURVE",
"623 779 CURVE SMOOTH",
"721 866 OFFCURVE",
"859 911 OFFCURVE",
"1024 911 CURVE SMOOTH",
"1189 911 OFFCURVE",
"1327 866 OFFCURVE",
"1425 779 CURVE SMOOTH",
"1524 692 OFFCURVE",
"1577 564 OFFCURVE",
"1577 410 CURVE SMOOTH",
"1577 -51 LINE",
"1700 -51 LINE",
"1700 410 LINE SMOOTH",
"1700 600 OFFCURVE",
"1633 760 OFFCURVE",
"1506 872 CURVE SMOOTH",
"1386 978 OFFCURVE",
"1219 1034 OFFCURVE",
"1024 1034 CURVE SMOOTH",
"829 1034 OFFCURVE",
"662 978 OFFCURVE",
"542 872 CURVE SMOOTH",
"415 760 OFFCURVE",
"348 600 OFFCURVE",
"348 410 CURVE SMOOTH",
"348 199 LINE",
"146 402 LINE",
"59 315 LINE",
"425 -51 LINE",
"471 -51 LINE"
);
}
);
width = 2048;
}
);
note = uniE64C;
unicode = E64C;
},
{
glyphname = uniE64D;
lastChange = "2018-07-14 05:02:01 +0000";
layers = (
{
hints = (
{
horizontal = 1;
place = "{154, 82}";
type = Stem;
},
{
horizontal = 1;
place = "{1485, -20}";
target = down;
type = TopGhost;
},
{
place = "{390, 82}";
type = Stem;
}
);
layerId = "44EE3EC1-6A7A-489F-A767-F91A9060DD57";
paths = (
{
closed = 1;
nodes = (
"1843 61 LINE",
"573 61 LINE",
"573 1587 LINE",
"451 1587 LINE",
"451 -61 LINE",
"1843 -61 LINE"
);
}
);
width = 2048;
}
);
note = uniE64D;
unicode = E64D;
},
{
glyphname = uniE64E;
lastChange = "2018-07-14 05:02:01 +0000";
layers = (
{
hints = (
{
horizontal = 1;
place = "{147, 21}";
target = up;
type = BottomGhost;
},
{
horizontal = 1;
place = "{1409, 82}";
type = Stem;
}
);
layerId = "44EE3EC1-6A7A-489F-A767-F91A9060DD57";
paths = (
{
closed = 1;
nodes = (
"1950 970 LINE",
"1950 982 LINE",
"1950 993 LINE",
"1950 1006 LINE",
"1949 1021 OFFCURVE",
"1949 1037 OFFCURVE",
"1948 1053 CURVE SMOOTH",
"1947 1085 OFFCURVE",
"1944 1117 OFFCURVE",
"1941 1150 CURVE SMOOTH",
"1939 1166 OFFCURVE",
"1936 1182 OFFCURVE",
"1934 1198 CURVE",
"1931 1214 OFFCURVE",
"1928 1230 OFFCURVE",
"1925 1247 CURVE",
"1917 1279 OFFCURVE",
"1908 1312 OFFCURVE",
"1895 1344 CURVE SMOOTH",
"1882 1376 OFFCURVE",
"1866 1408 OFFCURVE",
"1845 1438 CURVE SMOOTH",
"1824 1467 OFFCURVE",
"1798 1495 OFFCURVE",
"1768 1517 CURVE SMOOTH",
"1753 1528 OFFCURVE",
"1737 1538 OFFCURVE",
"1721 1547 CURVE",
"1705 1555 OFFCURVE",
"1688 1563 OFFCURVE",
"1671 1569 CURVE SMOOTH",
"1637 1581 OFFCURVE",
"1602 1588 OFFCURVE",
"1568 1593 CURVE SMOOTH",
"1551 1595 OFFCURVE",
"1534 1596 OFFCURVE",
"1517 1597 CURVE",
"1508 1597 OFFCURVE",
"1500 1597 OFFCURVE",
"1492 1597 CURVE SMOOTH",
"1485 1597 LINE",
"1479 1597 LINE",
"1473 1597 LINE",
"1470 1597 LINE",
"1467 1597 LINE",
"1453 1597 LINE",
"1441 1596 LINE SMOOTH",
"1432 1595 OFFCURVE",
"1424 1594 OFFCURVE",
"1415 1593 CURVE SMOOTH",
"1398 1591 OFFCURVE",
"1381 1588 OFFCURVE",
"1363 1585 CURVE",
"1346 1581 OFFCURVE",
"1329 1576 OFFCURVE",
"1312 1570 CURVE SMOOTH",
"1295 1564 OFFCURVE",
"1278 1556 OFFCURVE",
"1262 1548 CURVE SMOOTH",
"1230 1531 OFFCURVE",
"1200 1510 OFFCURVE",
"1174 1485 CURVE SMOOTH",
"1147 1460 OFFCURVE",
"1126 1432 OFFCURVE",
"1107 1404 CURVE SMOOTH",
"1088 1376 OFFCURVE",
"1072 1347 OFFCURVE",
"1057 1318 CURVE SMOOTH",
"1045 1294 OFFCURVE",
"1034 1271 OFFCURVE",
"1024 1248 CURVE",
"1015 1268 OFFCURVE",
"1005 1288 OFFCURVE",
"995 1309 CURVE SMOOTH",
"981 1336 OFFCURVE",
"966 1364 OFFCURVE",
"949 1391 CURVE SMOOTH",
"932 1417 OFFCURVE",
"913 1444 OFFCURVE",
"889 1468 CURVE",
"878 1481 OFFCURVE",
"865 1492 OFFCURVE",
"852 1503 CURVE SMOOTH",
"839 1514 OFFCURVE",
"825 1524 OFFCURVE",
"810 1534 CURVE SMOOTH",
"781 1552 OFFCURVE",
"749 1566 OFFCURVE",
"717 1576 CURVE SMOOTH",
"684 1586 OFFCURVE",
"651 1592 OFFCURVE",
"618 1595 CURVE SMOOTH",
"602 1596 OFFCURVE",
"586 1597 OFFCURVE",
"570 1597 CURVE SMOOTH",
"564 1597 LINE",
"557 1597 LINE",
"555 1597 LINE",
"553 1597 LINE",
"553 1597 LINE",
"552 1597 LINE",
"545 1597 LINE SMOOTH",
"540 1597 OFFCURVE",
"536 1596 OFFCURVE",
"531 1596 CURVE SMOOTH",
"527 1596 OFFCURVE",
"523 1595 OFFCURVE",
"518 1595 CURVE",
"484 1591 OFFCURVE",
"450 1582 OFFCURVE",
"418 1570 CURVE SMOOTH",
"386 1557 OFFCURVE",
"356 1540 OFFCURVE",
"328 1521 CURVE SMOOTH",
"300 1501 OFFCURVE",
"275 1478 OFFCURVE",
"253 1453 CURVE SMOOTH",
"230 1428 OFFCURVE",
"211 1402 OFFCURVE",
"194 1374 CURVE SMOOTH",
"160 1318 OFFCURVE",
"135 1257 OFFCURVE",
"119 1196 CURVE SMOOTH",
"103 1134 OFFCURVE",
"95 1072 OFFCURVE",
"92 1010 CURVE",
"91 1002 OFFCURVE",
"91 994 OFFCURVE",
"91 987 CURVE",
"90 979 OFFCURVE",
"90 971 OFFCURVE",
"90 963 CURVE SMOOTH",
"90 957 LINE",
"90 951 LINE",
"90 946 LINE",
"90 944 LINE",
"90 943 LINE",
"91 940 LINE",
"91 933 LINE SMOOTH",
"91 931 OFFCURVE",
"91 929 OFFCURVE",
"91 927 CURVE",
"92 914 LINE SMOOTH",
"94 882 OFFCURVE",
"99 850 OFFCURVE",
"107 818 CURVE SMOOTH",
"122 755 OFFCURVE",
"146 695 OFFCURVE",
"176 640 CURVE SMOOTH",
"206 584 OFFCURVE",
"241 532 OFFCURVE",
"280 484 CURVE SMOOTH",
"318 436 OFFCURVE",
"360 392 OFFCURVE",
"404 350 CURVE SMOOTH",
"448 307 OFFCURVE",
"493 268 OFFCURVE",
"541 231 CURVE SMOOTH",
"588 193 OFFCURVE",
"637 158 OFFCURVE",
"686 125 CURVE SMOOTH",
"736 91 OFFCURVE",
"786 59 OFFCURVE",
"838 29 CURVE SMOOTH",
"864 14 OFFCURVE",
"890 0 OFFCURVE",
"916 -14 CURVE SMOOTH",
"930 -21 OFFCURVE",
"943 -28 OFFCURVE",
"956 -35 CURVE SMOOTH",
"963 -39 OFFCURVE",
"970 -42 OFFCURVE",
"977 -45 CURVE",
"987 -50 LINE",
"998 -56 LINE",
"998 -56 LINE",
"1025 -68 LINE",
"1050 -56 LINE",
"1061 -50 LINE",
"1070 -45 LINE",
"1090 -35 LINE SMOOTH",
"1103 -28 OFFCURVE",
"1115 -22 OFFCURVE",
"1128 -15 CURVE SMOOTH",
"1153 -1 OFFCURVE",
"1178 14 OFFCURVE",
"1203 28 CURVE SMOOTH",
"1253 58 OFFCURVE",
"1302 88 OFFCURVE",
"1349 121 CURVE SMOOTH",
"1397 153 OFFCURVE",
"1444 187 OFFCURVE",
"1489 223 CURVE SMOOTH",
"1535 259 OFFCURVE",
"1579 297 OFFCURVE",
"1621 337 CURVE SMOOTH",
"1643 357 OFFCURVE",
"1663 377 OFFCURVE",
"1684 399 CURVE SMOOTH",
"1704 420 OFFCURVE",
"1724 442 OFFCURVE",
"1742 464 CURVE SMOOTH",
"1761 487 OFFCURVE",
"1780 510 OFFCURVE",
"1797 534 CURVE SMOOTH",
"1815 558 OFFCURVE",
"1831 583 OFFCURVE",
"1846 609 CURVE SMOOTH",
"1862 635 OFFCURVE",
"1876 662 OFFCURVE",
"1888 689 CURVE SMOOTH",
"1901 717 OFFCURVE",
"1912 745 OFFCURVE",
"1922 775 CURVE",
"1926 789 OFFCURVE",
"1930 804 OFFCURVE",
"1934 819 CURVE",
"1937 834 OFFCURVE",
"1940 850 OFFCURVE",
"1943 865 CURVE SMOOTH",
"1948 895 OFFCURVE",
"1950 927 OFFCURVE",
"1950 958 CURVE",
"1950 958 LINE"
);
},
{
closed = 1;
nodes = (
"1822 833 OFFCURVE",
"1818 820 OFFCURVE",
"1815 808 CURVE",
"1807 784 OFFCURVE",
"1797 760 OFFCURVE",
"1786 736 CURVE",
"1776 712 OFFCURVE",
"1763 689 OFFCURVE",
"1750 667 CURVE SMOOTH",
"1736 644 OFFCURVE",
"1721 622 OFFCURVE",
"1706 600 CURVE",
"1690 579 OFFCURVE",
"1673 558 OFFCURVE",
"1656 537 CURVE SMOOTH",
"1639 517 OFFCURVE",
"1620 497 OFFCURVE",
"1602 477 CURVE",
"1583 458 OFFCURVE",
"1563 439 OFFCURVE",
"1543 420 CURVE SMOOTH",
"1523 402 OFFCURVE",
"1503 384 OFFCURVE",
"1482 366 CURVE SMOOTH",
"1461 349 OFFCURVE",
"1440 331 OFFCURVE",
"1418 315 CURVE SMOOTH",
"1374 281 OFFCURVE",
"1330 249 OFFCURVE",
"1284 219 CURVE SMOOTH",
"1238 188 OFFCURVE",
"1191 159 OFFCURVE",
"1143 132 CURVE SMOOTH",
"1119 118 OFFCURVE",
"1095 105 OFFCURVE",
"1070 92 CURVE SMOOTH",
"1058 86 OFFCURVE",
"1046 79 OFFCURVE",
"1034 73 CURVE",
"1025 68 LINE",
"1013 74 LINE SMOOTH",
"1000 81 OFFCURVE",
"988 88 OFFCURVE",
"975 95 CURVE SMOOTH",
"950 108 OFFCURVE",
"926 122 OFFCURVE",
"901 137 CURVE SMOOTH",
"852 166 OFFCURVE",
"804 197 OFFCURVE",
"757 229 CURVE SMOOTH",
"710 261 OFFCURVE",
"664 295 OFFCURVE",
"620 330 CURVE SMOOTH",
"575 365 OFFCURVE",
"532 402 OFFCURVE",
"492 441 CURVE SMOOTH",
"452 480 OFFCURVE",
"414 521 OFFCURVE",
"379 564 CURVE SMOOTH",
"344 607 OFFCURVE",
"314 652 OFFCURVE",
"288 700 CURVE SMOOTH",
"275 724 OFFCURVE",
"264 748 OFFCURVE",
"254 773 CURVE SMOOTH",
"245 797 OFFCURVE",
"237 822 OFFCURVE",
"230 847 CURVE",
"224 873 OFFCURVE",
"220 898 OFFCURVE",
"218 924 CURVE",
"218 933 LINE SMOOTH",
"218 935 OFFCURVE",
"217 937 OFFCURVE",
"217 938 CURVE SMOOTH",
"217 943 LINE",
"217 945 LINE",
"217 946 LINE",
"217 947 LINE",
"217 953 LINE",
"217 958 LINE",
"217 963 LINE SMOOTH",
"217 970 OFFCURVE",
"217 976 OFFCURVE",
"217 983 CURVE SMOOTH",
"217 990 OFFCURVE",
"218 997 OFFCURVE",
"218 1004 CURVE",
"221 1058 OFFCURVE",
"228 1112 OFFCURVE",
"241 1164 CURVE SMOOTH",
"255 1215 OFFCURVE",
"274 1265 OFFCURVE",
"301 1309 CURVE SMOOTH",
"327 1352 OFFCURVE",
"361 1391 OFFCURVE",
"400 1420 CURVE SMOOTH",
"420 1434 OFFCURVE",
"442 1446 OFFCURVE",
"464 1455 CURVE SMOOTH",
"486 1464 OFFCURVE",
"509 1470 OFFCURVE",
"533 1473 CURVE",
"536 1473 OFFCURVE",
"539 1473 OFFCURVE",
"541 1474 CURVE",
"544 1474 OFFCURVE",
"548 1474 OFFCURVE",
"550 1474 CURVE SMOOTH",
"554 1474 LINE",
"554 1474 LINE",
"555 1474 LINE",
"556 1474 LINE",
"559 1475 LINE",
"564 1475 LINE",
"569 1475 LINE SMOOTH",
"582 1475 OFFCURVE",
"595 1474 OFFCURVE",
"608 1473 CURVE SMOOTH",
"633 1471 OFFCURVE",
"658 1467 OFFCURVE",
"682 1460 CURVE SMOOTH",
"729 1446 OFFCURVE",
"770 1422 OFFCURVE",
"805 1386 CURVE SMOOTH",
"840 1351 OFFCURVE",
"869 1306 OFFCURVE",
"896 1257 CURVE SMOOTH",
"923 1208 OFFCURVE",
"948 1155 OFFCURVE",
"979 1102 CURVE",
"979 1102 LINE",
"1020 1017 LINE",
"1069 1102 LINE SMOOTH",
"1085 1130 OFFCURVE",
"1100 1158 OFFCURVE",
"1114 1185 CURVE SMOOTH",
"1128 1213 OFFCURVE",
"1142 1240 OFFCURVE",
"1157 1265 CURVE",
"1171 1291 OFFCURVE",
"1186 1316 OFFCURVE",
"1202 1338 CURVE SMOOTH",
"1210 1349 OFFCURVE",
"1218 1360 OFFCURVE",
"1227 1370 CURVE SMOOTH",
"1236 1380 OFFCURVE",
"1245 1390 OFFCURVE",
"1254 1398 CURVE SMOOTH",
"1273 1416 OFFCURVE",
"1294 1430 OFFCURVE",
"1317 1441 CURVE SMOOTH",
"1339 1452 OFFCURVE",
"1364 1460 OFFCURVE",
"1389 1466 CURVE",
"1402 1468 OFFCURVE",
"1415 1470 OFFCURVE",
"1429 1472 CURVE SMOOTH",
"1435 1473 OFFCURVE",
"1442 1473 OFFCURVE",
"1449 1474 CURVE",
"1459 1474 LINE",
"1469 1474 LINE",
"1471 1475 LINE",
"1474 1475 LINE",
"1480 1475 LINE",
"1485 1475 LINE",
"1491 1475 LINE",
"1497 1474 OFFCURVE",
"1505 1474 OFFCURVE",
"1512 1474 CURVE",
"1526 1473 OFFCURVE",
"1539 1472 OFFCURVE",
"1553 1470 CURVE SMOOTH",
"1580 1467 OFFCURVE",
"1606 1461 OFFCURVE",
"1630 1453 CURVE SMOOTH",
"1654 1445 OFFCURVE",
"1676 1433 OFFCURVE",
"1696 1419 CURVE SMOOTH",
"1716 1405 OFFCURVE",
"1733 1388 OFFCURVE",
"1748 1367 CURVE SMOOTH",
"1763 1347 OFFCURVE",
"1776 1324 OFFCURVE",
"1786 1299 CURVE SMOOTH",
"1797 1274 OFFCURVE",
"1806 1248 OFFCURVE",
"1812 1220 CURVE",
"1819 1193 OFFCURVE",
"1824 1164 OFFCURVE",
"1828 1135 CURVE SMOOTH",
"1832 1107 OFFCURVE",
"1834 1077 OFFCURVE",
"1836 1048 CURVE SMOOTH",
"1837 1033 OFFCURVE",
"1837 1018 OFFCURVE",
"1838 1003 CURVE",
"1838 992 LINE",
"1838 981 LINE",
"1838 969 LINE",
"1838 958 LINE SMOOTH",
"1838 933 OFFCURVE",
"1836 908 OFFCURVE",
"1832 883 CURVE SMOOTH",
"1830 870 OFFCURVE",
"1828 858 OFFCURVE",
"1825 845 CURVE SMOOTH"
);
}
);
width = 2048;
}
);
note = uniE64E;
unicode = E64E;
},
{
glyphname = uniE64F;
lastChange = "2018-07-14 05:02:01 +0000";
layers = (
{
hints = (
{
horizontal = 1;
place = "{151, 82}";
type = Stem;
},
{
horizontal = 1;
place = "{184, 49}";
type = Stem;
},
{
horizontal = 1;
place = "{1486, -20}";
target = down;
type = TopGhost;
},
{
horizontal = 1;
place = "{1487, -20}";
target = down;
type = TopGhost;
}
);
layerId = "44EE3EC1-6A7A-489F-A767-F91A9060DD57";
paths = (
{
closed = 1;
nodes = (
"1024 1666 LINE",
"98 -61 LINE",
"1950 -61 LINE"
);
},
{
closed = 1;
nodes = (
"1408 61 LINE",
"1093 496 LINE",
"1333 829 LINE",
"1745 61 LINE"
);
},
{
closed = 1;
nodes = (
"714 828 LINE",
"954 496 LINE",
"640 61 LINE",
"303 61 LINE"
);
},
{
closed = 1;
nodes = (
"1024 1406 LINE",
"1274 939 LINE",
"1024 592 LINE",
"773 939 LINE"
);
},
{
closed = 1;
nodes = (
"1024 400 LINE",
"1269 61 LINE",
"779 61 LINE"
);
}
);
width = 2048;
}
);
note = uniE64F;
unicode = E64F;
},
{
glyphname = uniE650;
lastChange = "2018-07-14 05:02:01 +0000";
layers = (
{
hints = (
{
horizontal = 1;
place = "{166, 82}";
type = Stem;
},
{
horizontal = 1;
place = "{1390, 82}";
type = Stem;
},
{
place = "{983, 82}";
type = Stem;
}
);
layerId = "44EE3EC1-6A7A-489F-A767-F91A9060DD57";
paths = (
{
closed = 1;
nodes = (
"1638 56 LINE",
"1080 56 LINE",
"1080 1428 LINE",
"1638 1428 LINE",
"1638 1541 LINE",
"410 1541 LINE",
"410 1428 LINE",
"968 1428 LINE",
"968 56 LINE",
"410 56 LINE",
"410 -56 LINE",
"1638 -56 LINE"
);
}
);
width = 2048;
}
);
note = uniE650;
unicode = E650;
},
{
glyphname = uniE651;
lastChange = "2018-07-14 05:02:01 +0000";
layers = (
{
hints = (
{
horizontal = 1;
place = "{-85, 21}";
target = up;
type = BottomGhost;
},
{
horizontal = 1;
place = "{159, 82}";
type = Stem;
},
{
horizontal = 1;
place = "{723, 82}";
type = Stem;
},
{
horizontal = 1;
place = "{1261, 82}";
type = Stem;
},
{
horizontal = 1;
place = "{1597, 126}";
type = Stem;
},
{
place = "{679, 382}";
type = Stem;
},
{
place = "{750, 126}";
type = Stem;
},
{
place = "{979, 82}";
type = Stem;
},
{
place = "{979, 388}";
type = Stem;
},
{
place = "{1167, 125}";
type = Stem;
}
);
layerId = "44EE3EC1-6A7A-489F-A767-F91A9060DD57";
paths = (
{
closed = 1;
nodes = (
"1741 773 LINE",
"1085 773 LINE",
"1085 1070 LINE",
"1741 1070 LINE",
"1741 1183 LINE",
"1085 1183 LINE",
"1085 1690 LINE",
"963 1690 LINE",
"963 1183 LINE",
"307 1183 LINE",
"307 1070 LINE",
"963 1070 LINE",
"963 773 LINE",
"307 773 LINE",
"307 660 LINE",
"963 660 LINE",
"963 364 LINE",
"307 364 LINE",
"307 251 LINE",
"963 251 LINE",
"963 -52 LINE",
"1085 -52 LINE",
"1085 251 LINE",
"1741 251 LINE",
"1741 364 LINE",
"1085 364 LINE",
"1085 660 LINE",
"1741 660 LINE"
);
},
{
closed = 1;
nodes = (
"666 1632 OFFCURVE",
"608 1690 OFFCURVE",
"538 1690 CURVE SMOOTH",
"467 1690 OFFCURVE",
"410 1632 OFFCURVE",
"410 1562 CURVE SMOOTH",
"410 1491 OFFCURVE",
"467 1434 OFFCURVE",
"538 1434 CURVE SMOOTH",
"608 1434 OFFCURVE",
"666 1491 OFFCURVE",
"666 1562 CURVE SMOOTH"
);
},
{
closed = 1;
nodes = (
"1638 1632 OFFCURVE",
"1581 1690 OFFCURVE",
"1510 1690 CURVE SMOOTH",
"1440 1690 OFFCURVE",
"1382 1632 OFFCURVE",
"1382 1562 CURVE SMOOTH",
"1382 1491 OFFCURVE",
"1440 1434 OFFCURVE",
"1510 1434 CURVE SMOOTH",
"1581 1434 OFFCURVE",
"1638 1491 OFFCURVE",
"1638 1562 CURVE SMOOTH"
);
}
);
width = 2048;
}
);
note = uniE651;
unicode = E651;
},
{
glyphname = uniE652;
lastChange = "2018-07-14 05:02:01 +0000";
layers = (
{
hints = (
{
horizontal = 1;
place = "{456, 82}";
type = Stem;
},
{
horizontal = 1;
place = "{769, 126}";
type = Stem;
},
{
place = "{169, 81}";
type = Stem;
},
{
place = "{1555, 82}";
type = Stem;
},
{
place = "{1754, 125}";
type = Stem;
}
);
layerId = "44EE3EC1-6A7A-489F-A767-F91A9060DD57";
paths = (
{
closed = 1;
nodes = (
"1587 92 LINE",
"1587 1434 LINE",
"1464 1434 LINE",
"1464 215 LINE",
"307 215 LINE",
"307 1434 LINE",
"184 1434 LINE",
"184 92 LINE"
);
},
{
closed = 1;
nodes = (
"1956 890 OFFCURVE",
"1898 947 OFFCURVE",
"1828 947 CURVE SMOOTH",
"1757 947 OFFCURVE",
"1700 890 OFFCURVE",
"1700 819 CURVE SMOOTH",
"1700 749 OFFCURVE",
"1757 691 OFFCURVE",
"1828 691 CURVE SMOOTH",
"1898 691 OFFCURVE",
"1956 749 OFFCURVE",
"1956 819 CURVE SMOOTH"
);
}
);
width = 2048;
}
);
note = uniE652;
unicode = E652;
},
{
glyphname = uniE653;
lastChange = "2018-07-14 05:02:01 +0000";
layers = (
{
hints = (
{
horizontal = 1;
place = "{45, 82}";
type = Stem;
},
{
horizontal = 1;
place = "{1594, -20}";
target = down;
type = TopGhost;
},
{
place = "{339, 82}";
type = Stem;
},
{
place = "{1628, 82}";
type = Stem;
}
);
layerId = "44EE3EC1-6A7A-489F-A767-F91A9060DD57";
paths = (
{
closed = 1;
nodes = (
"1751 1587 LINE",
"1628 1587 LINE",
"1628 61 LINE",
"420 61 LINE",
"420 1587 LINE",
"297 1587 LINE",
"297 -61 LINE",
"1751 -61 LINE"
);
}
);
width = 2048;
}
);
note = uniE653;
unicode = E653;
},
{
glyphname = uniE654;
lastChange = "2018-07-14 05:02:01 +0000";
layers = (
{
hints = (
{
horizontal = 1;
place = "{1084, -20}";
target = down;
type = TopGhost;
}
);
layerId = "44EE3EC1-6A7A-489F-A767-F91A9060DD57";
paths = (
{
closed = 1;
nodes = (
"1151 195 OFFCURVE",
"1274 224 OFFCURVE",
"1390 281 CURVE SMOOTH",
"1501 337 OFFCURVE",
"1601 416 OFFCURVE",
"1686 516 CURVE SMOOTH",
"1771 616 OFFCURVE",
"1837 732 OFFCURVE",
"1884 861 CURVE SMOOTH",
"1931 993 OFFCURVE",
"1955 1135 OFFCURVE",
"1955 1280 CURVE",
"1833 1280 LINE",
"1833 749 OFFCURVE",
"1470 317 OFFCURVE",
"1024 317 CURVE SMOOTH",
"578 317 OFFCURVE",
"215 749 OFFCURVE",
"215 1280 CURVE",
"93 1280 LINE",
"93 1135 OFFCURVE",
"117 993 OFFCURVE",
"164 861 CURVE SMOOTH",
"211 732 OFFCURVE",
"277 616 OFFCURVE",
"362 516 CURVE SMOOTH",
"447 416 OFFCURVE",
"547 337 OFFCURVE",
"658 281 CURVE SMOOTH",
"774 224 OFFCURVE",
"897 195 OFFCURVE",
"1024 195 CURVE SMOOTH"
);
}
);
width = 2048;
}
);
note = uniE654;
unicode = E654;
},
{
glyphname = uniE655;
lastChange = "2018-07-14 05:02:01 +0000";
layers = (
{
hints = (
{
horizontal = 1;
place = "{-131, 82}";
type = Stem;
},
{
horizontal = 1;
place = "{291, 80}";
type = Stem;
},
{
horizontal = 1;
place = "{659, 328}";
type = Stem;
},
{
horizontal = 1;
place = "{907, 80}";
type = Stem;
},
{
horizontal = 1;
place = "{907, 311}";
type = Stem;
},
{
horizontal = 1;
place = "{1687, 82}";
type = Stem;
},
{
place = "{261, 82}";
type = Stem;
},
{
place = "{665, 84}";
type = Stem;
},
{
place = "{999, 82}";
type = Stem;
},
{
place = "{1311, 84}";
type = Stem;
},
{
place = "{1705, 81}";
type = Stem;
}
);
layerId = "44EE3EC1-6A7A-489F-A767-F91A9060DD57";
paths = (
{
closed = 1;
nodes = (
"1802 1649 LINE",
"246 1649 LINE",
"246 -61 LINE",
"1802 -61 LINE"
);
},
{
closed = 1;
nodes = (
"368 1526 LINE",
"1679 1526 LINE",
"1679 61 LINE",
"368 61 LINE"
);
},
{
closed = 1;
nodes = (
"1151 205 OFFCURVE",
"1271 254 OFFCURVE",
"1360 344 CURVE SMOOTH",
"1450 434 OFFCURVE",
"1500 554 OFFCURVE",
"1500 681 CURVE SMOOTH",
"1500 808 OFFCURVE",
"1450 928 OFFCURVE",
"1360 1017 CURVE SMOOTH",
"1271 1107 OFFCURVE",
"1151 1157 OFFCURVE",
"1024 1157 CURVE SMOOTH",
"897 1157 OFFCURVE",
"777 1107 OFFCURVE",
"687 1017 CURVE SMOOTH",
"597 928 OFFCURVE",
"548 808 OFFCURVE",
"548 681 CURVE SMOOTH",
"548 554 OFFCURVE",
"597 434 OFFCURVE",
"687 344 CURVE SMOOTH",
"777 254 OFFCURVE",
"897 205 OFFCURVE",
"1024 205 CURVE SMOOTH"
);
},
{
closed = 1;
nodes = (
"1230 1055 OFFCURVE",
"1398 887 OFFCURVE",
"1398 681 CURVE SMOOTH",
"1398 475 OFFCURVE",
"1230 307 OFFCURVE",
"1024 307 CURVE SMOOTH",
"818 307 OFFCURVE",
"650 475 OFFCURVE",
"650 681 CURVE SMOOTH",
"650 887 OFFCURVE",
"818 1055 OFFCURVE",
"1024 1055 CURVE SMOOTH"
);
},
{
closed = 1;
nodes = (
"1101 417 OFFCURVE",
"1174 448 OFFCURVE",
"1230 503 CURVE SMOOTH",
"1287 559 OFFCURVE",
"1318 633 OFFCURVE",
"1318 711 CURVE",
"1215 711 LINE",
"1215 607 OFFCURVE",
"1128 520 OFFCURVE",
"1024 520 CURVE SMOOTH",
"920 520 OFFCURVE",
"832 607 OFFCURVE",
"832 711 CURVE",
"730 711 LINE",
"730 633 OFFCURVE",
"761 559 OFFCURVE",
"818 503 CURVE SMOOTH",
"873 448 OFFCURVE",
"947 417 OFFCURVE",
"1024 417 CURVE SMOOTH"
);
},
{
closed = 1;
nodes = (
"1075 1465 LINE",
"973 1465 LINE",
"973 1236 LINE",
"1075 1236 LINE"
);
},
{
closed = 1;
nodes = (
"1546 1260 LINE",
"1473 1333 LINE",
"1321 1181 LINE",
"1394 1109 LINE"
);
},
{
closed = 1;
nodes = (
"726 1181 LINE",
"574 1333 LINE",
"502 1260 LINE",
"654 1109 LINE"
);
}
);
width = 2048;
}
);
note = uniE655;
unicode = E655;
},
{
glyphname = uniE656;
lastChange = "2018-07-14 05:02:01 +0000";
layers = (
{
hints = (
{
horizontal = 1;
place = "{389, 82}";
type = Stem;
},
{
horizontal = 1;
place = "{1166, 82}";
type = Stem;
}
);
layerId = "44EE3EC1-6A7A-489F-A767-F91A9060DD57";
paths = (
{
closed = 1;
nodes = (
"1715 1116 LINE",
"1715 1239 LINE",
"333 1239 LINE",
"333 1116 LINE"
);
},
{
closed = 1;
nodes = (
"1741 348 LINE",
"1741 471 LINE",
"307 471 LINE",
"307 348 LINE"
);
}
);
width = 2048;
}
);
note = uniE656;
unicode = E656;
},
{
glyphname = uniE657;
lastChange = "2018-07-14 05:02:01 +0000";
layers = (
{
hints = (
{
horizontal = 1;
place = "{105, 126}";
type = Stem;
},
{
place = "{986, 82}";
type = Stem;
}
);
layerId = "44EE3EC1-6A7A-489F-A767-F91A9060DD57";
paths = (
{
closed = 1;
nodes = (
"1085 569 LINE",
"1085 1741 LINE",
"963 1741 LINE",
"963 569 LINE"
);
},
{
closed = 1;
nodes = (
"1437 381 LINE",
"1949 1339 LINE",
"1840 1397 LINE",
"1328 438 LINE"
);
},
{
closed = 1;
nodes = (
"611 381 LINE",
"720 438 LINE",
"208 1397 LINE",
"99 1339 LINE"
);
},
{
closed = 1;
nodes = (
"1152 147 OFFCURVE",
"1095 205 OFFCURVE",
"1024 205 CURVE SMOOTH",
"953 205 OFFCURVE",
"896 147 OFFCURVE",
"896 77 CURVE SMOOTH",
"896 6 OFFCURVE",
"953 -51 OFFCURVE",
"1024 -51 CURVE SMOOTH",
"1095 -51 OFFCURVE",
"1152 6 OFFCURVE",
"1152 77 CURVE SMOOTH"
);
}
);
width = 2048;
}
);
note = uniE657;
unicode = E657;
},
{
glyphname = uniE658;
lastChange = "2018-07-14 05:02:01 +0000";
layers = (
{
hints = (
{
horizontal = 1;
place = "{1096, 82}";
type = Stem;
},
{
place = "{144, 82}";
type = Stem;
},
{
place = "{471, 82}";
type = Stem;
},
{
place = "{1415, 82}";
type = Stem;
},
{
place = "{1822, 82}";
type = Stem;
}
);
layerId = "44EE3EC1-6A7A-489F-A767-F91A9060DD57";
paths = (
{
closed = 1;
nodes = (
"1403 1382 LINE",
"1667 1382 LINE",
"1673 51 LINE",
"1802 51 LINE",
"1769 1505 LINE",
"272 1505 LINE",
"246 51 LINE",
"375 51 LINE",
"375 1382 LINE",
"645 1382 LINE",
"631 102 LINE",
"760 102 LINE",
"768 1382 LINE",
"1280 1382 LINE",
"1288 102 LINE",
"1417 102 LINE"
);
}
);
width = 2048;
}
);
note = uniE658;
unicode = E658;
},
{
glyphname = uniE659;
lastChange = "2018-07-14 05:02:01 +0000";
layers = (
{
hints = (
{
horizontal = 1;
place = "{13, 21}";
target = up;
type = BottomGhost;
},
{
horizontal = 1;
place = "{1542, 82}";
type = Stem;
},
{
place = "{965, 82}";
type = Stem;
},
{
place = "{1401, 82}";
type = Stem;
}
);
layerId = "44EE3EC1-6A7A-489F-A767-F91A9060DD57";
paths = (
{
closed = 1;
nodes = (
"1152 6 OFFCURVE",
"1095 -51 OFFCURVE",
"1024 -51 CURVE SMOOTH",
"953 -51 OFFCURVE",
"896 6 OFFCURVE",
"896 77 CURVE SMOOTH",
"896 147 OFFCURVE",
"953 205 OFFCURVE",
"1024 205 CURVE SMOOTH",
"1095 205 OFFCURVE",
"1152 147 OFFCURVE",
"1152 77 CURVE SMOOTH"
);
},
{
closed = 1;
nodes = (
"1752 1422 OFFCURVE",
"1689 1473 OFFCURVE",
"1609 1517 CURVE SMOOTH",
"1452 1602 OFFCURVE",
"1244 1649 OFFCURVE",
"1024 1649 CURVE SMOOTH",
"804 1649 OFFCURVE",
"596 1602 OFFCURVE",
"439 1517 CURVE SMOOTH",
"359 1473 OFFCURVE",
"296 1422 OFFCURVE",
"251 1365 CURVE SMOOTH",
"201 1302 OFFCURVE",
"176 1233 OFFCURVE",
"176 1161 CURVE SMOOTH",
"176 1087 OFFCURVE",
"203 1017 OFFCURVE",
"256 952 CURVE SMOOTH",
"303 894 OFFCURVE",
"368 843 OFFCURVE",
"450 800 CURVE",
"513 906 LINE",
"512 906 OFFCURVE",
"512 907 OFFCURVE",
"511 907 CURVE",
"443 942 OFFCURVE",
"388 984 OFFCURVE",
"351 1029 CURVE SMOOTH",
"317 1072 OFFCURVE",
"299 1116 OFFCURVE",
"299 1161 CURVE SMOOTH",
"299 1205 OFFCURVE",
"315 1248 OFFCURVE",
"348 1289 CURVE SMOOTH",
"382 1333 OFFCURVE",
"433 1374 OFFCURVE",
"497 1408 CURVE SMOOTH",
"637 1484 OFFCURVE",
"824 1526 OFFCURVE",
"1024 1526 CURVE SMOOTH",
"1224 1526 OFFCURVE",
"1411 1484 OFFCURVE",
"1551 1408 CURVE SMOOTH",
"1615 1374 OFFCURVE",
"1666 1333 OFFCURVE",
"1700 1289 CURVE SMOOTH",
"1733 1248 OFFCURVE",
"1749 1205 OFFCURVE",
"1749 1161 CURVE SMOOTH",
"1749 1074 OFFCURVE",
"1682 1005 OFFCURVE",
"1627 963 CURVE SMOOTH",
"1542 899 OFFCURVE",
"1421 849 OFFCURVE",
"1283 822 CURVE",
"1281 822 OFFCURVE",
"1278 821 OFFCURVE",
"1275 821 CURVE",
"1189 803 OFFCURVE",
"1115 771 OFFCURVE",
"1061 729 CURVE SMOOTH",
"996 679 OFFCURVE",
"963 618 OFFCURVE",
"963 553 CURVE SMOOTH",
"963 358 LINE",
"1085 358 LINE",
"1085 553 LINE SMOOTH",
"1085 611 OFFCURVE",
"1173 672 OFFCURVE",
"1295 699 CURVE",
"1296 699 OFFCURVE",
"1298 700 OFFCURVE",
"1300 700 CURVE",
"1460 731 OFFCURVE",
"1599 788 OFFCURVE",
"1700 864 CURVE SMOOTH",
"1813 949 OFFCURVE",
"1872 1052 OFFCURVE",
"1872 1161 CURVE SMOOTH",
"1872 1233 OFFCURVE",
"1847 1302 OFFCURVE",
"1797 1365 CURVE SMOOTH"
);
}
);
width = 2048;
}
);
note = uniE659;
unicode = E659;
},
{
glyphname = uniE65A;
lastChange = "2018-07-14 05:02:01 +0000";
layers = (
{
hints = (
{
horizontal = 1;
place = "{35, 21}";
target = up;
type = BottomGhost;
},
{
horizontal = 1;
place = "{1604, -20}";
target = down;
type = TopGhost;
},
{
place = "{1413, 93}";
type = Stem;
},
{
place = "{1775, 82}";
type = Stem;
}
);
layerId = "44EE3EC1-6A7A-489F-A767-F91A9060DD57";
paths = (
{
closed = 1;
nodes = (
"94 20 LINE",
"99 15 LINE",
"99 15 OFFCURVE",
"100 14 OFFCURVE",
"100 13 CURVE",
"102 12 LINE",
"106 8 LINE",
"113 2 LINE",
"120 -4 LINE SMOOTH",
"130 -12 OFFCURVE",
"140 -20 OFFCURVE",
"151 -26 CURVE SMOOTH",
"163 -33 OFFCURVE",
"175 -39 OFFCURVE",
"188 -43 CURVE",
"201 -48 OFFCURVE",
"215 -51 OFFCURVE",
"229 -53 CURVE",
"233 -53 LINE",
"234 -54 LINE",
"251 -54 LINE SMOOTH",
"258 -54 OFFCURVE",
"266 -54 OFFCURVE",
"273 -53 CURVE SMOOTH",
"288 -51 OFFCURVE",
"302 -48 OFFCURVE",
"316 -43 CURVE",
"330 -37 OFFCURVE",
"342 -31 OFFCURVE",
"354 -24 CURVE",
"365 -16 OFFCURVE",
"376 -8 OFFCURVE",
"385 1 CURVE SMOOTH",
"404 19 OFFCURVE",
"420 38 OFFCURVE",
"433 58 CURVE SMOOTH",
"446 78 OFFCURVE",
"457 98 OFFCURVE",
"466 118 CURVE",
"472 130 OFFCURVE",
"477 142 OFFCURVE",
"482 155 CURVE",
"488 133 LINE",
"495 112 OFFCURVE",
"502 91 OFFCURVE",
"512 70 CURVE SMOOTH",
"522 50 OFFCURVE",
"535 28 OFFCURVE",
"552 8 CURVE SMOOTH",
"560 -2 OFFCURVE",
"570 -11 OFFCURVE",
"581 -20 CURVE SMOOTH",
"592 -29 OFFCURVE",
"605 -36 OFFCURVE",
"617 -43 CURVE",
"631 -49 OFFCURVE",
"644 -53 OFFCURVE",
"658 -57 CURVE",
"672 -59 OFFCURVE",
"685 -61 OFFCURVE",
"698 -61 CURVE SMOOTH",
"717 -61 LINE SMOOTH",
"724 -61 OFFCURVE",
"730 -60 OFFCURVE",
"737 -59 CURVE",
"750 -58 OFFCURVE",
"763 -55 OFFCURVE",
"776 -51 CURVE",
"789 -46 OFFCURVE",
"802 -41 OFFCURVE",
"814 -34 CURVE SMOOTH",
"826 -27 OFFCURVE",
"837 -19 OFFCURVE",
"847 -11 CURVE",
"867 7 OFFCURVE",
"883 26 OFFCURVE",
"896 46 CURVE SMOOTH",
"909 66 OFFCURVE",
"920 87 OFFCURVE",
"928 107 CURVE",
"937 127 OFFCURVE",
"944 147 OFFCURVE",
"950 167 CURVE",
"956 144 OFFCURVE",
"964 119 OFFCURVE",
"974 96 CURVE SMOOTH",
"980 83 OFFCURVE",
"986 69 OFFCURVE",
"993 56 CURVE SMOOTH",
"1000 43 OFFCURVE",
"1009 30 OFFCURVE",
"1019 17 CURVE SMOOTH",
"1029 4 OFFCURVE",
"1041 -9 OFFCURVE",
"1055 -20 CURVE SMOOTH",
"1069 -31 OFFCURVE",
"1085 -41 OFFCURVE",
"1102 -48 CURVE SMOOTH",
"1120 -55 OFFCURVE",
"1138 -59 OFFCURVE",
"1156 -61 CURVE",
"1193 -61 LINE SMOOTH",
"1197 -61 OFFCURVE",
"1201 -60 OFFCURVE",
"1205 -60 CURVE",
"1221 -58 OFFCURVE",
"1238 -55 OFFCURVE",
"1254 -50 CURVE SMOOTH",
"1270 -45 OFFCURVE",
"1286 -38 OFFCURVE",
"1301 -29 CURVE SMOOTH",
"1316 -20 OFFCURVE",
"1329 -10 OFFCURVE",
"1341 2 CURVE",
"1354 13 OFFCURVE",
"1364 26 OFFCURVE",
"1374 38 CURVE",
"1392 64 OFFCURVE",
"1406 91 OFFCURVE",
"1416 117 CURVE SMOOTH",
"1427 144 OFFCURVE",
"1435 170 OFFCURVE",
"1442 196 CURVE SMOOTH",
"1456 248 OFFCURVE",
"1464 300 OFFCURVE",
"1470 351 CURVE SMOOTH",
"1476 402 OFFCURVE",
"1481 453 OFFCURVE",
"1484 504 CURVE SMOOTH",
"1487 554 OFFCURVE",
"1489 605 OFFCURVE",
"1491 655 CURVE SMOOTH",
"1494 806 LINE SMOOTH",
"1495 856 OFFCURVE",
"1495 906 OFFCURVE",
"1495 956 CURVE SMOOTH",
"1495 1255 LINE",
"1372 1255 LINE",
"1372 1106 LINE",
"1371 957 LINE SMOOTH",
"1370 857 OFFCURVE",
"1369 758 OFFCURVE",
"1366 659 CURVE SMOOTH",
"1365 610 OFFCURVE",
"1363 560 OFFCURVE",
"1360 511 CURVE SMOOTH",
"1357 463 OFFCURVE",
"1353 414 OFFCURVE",
"1347 366 CURVE SMOOTH",
"1341 318 OFFCURVE",
"1334 271 OFFCURVE",
"1322 227 CURVE",
"1317 205 OFFCURVE",
"1310 184 OFFCURVE",
"1302 164 CURVE SMOOTH",
"1294 144 OFFCURVE",
"1285 126 OFFCURVE",
"1274 111 CURVE SMOOTH",
"1263 96 OFFCURVE",
"1251 85 OFFCURVE",
"1238 77 CURVE SMOOTH",
"1231 73 OFFCURVE",
"1224 70 OFFCURVE",
"1217 68 CURVE",
"1209 65 OFFCURVE",
"1201 63 OFFCURVE",
"1192 62 CURVE",
"1182 62 LINE",
"1179 61 LINE",
"1172 61 LINE SMOOTH",
"1170 61 OFFCURVE",
"1168 62 OFFCURVE",
"1166 62 CURVE SMOOTH",
"1160 62 OFFCURVE",
"1153 64 OFFCURVE",
"1148 66 CURVE",
"1142 68 OFFCURVE",
"1137 71 OFFCURVE",
"1131 76 CURVE SMOOTH",
"1126 80 OFFCURVE",
"1120 85 OFFCURVE",
"1115 92 CURVE",
"1104 106 OFFCURVE",
"1094 123 OFFCURVE",
"1086 143 CURVE SMOOTH",
"1078 163 OFFCURVE",
"1071 184 OFFCURVE",
"1065 206 CURVE SMOOTH",
"1053 250 OFFCURVE",
"1045 297 OFFCURVE",
"1038 345 CURVE SMOOTH",
"1032 393 OFFCURVE",
"1027 442 OFFCURVE",
"1023 490 CURVE SMOOTH",
"1020 539 OFFCURVE",
"1017 588 OFFCURVE",
"1015 638 CURVE SMOOTH",
"1013 687 OFFCURVE",
"1011 736 OFFCURVE",
"1010 786 CURVE",
"1009 799 OFFCURVE",
"1009 813 OFFCURVE",
"1009 826 CURVE SMOOTH",
"1009 862 OFFCURVE",
"1008 899 OFFCURVE",
"1008 935 CURVE",
"895 935 LINE",
"895 897 LINE",
"894 871 OFFCURVE",
"894 845 OFFCURVE",
"894 819 CURVE SMOOTH",
"893 781 OFFCURVE",
"892 743 OFFCURVE",
"890 704 CURVE SMOOTH",
"889 666 OFFCURVE",
"888 628 OFFCURVE",
"886 590 CURVE SMOOTH",
"884 552 OFFCURVE",
"881 514 OFFCURVE",
"878 476 CURVE SMOOTH",
"874 438 OFFCURVE",
"871 401 OFFCURVE",
"866 364 CURVE SMOOTH",
"861 327 OFFCURVE",
"855 290 OFFCURVE",
"847 255 CURVE SMOOTH",
"839 220 OFFCURVE",
"829 186 OFFCURVE",
"816 155 CURVE",
"809 140 OFFCURVE",
"802 126 OFFCURVE",
"794 113 CURVE",
"786 101 OFFCURVE",
"777 91 OFFCURVE",
"768 83 CURVE",
"758 75 OFFCURVE",
"749 70 OFFCURVE",
"738 66 CURVE",
"721 62 LINE",
"711 62 LINE",
"709 61 LINE",
"702 61 LINE",
"689 62 OFFCURVE",
"679 64 OFFCURVE",
"670 68 CURVE SMOOTH",
"661 72 OFFCURVE",
"653 79 OFFCURVE",
"645 88 CURVE SMOOTH",
"637 97 OFFCURVE",
"629 110 OFFCURVE",
"623 123 CURVE SMOOTH",
"616 137 OFFCURVE",
"610 153 OFFCURVE",
"605 169 CURVE SMOOTH",
"595 202 OFFCURVE",
"587 237 OFFCURVE",
"581 273 CURVE SMOOTH",
"576 310 OFFCURVE",
"571 347 OFFCURVE",
"568 384 CURVE SMOOTH",
"565 422 OFFCURVE",
"562 460 OFFCURVE",
"560 497 CURVE SMOOTH",
"558 536 OFFCURVE",
"557 574 OFFCURVE",
"556 612 CURVE SMOOTH",
"553 727 LINE",
"441 727 LINE",
"441 721 OFFCURVE",
"440 715 OFFCURVE",
"440 710 CURVE SMOOTH",
"440 698 LINE",
"439 668 LINE",
"437 610 LINE SMOOTH",
"436 591 OFFCURVE",
"435 572 OFFCURVE",
"433 552 CURVE",
"432 533 OFFCURVE",
"430 514 OFFCURVE",
"428 495 CURVE SMOOTH",
"422 438 LINE SMOOTH",
"420 419 OFFCURVE",
"417 400 OFFCURVE",
"414 381 CURVE SMOOTH",
"408 344 OFFCURVE",
"400 307 OFFCURVE",
"391 271 CURVE SMOOTH",
"386 253 OFFCURVE",
"381 236 OFFCURVE",
"375 219 CURVE SMOOTH",
"369 202 OFFCURVE",
"362 185 OFFCURVE",
"355 169 CURVE SMOOTH",
"348 154 OFFCURVE",
"340 139 OFFCURVE",
"331 126 CURVE SMOOTH",
"322 112 OFFCURVE",
"312 101 OFFCURVE",
"302 92 CURVE",
"292 82 OFFCURVE",
"282 76 OFFCURVE",
"272 72 CURVE SMOOTH",
"267 70 OFFCURVE",
"263 69 OFFCURVE",
"258 68 CURVE",
"255 68 OFFCURVE",
"253 67 OFFCURVE",
"250 67 CURVE SMOOTH",
"244 67 LINE",
"243 67 LINE",
"243 68 LINE",
"242 68 LINE SMOOTH",
"232 68 OFFCURVE",
"220 72 OFFCURVE",
"208 77 CURVE",
"202 80 OFFCURVE",
"196 84 OFFCURVE",
"190 88 CURVE",
"186 91 LINE",
"181 94 LINE",
"179 96 LINE",
"178 96 LINE",
"178 97 OFFCURVE",
"178 97 OFFCURVE",
"177 97 CURVE",
"171 102 LINE"
);
},
{
closed = 1;
nodes = (
"1853 1638 LINE",
"1731 1638 LINE",
"1731 -51 LINE",
"1853 -51 LINE"
);
}
);
width = 2048;
}
);
note = uniE65A;
unicode = E65A;
},
{
glyphname = uniE65B;
lastChange = "2018-07-14 05:02:01 +0000";
layers = (
{
hints = (
{
horizontal = 1;
place = "{257, 21}";
target = up;
type = BottomGhost;
},
{
horizontal = 1;
place = "{1299, 82}";
type = Stem;
},
{
place = "{221, 82}";
type = Stem;
},
{
place = "{995, 82}";
type = Stem;
},
{
place = "{1744, 82}";
type = Stem;
}
);
layerId = "44EE3EC1-6A7A-489F-A767-F91A9060DD57";
paths = (
{
closed = 1;
nodes = (
"1085 1382 LINE",
"1690 1382 LINE",
"1690 51 LINE",
"1819 51 LINE",
"1792 1505 LINE",
"256 1505 LINE",
"229 51 LINE",
"358 51 LINE",
"358 1382 LINE",
"963 1382 LINE",
"963 102 LINE",
"1085 102 LINE"
);
}
);
width = 2048;
}
);
note = uniE65B;
unicode = E65B;
},
